Aplous.ufo
<glyph name="exclam" format="1">
  <advance width="742"/>
  <unicode hex="0021"/>
  <outline>
    <contour>
      <point x="259" y="477" type="line"/>
      <point x="483" y="477" type="line"/>
      <point x="532" y="1575" type="line"/>
      <point x="210" y="1575" type="line"/>
    </contour>
    <contour>
      <point x="234" y="0" type="line"/>
      <point x="507" y="0" type="line"/>
      <point x="507" y="265" type="line"/>
      <point x="234" y="265" type="line"/>
    </contour>
  </outline>
</glyph>
<glyph name="numbersign" format="1">
  <advance width="1243"/>
  <unicode hex="0023"/>
  <outline>
    <contour>
      <point x="44" y="421" type="line"/>
      <point x="289" y="421" type="line"/>
      <point x="251" y="467" type="line"/>
      <point x="210" y="131" type="line"/>
      <point x="382" y="131" type="line"/>
      <point x="423" y="471" type="line"/>
      <point x="382" y="421" type="line"/>
      <point x="770" y="421" type="line"/>
      <point x="726" y="459" type="line"/>
      <point x="688" y="131" type="line"/>
      <point x="864" y="131" type="line"/>
      <point x="903" y="472" type="line"/>
      <point x="857" y="421" type="line"/>
      <point x="1129" y="421" type="line"/>
      <point x="1129" y="580" type="line"/>
      <point x="872" y="580" type="line"/>
      <point x="912" y="536" type="line"/>
      <point x="959" y="1027" type="line"/>
      <point x="889" y="977" type="line"/>
      <point x="1182" y="977" type="line"/>
      <point x="1182" y="1133" type="line"/>
      <point x="931" y="1133" type="line"/>
      <point x="965" y="1083" type="line"/>
      <point x="1001" y="1428" type="line"/>
      <point x="825" y="1428" type="line"/>
      <point x="789" y="1091" type="line"/>
      <point x="820" y="1133" type="line"/>
      <point x="458" y="1133" type="line"/>
      <point x="485" y="1076" type="line"/>
      <point x="523" y="1428" type="line"/>
      <point x="351" y="1428" type="line"/>
      <point x="312" y="1073" type="line"/>
      <point x="348" y="1133" type="line"/>
      <point x="97" y="1133" type="line"/>
      <point x="97" y="977" type="line"/>
      <point x="339" y="977" type="line"/>
      <point x="303" y="1010" type="line"/>
      <point x="259" y="544" type="line"/>
      <point x="311" y="580" type="line"/>
      <point x="44" y="580" type="line"/>
    </contour>
    <contour>
      <point x="371" y="580" type="line"/>
      <point x="430" y="532" type="line"/>
      <point x="476" y="1020" type="line"/>
      <point x="424" y="977" type="line"/>
      <point x="809" y="977" type="line"/>
      <point x="783" y="1025" type="line"/>
      <point x="737" y="540" type="line"/>
      <point x="787" y="580" type="line"/>
    </contour>
  </outline>
</glyph>
<glyph name="dollar" format="1">
  <advance width="1088"/>
  <unicode hex="0024"/>
  <outline>
    <contour>
      <point x="125" y="249" type="line"/>
      <point x="240" y="156"/>
      <point x="412" y="120"/>
      <point x="565" y="120" type="curve" smooth="yes"/>
      <point x="830" y="120"/>
      <point x="1001" y="252"/>
      <point x="1007" y="463" type="curve" smooth="yes"/>
      <point x="1012" y="639"/>
      <point x="884" y="751"/>
      <point x="672" y="816" type="curve" smooth="yes"/>
      <point x="579" y="846"/>
      <point x="384" y="874"/>
      <point x="390" y="1010" type="curve" smooth="yes"/>
      <point x="396" y="1109"/>
      <point x="485" y="1157"/>
      <point x="594" y="1157" type="curve" smooth="yes"/>
      <point x="716" y="1157"/>
      <point x="835" y="1077"/>
      <point x="857" y="1049" type="curve"/>
      <point x="937" y="1206" type="line"/>
      <point x="895" y="1262"/>
      <point x="750" y="1340"/>
      <point x="554" y="1336" type="curve" smooth="yes"/>
      <point x="288" y="1331"/>
      <point x="138" y="1188"/>
      <point x="134" y="1004" type="curve" smooth="yes"/>
      <point x="128" y="764"/>
      <point x="307" y="678"/>
      <point x="493" y="622" type="curve" smooth="yes"/>
      <point x="613" y="590"/>
      <point x="740" y="549"/>
      <point x="740" y="451" type="curve" smooth="yes"/>
      <point x="739" y="331"/>
      <point x="636" y="290"/>
      <point x="537" y="290" type="curve" smooth="yes"/>
      <point x="387" y="290"/>
      <point x="249" y="369"/>
      <point x="198" y="415" type="curve"/>
    </contour>
    <contour>
      <point x="451" y="-30" type="line"/>
      <point x="694" y="-30" type="line"/>
      <point x="694" y="285" type="line"/>
      <point x="451" y="285" type="line"/>
    </contour>
    <contour>
      <point x="451" y="1201" type="line"/>
      <point x="694" y="1201" type="line"/>
      <point x="694" y="1523" type="line"/>
      <point x="451" y="1523" type="line"/>
    </contour>
  </outline>
</glyph>
<glyph name="percent" format="1">
  <advance width="1851"/>
  <unicode hex="0025"/>
  <outline>
    <contour>
      <point x="616" y="1" type="line"/>
      <point x="817" y="0" type="line"/>
      <point x="1231" y="1428" type="line"/>
      <point x="1031" y="1428" type="line"/>
    </contour>
    <contour>
      <point x="435" y="661" type="curve" smooth="yes"/>
      <point x="684" y="661"/>
      <point x="773" y="820"/>
      <point x="773" y="1046" type="curve" smooth="yes"/>
      <point x="773" y="1322"/>
      <point x="644" y="1440"/>
      <point x="434" y="1440" type="curve" smooth="yes"/>
      <point x="224" y="1440"/>
      <point x="90" y="1322"/>
      <point x="90" y="1049" type="curve" smooth="yes"/>
      <point x="90" y="815"/>
      <point x="199" y="661"/>
    </contour>
    <contour>
      <point x="432" y="816" type="curve" smooth="yes"/>
      <point x="328" y="816"/>
      <point x="310" y="919"/>
      <point x="310" y="1048" type="curve" smooth="yes"/>
      <point x="310" y="1204"/>
      <point x="338" y="1284"/>
      <point x="429" y="1284" type="curve" smooth="yes"/>
      <point x="522" y="1284"/>
      <point x="546" y="1204"/>
      <point x="546" y="1042" type="curve" smooth="yes"/>
      <point x="546" y="922"/>
      <point x="535" y="816"/>
    </contour>
    <contour>
      <point x="1079" y="359" type="curve" smooth="yes"/>
      <point x="1079" y="125"/>
      <point x="1186" y="-30"/>
      <point x="1424" y="-30" type="curve" smooth="yes"/>
      <point x="1672" y="-30"/>
      <point x="1761" y="130"/>
      <point x="1761" y="355" type="curve" smooth="yes"/>
      <point x="1761" y="631"/>
      <point x="1631" y="749"/>
      <point x="1422" y="749" type="curve" smooth="yes"/>
      <point x="1211" y="749"/>
      <point x="1079" y="631"/>
    </contour>
    <contour>
      <point x="1299" y="356" type="curve" smooth="yes"/>
      <point x="1299" y="514"/>
      <point x="1324" y="594"/>
      <point x="1418" y="594" type="curve" smooth="yes"/>
      <point x="1510" y="594"/>
      <point x="1534" y="514"/>
      <point x="1534" y="352" type="curve" smooth="yes"/>
      <point x="1534" y="230"/>
      <point x="1523" y="126"/>
      <point x="1418" y="126" type="curve" smooth="yes"/>
      <point x="1314" y="126"/>
      <point x="1299" y="229"/>
    </contour>
  </outline>
</glyph>
<glyph name="ampersand" format="1">
  <advance width="1277"/>
  <unicode hex="0026"/>
  <outline>
    <contour>
      <point x="91" y="345" type="curve" smooth="yes"/>
      <point x="91" y="143"/>
      <point x="225" y="-26"/>
      <point x="538" y="-26" type="curve" smooth="yes"/>
      <point x="704" y="-26"/>
      <point x="830" y="31"/>
      <point x="936" y="119" type="curve" smooth="yes"/>
      <point x="974" y="150"/>
      <point x="1030" y="186"/>
      <point x="1061" y="223" type="curve" smooth="yes"/>
      <point x="1078" y="244"/>
      <point x="1095" y="266"/>
      <point x="1110" y="288" type="curve" smooth="yes"/>
      <point x="1186" y="398"/>
      <point x="1260" y="555"/>
      <point x="1277" y="643" type="curve"/>
      <point x="1031" y="790" type="line"/>
      <point x="1031" y="681"/>
      <point x="986" y="495"/>
      <point x="926" y="422" type="curve" smooth="yes"/>
      <point x="913" y="406"/>
      <point x="900" y="391"/>
      <point x="888" y="377" type="curve" smooth="yes"/>
      <point x="856" y="339"/>
      <point x="827" y="326"/>
      <point x="797" y="297" type="curve" smooth="yes"/>
      <point x="719" y="222"/>
      <point x="652" y="180"/>
      <point x="548" y="180" type="curve" smooth="yes"/>
      <point x="396" y="180"/>
      <point x="358" y="304"/>
      <point x="358" y="368" type="curve" smooth="yes"/>
      <point x="358" y="466"/>
      <point x="401" y="532"/>
      <point x="528" y="619" type="curve" smooth="yes"/>
      <point x="559" y="640"/>
      <point x="628" y="652"/>
      <point x="664" y="675" type="curve" smooth="yes"/>
      <point x="847" y="790"/>
      <point x="964" y="966"/>
      <point x="964" y="1124" type="curve" smooth="yes"/>
      <point x="964" y="1355"/>
      <point x="779" y="1464"/>
      <point x="575" y="1464" type="curve" smooth="yes"/>
      <point x="378" y="1464"/>
      <point x="178" y="1328"/>
      <point x="178" y="1081" type="curve" smooth="yes"/>
      <point x="178" y="861"/>
      <point x="349" y="722"/>
      <point x="463" y="596" type="curve" smooth="yes"/>
      <point x="700" y="320"/>
      <point x="919" y="72"/>
      <point x="1024" y="-44" type="curve"/>
      <point x="1217" y="112" type="line"/>
      <point x="1060" y="285"/>
      <point x="829" y="539"/>
      <point x="673" y="721" type="curve" smooth="yes"/>
      <point x="619" y="780"/>
      <point x="424" y="949"/>
      <point x="424" y="1104" type="curve" smooth="yes"/>
      <point x="424" y="1200"/>
      <point x="466" y="1286"/>
      <point x="568" y="1286" type="curve" smooth="yes"/>
      <point x="670" y="1286"/>
      <point x="713" y="1210"/>
      <point x="713" y="1114" type="curve" smooth="yes"/>
      <point x="713" y="985"/>
      <point x="642" y="864"/>
      <point x="511" y="777" type="curve" smooth="yes"/>
      <point x="491" y="764"/>
      <point x="453" y="761"/>
      <point x="435" y="750" type="curve" smooth="yes"/>
      <point x="242" y="637"/>
      <point x="91" y="559"/>
    </contour>
  </outline>
</glyph>
<glyph name="quotesingle" format="1">
  <advance width="600"/>
  <unicode hex="0027"/>
  <outline>
    <contour>
      <point x="193" y="797" type="line"/>
      <point x="411" y="797" type="line"/>
      <point x="433" y="1428" type="line"/>
      <point x="167" y="1428" type="line"/>
    </contour>
  </outline>
</glyph>
<glyph name="parenleft" format="1">
  <advance width="791"/>
  <unicode hex="0028"/>
  <outline>
    <contour>
      <point x="129" y="678" type="curve" smooth="yes"/>
      <point x="129" y="76"/>
      <point x="483" y="-252"/>
      <point x="660" y="-302" type="curve"/>
      <point x="749" y="-211" type="line"/>
      <point x="668" y="-154"/>
      <point x="387" y="55"/>
      <point x="387" y="678" type="curve" smooth="yes"/>
      <point x="387" y="1301"/>
      <point x="658" y="1531"/>
      <point x="749" y="1568" type="curve"/>
      <point x="660" y="1659" type="line"/>
      <point x="483" y="1629"/>
      <point x="129" y="1279"/>
    </contour>
  </outline>
</glyph>
<glyph name="asterisk" format="1">
  <advance width="1014"/>
  <unicode hex="002A"/>
  <outline>
    <contour>
      <point x="329" y="754" type="line"/>
      <point x="530" y="1071" type="line"/>
      <point x="484" y="1069" type="line"/>
      <point x="684" y="753" type="line"/>
      <point x="851" y="872" type="line"/>
      <point x="615" y="1154" type="line"/>
      <point x="615" y="1114" type="line"/>
      <point x="942" y="1208" type="line"/>
      <point x="877" y="1397" type="line"/>
      <point x="563" y="1267" type="line"/>
      <point x="589" y="1237" type="line"/>
      <point x="608" y="1589" type="line"/>
      <point x="402" y="1589" type="line"/>
      <point x="424" y="1237" type="line"/>
      <point x="446" y="1269" type="line"/>
      <point x="134" y="1401" type="line"/>
      <point x="73" y="1212" type="line"/>
      <point x="397" y="1116" type="line"/>
      <point x="396" y="1155" type="line"/>
      <point x="160" y="874" type="line"/>
    </contour>
  </outline>
</glyph>
<glyph name="plus" format="1">
  <advance width="1172"/>
  <unicode hex="002B"/>
  <outline>
    <contour>
      <point x="469" y="91" type="line"/>
      <point x="690" y="91" type="line"/>
      <point x="690" y="560" type="line"/>
      <point x="654" y="503" type="line"/>
      <point x="1087" y="503" type="line"/>
      <point x="1087" y="704" type="line"/>
      <point x="656" y="704" type="line"/>
      <point x="690" y="656" type="line"/>
      <point x="690" y="1115" type="line"/>
      <point x="469" y="1115" type="line"/>
      <point x="469" y="658" type="line"/>
      <point x="502" y="704" type="line"/>
      <point x="85" y="704" type="line"/>
      <point x="85" y="503" type="line"/>
      <point x="505" y="503" type="line"/>
      <point x="469" y="559" type="line"/>
    </contour>
  </outline>
</glyph>
<glyph name="comma" format="1">
  <advance width="439"/>
  <unicode hex="002C"/>
  <outline>
    <contour>
      <point x="103" y="220" type="line"/>
      <point x="102" y="0" type="line"/>
      <point x="102" y="-103"/>
      <point x="70" y="-233"/>
      <point x="48" y="-289" type="curve"/>
      <point x="232" y="-289" type="line"/>
      <point x="279" y="-258"/>
      <point x="360" y="-98"/>
      <point x="360" y="78" type="curve"/>
      <point x="360" y="220" type="line"/>
    </contour>
  </outline>
</glyph>
<glyph name="period" format="1">
  <advance width="439"/>
  <unicode hex="002E"/>
  <outline>
    <contour>
      <point x="83" y="0" type="line"/>
      <point x="356" y="0" type="line"/>
      <point x="356" y="265" type="line"/>
      <point x="83" y="265" type="line"/>
    </contour>
  </outline>
</glyph>
<glyph name="slash" format="1">
  <advance width="714"/>
  <unicode hex="002F"/>
  <outline>
    <contour>
      <point x="69" y="2" type="line"/>
      <point x="270" y="0" type="line"/>
      <point x="622" y="1428" type="line"/>
      <point x="422" y="1428" type="line"/>
    </contour>
  </outline>
</glyph>
<glyph name="one" format="1">
  <advance width="641"/>
  <unicode hex="0031"/>
  <outline>
    <contour>
      <point x="182" y="0" type="line"/>
      <point x="458" y="0" type="line"/>
      <point x="458" y="1464" type="line"/>
      <point x="182" y="1320" type="line"/>
    </contour>
  </outline>
</glyph>
<glyph name="seven" format="1">
  <advance width="1080"/>
  <unicode hex="0037"/>
  <outline>
    <contour>
      <point x="247" y="1" type="line"/>
      <point x="544" y="1" type="line"/>
      <point x="646" y="324"/>
      <point x="937" y="1154"/>
      <point x="993" y="1328" type="curve"/>
      <point x="931" y="1428" type="line"/>
      <point x="72" y="1428" type="line"/>
      <point x="72" y="1206" type="line"/>
      <point x="699" y="1206" type="line"/>
    </contour>
  </outline>
</glyph>
<glyph name="less" format="1">
  <advance width="1089"/>
  <unicode hex="003C"/>
  <outline>
    <contour>
      <point x="332" y="573" type="line"/>
      <point x="925" y="935" type="line"/>
      <point x="925" y="1164" type="line"/>
      <point x="164" y="698" type="line"/>
      <point x="164" y="512" type="line"/>
      <point x="925" y="46" type="line"/>
      <point x="925" y="275" type="line"/>
      <point x="332" y="637" type="line"/>
    </contour>
  </outline>
</glyph>
<glyph name="equal" format="1">
  <advance width="1172"/>
  <unicode hex="003D"/>
  <outline>
    <contour>
      <point x="121" y="234" type="line"/>
      <point x="989" y="234" type="line"/>
      <point x="989" y="434" type="line"/>
      <point x="121" y="434" type="line"/>
    </contour>
    <contour>
      <point x="121" y="774" type="line"/>
      <point x="989" y="774" type="line"/>
      <point x="989" y="974" type="line"/>
      <point x="121" y="974" type="line"/>
    </contour>
  </outline>
</glyph>
<glyph name="question" format="1">
  <advance width="1054"/>
  <unicode hex="003F"/>
  <outline>
    <contour>
      <point x="366" y="461" type="curve"/>
      <point x="587" y="461" type="line"/>
      <point x="570" y="660"/>
      <point x="599" y="728"/>
      <point x="735" y="806" type="curve" smooth="yes"/>
      <point x="866" y="881"/>
      <point x="1003" y="995"/>
      <point x="1003" y="1211" type="curve" smooth="yes"/>
      <point x="1003" y="1441"/>
      <point x="837" y="1591"/>
      <point x="510" y="1591" type="curve" smooth="yes"/>
      <point x="231" y="1591"/>
      <point x="58" y="1454"/>
      <point x="0" y="1392" type="curve"/>
      <point x="186" y="1183" type="line"/>
      <point x="235" y="1268"/>
      <point x="337" y="1384"/>
      <point x="492" y="1384" type="curve" smooth="yes"/>
      <point x="668" y="1384"/>
      <point x="707" y="1312"/>
      <point x="707" y="1185" type="curve" smooth="yes"/>
      <point x="707" y="1040"/>
      <point x="612" y="955"/>
      <point x="534" y="921" type="curve" smooth="yes"/>
      <point x="412" y="850"/>
      <point x="332" y="803"/>
      <point x="343" y="621" type="curve" smooth="yes"/>
      <point x="345" y="596"/>
      <point x="359" y="492"/>
    </contour>
    <contour>
      <point x="346" y="0" type="line"/>
      <point x="619" y="0" type="line"/>
      <point x="619" y="265" type="line"/>
      <point x="346" y="265" type="line"/>
    </contour>
  </outline>
</glyph>
<glyph name="at" format="1">
  <advance width="1849"/>
  <unicode hex="0040"/>
  <outline>
    <contour>
      <point x="1299" y="151" type="curve" smooth="yes"/>
      <point x="1266" y="151"/>
      <point x="1236" y="165"/>
      <point x="1229" y="231" type="curve" smooth="yes"/>
      <point x="1225" y="287"/>
      <point x="1247" y="403"/>
      <point x="1272" y="527" type="curve" smooth="yes"/>
      <point x="1380" y="1005" type="line"/>
      <point x="1170" y="1005" type="line"/>
      <point x="1164" y="969"/>
      <point x="1158" y="955"/>
      <point x="1145" y="951" type="curve" smooth="yes"/>
      <point x="1111" y="960"/>
      <point x="1025" y="1031"/>
      <point x="911" y="1031" type="curve" smooth="yes"/>
      <point x="643" y="1031"/>
      <point x="468" y="752"/>
      <point x="443" y="466" type="curve" smooth="yes"/>
      <point x="416" y="228"/>
      <point x="511" y="-10"/>
      <point x="707" y="-10" type="curve" smooth="yes"/>
      <point x="883" y="-10"/>
      <point x="1057" y="210"/>
      <point x="1075" y="284" type="curve" smooth="yes"/>
      <point x="1019" y="286" type="line"/>
      <point x="1015" y="237"/>
      <point x="1013" y="177"/>
      <point x="1030" y="124" type="curve" smooth="yes"/>
      <point x="1054" y="56"/>
      <point x="1105" y="-10"/>
      <point x="1236" y="-10" type="curve" smooth="yes"/>
      <point x="1502" y="-10"/>
      <point x="1730" y="216"/>
      <point x="1739" y="694" type="curve" smooth="yes"/>
      <point x="1749" y="1215"/>
      <point x="1439" y="1461"/>
      <point x="991" y="1461" type="curve" smooth="yes"/>
      <point x="431" y="1461"/>
      <point x="44" y="1044"/>
      <point x="44" y="405" type="curve" smooth="yes"/>
      <point x="44" y="-216"/>
      <point x="439" y="-407"/>
      <point x="901" y="-407" type="curve" smooth="yes"/>
      <point x="1053" y="-407"/>
      <point x="1290" y="-366"/>
      <point x="1415" y="-290" type="curve"/>
      <point x="1347" y="-138" type="line"/>
      <point x="1270" y="-201"/>
      <point x="1046" y="-251"/>
      <point x="905" y="-251" type="curve" smooth="yes"/>
      <point x="471" y="-251"/>
      <point x="221" y="-36"/>
      <point x="221" y="416" type="curve" smooth="yes"/>
      <point x="221" y="908"/>
      <point x="496" y="1301"/>
      <point x="989" y="1301" type="curve" smooth="yes"/>
      <point x="1382" y="1301"/>
      <point x="1570" y="1071"/>
      <point x="1560" y="677" type="curve" smooth="yes"/>
      <point x="1553" y="383"/>
      <point x="1464" y="151"/>
    </contour>
    <contour>
      <point x="682" y="464" type="curve" smooth="yes"/>
      <point x="690" y="655"/>
      <point x="786" y="855"/>
      <point x="935" y="855" type="curve" smooth="yes"/>
      <point x="981" y="855"/>
      <point x="1052" y="825"/>
      <point x="1089" y="803" type="curve" smooth="yes"/>
      <point x="1093" y="752"/>
      <point x="1050" y="551"/>
      <point x="1031" y="457" type="curve" smooth="yes"/>
      <point x="998" y="342"/>
      <point x="892" y="187"/>
      <point x="803" y="187" type="curve" smooth="yes"/>
      <point x="702" y="187"/>
      <point x="673" y="313"/>
    </contour>
  </outline>
</glyph>
<glyph name="A" format="1">
  <advance width="1201"/>
  <unicode hex="0041"/>
  <outline>
    <contour>
      <point x="-15" y="0" type="line"/>
      <point x="283" y="0" type="line"/>
      <point x="565" y="782" type="line"/>
      <point x="633" y="1061" type="line"/>
      <point x="561" y="1061" type="line"/>
      <point x="633" y="782" type="line"/>
      <point x="927" y="0" type="line"/>
      <point x="1216" y="0" type="line"/>
      <point x="600" y="1482" type="line"/>
    </contour>
    <contour>
      <point x="289" y="206" type="line"/>
      <point x="919" y="206" type="line"/>
      <point x="910" y="406" type="line"/>
      <point x="297" y="406" type="line"/>
    </contour>
    <contour>
      <point x="601" y="1700" type="move" name="top"/>
    </contour>
  </outline>
</glyph>
<glyph name="B" format="1">
  <advance width="1154"/>
  <unicode hex="0042"/>
  <outline>
    <contour>
      <point x="165" y="0" type="line"/>
      <point x="566" y="0" type="line"/>
      <point x="923" y="0"/>
      <point x="1100" y="117"/>
      <point x="1100" y="412" type="curve" smooth="yes"/>
      <point x="1100" y="633"/>
      <point x="971" y="768"/>
      <point x="741" y="768" type="curve"/>
      <point x="717" y="725" type="line"/>
      <point x="942" y="725"/>
      <point x="1028" y="904"/>
      <point x="1028" y="1037" type="curve" smooth="yes"/>
      <point x="1028" y="1288"/>
      <point x="855" y="1427"/>
      <point x="546" y="1427" type="curve"/>
      <point x="165" y="1427" type="line"/>
    </contour>
    <contour>
      <point x="428" y="793" type="line"/>
      <point x="428" y="1258" type="line"/>
      <point x="393" y="1225" type="line"/>
      <point x="546" y="1225" type="line" smooth="yes"/>
      <point x="657" y="1225"/>
      <point x="781" y="1186"/>
      <point x="781" y="1027" type="curve" smooth="yes"/>
      <point x="781" y="937"/>
      <point x="736" y="830"/>
      <point x="596" y="830" type="curve"/>
      <point x="390" y="830" type="line"/>
    </contour>
    <contour>
      <point x="393" y="206" type="line"/>
      <point x="428" y="170" type="line"/>
      <point x="428" y="663" type="line"/>
      <point x="390" y="638" type="line"/>
      <point x="576" y="638" type="line" smooth="yes"/>
      <point x="703" y="638"/>
      <point x="836" y="612"/>
      <point x="836" y="427" type="curve" smooth="yes"/>
      <point x="836" y="242"/>
      <point x="726" y="206"/>
      <point x="602" y="206" type="curve"/>
    </contour>
    <contour>
      <point x="625" y="1700" type="move" name="top"/>
    </contour>
  </outline>
</glyph>
<glyph name="C" format="1">
  <advance width="1102"/>
  <unicode hex="0043"/>
  <outline>
    <contour>
      <point x="660" y="1455" type="curve" smooth="yes"/>
      <point x="341" y="1455"/>
      <point x="75" y="1213"/>
      <point x="75" y="747" type="curve" smooth="yes"/>
      <point x="75" y="226"/>
      <point x="354" y="-24"/>
      <point x="651" y="-24" type="curve" smooth="yes"/>
      <point x="882" y="-24"/>
      <point x="987" y="54"/>
      <point x="1042" y="100" type="curve"/>
      <point x="927" y="309" type="line"/>
      <point x="896" y="272"/>
      <point x="809" y="195"/>
      <point x="667" y="195" type="curve" smooth="yes"/>
      <point x="499" y="195"/>
      <point x="361" y="392"/>
      <point x="361" y="747" type="curve" smooth="yes"/>
      <point x="361" y="1019"/>
      <point x="457" y="1239"/>
      <point x="666" y="1239" type="curve" smooth="yes"/>
      <point x="798" y="1239"/>
      <point x="890" y="1149"/>
      <point x="921" y="1109" type="curve"/>
      <point x="1036" y="1318" type="line"/>
      <point x="981" y="1368"/>
      <point x="881" y="1455"/>
    </contour>
    <contour>
      <point x="695" y="1700" type="move" name="top"/>
    </contour>
    <contour>
      <point x="598" y="-170" type="move" name="btm"/>
    </contour>
  </outline>
</glyph>
<glyph name="D" format="1">
  <advance width="1230"/>
  <unicode hex="0044"/>
  <outline>
    <contour>
      <point x="165" y="0" type="line"/>
      <point x="533" y="0" type="line"/>
      <point x="952" y="0"/>
      <point x="1190" y="285"/>
      <point x="1190" y="732" type="curve" smooth="yes"/>
      <point x="1190" y="1197"/>
      <point x="948" y="1428"/>
      <point x="535" y="1428" type="curve"/>
      <point x="165" y="1428" type="line"/>
    </contour>
    <contour>
      <point x="395" y="225" type="line"/>
      <point x="430" y="180" type="line"/>
      <point x="430" y="1266" type="line"/>
      <point x="392" y="1222" type="line"/>
      <point x="526" y="1222" type="line"/>
      <point x="822" y="1222"/>
      <point x="915" y="983"/>
      <point x="915" y="726" type="curve" smooth="yes"/>
      <point x="915" y="475"/>
      <point x="825" y="225"/>
      <point x="526" y="225" type="curve"/>
    </contour>
    <contour>
      <point x="662" y="1700" type="move" name="top"/>
    </contour>
  </outline>
</glyph>
<glyph name="E" format="1">
  <advance width="1037"/>
  <unicode hex="0045"/>
  <outline>
    <contour>
      <point x="165" y="0" type="line"/>
      <point x="953" y="0" type="line"/>
      <point x="953" y="225" type="line"/>
      <point x="397" y="225" type="line"/>
      <point x="431" y="187" type="line"/>
      <point x="431" y="688" type="line"/>
      <point x="393" y="653" type="line"/>
      <point x="812" y="653" type="line"/>
      <point x="812" y="870" type="line"/>
      <point x="393" y="870" type="line"/>
      <point x="431" y="836" type="line"/>
      <point x="431" y="1250" type="line"/>
      <point x="397" y="1221" type="line"/>
      <point x="912" y="1221" type="line"/>
      <point x="912" y="1428" type="line"/>
      <point x="165" y="1428" type="line"/>
    </contour>
    <contour>
      <point x="556" y="1700" type="move" name="top"/>
    </contour>
  </outline>
</glyph>
<glyph name="F" format="1">
  <advance width="965"/>
  <unicode hex="0046"/>
  <outline>
    <contour>
      <point x="165" y="0" type="line"/>
      <point x="428" y="0" type="line"/>
      <point x="428" y="643" type="line"/>
      <point x="390" y="613" type="line"/>
      <point x="849" y="613" type="line"/>
      <point x="849" y="830" type="line"/>
      <point x="390" y="830" type="line"/>
      <point x="428" y="794" type="line"/>
      <point x="428" y="1258" type="line"/>
      <point x="394" y="1221" type="line"/>
      <point x="911" y="1221" type="line"/>
      <point x="911" y="1428" type="line"/>
      <point x="165" y="1428" type="line"/>
    </contour>
    <contour>
      <point x="535" y="1700" type="move" name="top"/>
    </contour>
  </outline>
</glyph>
<glyph name="G" format="1">
  <advance width="1265"/>
  <unicode hex="0047"/>
  <outline>
    <contour>
      <point x="709" y="1463" type="curve" smooth="yes"/>
      <point x="355" y="1463"/>
      <point x="75" y="1198"/>
      <point x="75" y="738" type="curve" smooth="yes"/>
      <point x="75" y="248"/>
      <point x="291" y="-36"/>
      <point x="691" y="-36" type="curve" smooth="yes"/>
      <point x="1048" y="-36"/>
      <point x="1193" y="178"/>
      <point x="1193" y="563" type="curve"/>
      <point x="1193" y="786" type="line"/>
      <point x="673" y="786" type="line"/>
      <point x="673" y="571" type="line"/>
      <point x="1048" y="571" type="line"/>
      <point x="938" y="629" type="line"/>
      <point x="939" y="611"/>
      <point x="940" y="472"/>
      <point x="940" y="455" type="curve" smooth="yes"/>
      <point x="940" y="315"/>
      <point x="866" y="183"/>
      <point x="698" y="183" type="curve" smooth="yes"/>
      <point x="468" y="183"/>
      <point x="354" y="388"/>
      <point x="354" y="738" type="curve" smooth="yes"/>
      <point x="354" y="1005"/>
      <point x="474" y="1247"/>
      <point x="706" y="1247" type="curve" smooth="yes"/>
      <point x="838" y="1247"/>
      <point x="930" y="1157"/>
      <point x="961" y="1117" type="curve"/>
      <point x="1076" y="1326" type="line"/>
      <point x="1021" y="1376"/>
      <point x="930" y="1463"/>
    </contour>
    <contour>
      <point x="650" y="1700" type="move" name="top"/>
    </contour>
  </outline>
</glyph>
<glyph name="H" format="1">
  <advance width="1332"/>
  <unicode hex="0048"/>
  <outline>
    <contour>
      <point x="165" y="0" type="line"/>
      <point x="431" y="0" type="line"/>
      <point x="431" y="648" type="line"/>
      <point x="396" y="619" type="line"/>
      <point x="933" y="619" type="line"/>
      <point x="901" y="648" type="line"/>
      <point x="901" y="0" type="line"/>
      <point x="1167" y="0" type="line"/>
      <point x="1167" y="1428" type="line"/>
      <point x="901" y="1428" type="line"/>
      <point x="901" y="802" type="line"/>
      <point x="931" y="838" type="line"/>
      <point x="396" y="838" type="line"/>
      <point x="431" y="803" type="line"/>
      <point x="431" y="1428" type="line"/>
      <point x="165" y="1428" type="line"/>
    </contour>
    <contour>
      <point x="666" y="1700" type="move" name="top"/>
    </contour>
  </outline>
</glyph>
<glyph name="I" format="1">
  <advance width="586"/>
  <unicode hex="0049"/>
  <outline>
    <contour>
      <point x="160" y="0" type="line"/>
      <point x="426" y="0" type="line"/>
      <point x="426" y="1428" type="line"/>
      <point x="160" y="1428" type="line"/>
    </contour>
    <contour>
      <point x="294" y="1700" type="move" name="top"/>
    </contour>
  </outline>
</glyph>
<glyph name="J" format="1">
  <advance width="820"/>
  <unicode hex="004A"/>
  <outline>
    <contour>
      <point x="-15" y="34" type="line"/>
      <point x="35" y="0"/>
      <point x="171" y="-30"/>
      <point x="244" y="-30" type="curve" smooth="yes"/>
      <point x="567" y="-30"/>
      <point x="670" y="174"/>
      <point x="670" y="428" type="curve" smooth="yes"/>
      <point x="670" y="1428" type="line"/>
      <point x="404" y="1428" type="line"/>
      <point x="404" y="404" type="line" smooth="yes"/>
      <point x="404" y="209"/>
      <point x="312" y="196"/>
      <point x="231" y="196" type="curve" smooth="yes"/>
      <point x="179" y="196"/>
      <point x="119" y="227"/>
      <point x="83" y="278" type="curve"/>
    </contour>
    <contour>
      <point x="536" y="1700" type="move" name="top"/>
    </contour>
  </outline>
</glyph>
<glyph name="K" format="1">
  <advance width="1214"/>
  <unicode hex="004B"/>
  <outline>
    <contour>
      <point x="412" y="700" type="line"/>
      <point x="887" y="0" type="line"/>
      <point x="1215" y="0" type="line"/>
      <point x="660" y="768" type="line"/>
      <point x="665" y="676" type="line"/>
      <point x="1181" y="1428" type="line"/>
      <point x="880" y="1428" type="line"/>
    </contour>
    <contour>
      <point x="165" y="0" type="line"/>
      <point x="431" y="0" type="line"/>
      <point x="431" y="1428" type="line"/>
      <point x="165" y="1428" type="line"/>
    </contour>
    <contour>
      <point x="687" y="1700" type="move" name="top"/>
    </contour>
    <contour>
      <point x="687" y="-170" type="move" name="btm"/>
    </contour>
  </outline>
</glyph>
<glyph name="L" format="1">
  <advance width="906"/>
  <unicode hex="004C"/>
  <outline>
    <contour>
      <point x="165" y="0" type="line"/>
      <point x="851" y="0" type="line"/>
      <point x="851" y="225" type="line"/>
      <point x="399" y="225" type="line"/>
      <point x="431" y="178" type="line"/>
      <point x="431" y="1427" type="line"/>
      <point x="165" y="1427" type="line"/>
    </contour>
    <contour>
      <point x="308" y="1700" type="move" name="top"/>
    </contour>
  </outline>
</glyph>
<glyph name="M" format="1">
  <advance width="1524"/>
  <unicode hex="004D"/>
  <outline>
    <contour>
      <point x="165" y="0" type="line"/>
      <point x="423" y="0" type="line"/>
      <point x="423" y="612" type="line"/>
      <point x="406" y="1023" type="line"/>
      <point x="370" y="903" type="line"/>
      <point x="481" y="744" type="line"/>
      <point x="762" y="413" type="line"/>
      <point x="1042" y="743" type="line"/>
      <point x="1153" y="902" type="line"/>
      <point x="1118" y="1023" type="line"/>
      <point x="1101" y="612" type="line"/>
      <point x="1101" y="0" type="line"/>
      <point x="1359" y="0" type="line"/>
      <point x="1359" y="1468" type="line"/>
      <point x="734" y="736" type="line"/>
      <point x="795" y="736" type="line"/>
      <point x="165" y="1468" type="line"/>
    </contour>
    <contour>
      <point x="762" y="1700" type="move" name="top"/>
    </contour>
  </outline>
</glyph>
<glyph name="N" format="1">
  <advance width="1340"/>
  <unicode hex="004E"/>
  <outline>
    <contour>
      <point x="165" y="0" type="line"/>
      <point x="423" y="0" type="line"/>
      <point x="423" y="658" type="line"/>
      <point x="403" y="1033" type="line"/>
      <point x="263" y="995" type="line"/>
      <point x="471" y="748" type="line"/>
      <point x="1175" y="-40" type="line"/>
      <point x="1175" y="1428" type="line"/>
      <point x="917" y="1428" type="line"/>
      <point x="917" y="729" type="line"/>
      <point x="937" y="388" type="line"/>
      <point x="1066" y="420" type="line"/>
      <point x="863" y="666" type="line"/>
      <point x="165" y="1464" type="line"/>
    </contour>
    <contour>
      <point x="670" y="1700" type="move" name="top"/>
    </contour>
    <contour>
      <point x="670" y="-170" type="move" name="btm"/>
    </contour>
  </outline>
</glyph>
<glyph name="O" format="1">
  <advance width="1348"/>
  <unicode hex="004F"/>
  <outline>
    <contour>
      <point x="80" y="712" type="curve" smooth="yes"/>
      <point x="80" y="264"/>
      <point x="288" y="-26"/>
      <point x="676" y="-26" type="curve" smooth="yes"/>
      <point x="1056" y="-26"/>
      <point x="1268" y="264"/>
      <point x="1268" y="713" type="curve" smooth="yes"/>
      <point x="1268" y="1150"/>
      <point x="1070" y="1453"/>
      <point x="669" y="1453" type="curve" smooth="yes"/>
      <point x="287" y="1453"/>
      <point x="80" y="1158"/>
    </contour>
    <contour>
      <point x="354" y="716" type="curve" smooth="yes"/>
      <point x="354" y="1060"/>
      <point x="472" y="1243"/>
      <point x="669" y="1243" type="curve" smooth="yes"/>
      <point x="872" y="1243"/>
      <point x="995" y="1061"/>
      <point x="995" y="718" type="curve" smooth="yes"/>
      <point x="995" y="362"/>
      <point x="855" y="188"/>
      <point x="675" y="188" type="curve" smooth="yes"/>
      <point x="484" y="188"/>
      <point x="354" y="360"/>
    </contour>
    <contour>
      <point x="674" y="1700" type="move" name="top"/>
    </contour>
  </outline>
</glyph>
<glyph name="P" format="1">
  <advance width="1111"/>
  <unicode hex="0050"/>
  <outline>
    <contour>
      <point x="165" y="0" type="line"/>
      <point x="431" y="0" type="line"/>
      <point x="431" y="462" type="line"/>
      <point x="400" y="358" type="line"/>
      <point x="557" y="358" type="line"/>
      <point x="920" y="358"/>
      <point x="1073" y="635"/>
      <point x="1073" y="916" type="curve" smooth="yes"/>
      <point x="1073" y="1303"/>
      <point x="839" y="1428"/>
      <point x="549" y="1428" type="curve" smooth="yes"/>
      <point x="165" y="1428" type="line"/>
    </contour>
    <contour>
      <point x="394" y="567" type="line"/>
      <point x="431" y="543" type="line"/>
      <point x="431" y="1257" type="line"/>
      <point x="399" y="1221" type="line"/>
      <point x="543" y="1221" type="line" smooth="yes"/>
      <point x="748" y="1221"/>
      <point x="808" y="1109"/>
      <point x="808" y="902" type="curve" smooth="yes"/>
      <point x="808" y="697"/>
      <point x="730" y="567"/>
      <point x="549" y="567" type="curve" smooth="yes"/>
    </contour>
    <contour>
      <point x="612" y="1700" type="move" name="top"/>
    </contour>
  </outline>
</glyph>
<glyph name="Q" format="1">
  <advance width="1348"/>
  <unicode hex="0051"/>
  <outline>
    <contour>
      <point x="682" y="-12" type="line"/>
      <point x="1324" y="-148" type="line"/>
      <point x="1326" y="102" type="line"/>
      <point x="682" y="150" type="line"/>
    </contour>
    <contour>
      <point x="710" y="1700" type="move" name="top"/>
    </contour>
    <component base="O"/>
  </outline>
</glyph>
<glyph name="R" format="1">
  <advance width="1176"/>
  <unicode hex="0052"/>
  <outline>
    <contour>
      <point x="534" y="614" type="line"/>
      <point x="715" y="614"/>
      <point x="809" y="738"/>
      <point x="809" y="918" type="curve"/>
      <point x="809" y="1102"/>
      <point x="734" y="1222"/>
      <point x="528" y="1222" type="curve" smooth="yes"/>
      <point x="390" y="1222" type="line"/>
      <point x="427" y="1255" type="line"/>
      <point x="427" y="591" type="line"/>
      <point x="385" y="614" type="line"/>
    </contour>
    <contour>
      <point x="427" y="510" type="line"/>
      <point x="427" y="0" type="line"/>
      <point x="165" y="0" type="line"/>
      <point x="165" y="1428" type="line"/>
      <point x="549" y="1428" type="line" smooth="yes"/>
      <point x="839" y="1428"/>
      <point x="1072" y="1272"/>
      <point x="1072" y="930" type="curve" smooth="yes"/>
      <point x="1072" y="683"/>
      <point x="946" y="418"/>
      <point x="557" y="441" type="curve"/>
      <point x="709" y="500" type="line"/>
      <point x="1109" y="0" type="line"/>
      <point x="792" y="0" type="line"/>
      <point x="416" y="492" type="line"/>
    </contour>
    <contour>
      <point x="629" y="1700" type="move" name="top"/>
    </contour>
  </outline>
</glyph>
<glyph name="S" format="1">
  <advance width="1041"/>
  <unicode hex="0053"/>
  <outline>
    <contour>
      <point x="92" y="133" type="line"/>
      <point x="161" y="59"/>
      <point x="322" y="-23"/>
      <point x="514" y="-23" type="curve" smooth="yes"/>
      <point x="787" y="-23"/>
      <point x="953" y="113"/>
      <point x="961" y="374" type="curve" smooth="yes"/>
      <point x="968" y="617"/>
      <point x="796" y="717"/>
      <point x="601" y="836" type="curve" smooth="yes"/>
      <point x="486" y="909"/>
      <point x="391" y="963"/>
      <point x="392" y="1084" type="curve" smooth="yes"/>
      <point x="392" y="1160"/>
      <point x="451" y="1235"/>
      <point x="551" y="1235" type="curve" smooth="yes"/>
      <point x="683" y="1235"/>
      <point x="765" y="1151"/>
      <point x="796" y="1111" type="curve"/>
      <point x="911" y="1319" type="line"/>
      <point x="856" y="1369"/>
      <point x="755" y="1453"/>
      <point x="534" y="1453" type="curve" smooth="yes"/>
      <point x="272" y="1453"/>
      <point x="130" y="1278"/>
      <point x="124" y="1080" type="curve" smooth="yes"/>
      <point x="116" y="817"/>
      <point x="287" y="720"/>
      <point x="471" y="612" type="curve" smooth="yes"/>
      <point x="608" y="529"/>
      <point x="692" y="477"/>
      <point x="692" y="368" type="curve" smooth="yes"/>
      <point x="692" y="256"/>
      <point x="604" y="198"/>
      <point x="507" y="198" type="curve" smooth="yes"/>
      <point x="369" y="198"/>
      <point x="244" y="288"/>
      <point x="196" y="349" type="curve"/>
    </contour>
    <contour>
      <point x="531" y="1700" type="move" name="top"/>
    </contour>
    <contour>
      <point x="531" y="-170" type="move" name="btm"/>
    </contour>
  </outline>
</glyph>
<glyph name="T" format="1">
  <advance width="997"/>
  <unicode hex="0054"/>
  <outline>
    <contour>
      <point x="368" y="1" type="line"/>
      <point x="634" y="1" type="line"/>
      <point x="634" y="1243" type="line"/>
      <point x="603" y="1197" type="line"/>
      <point x="961" y="1197" type="line"/>
      <point x="961" y="1428" type="line"/>
      <point x="37" y="1428" type="line"/>
      <point x="37" y="1197" type="line"/>
      <point x="396" y="1197" type="line"/>
      <point x="368" y="1243" type="line"/>
    </contour>
    <contour>
      <point x="499" y="1700" type="move" name="top"/>
    </contour>
    <contour>
      <point x="499" y="-170" type="move" name="btm"/>
    </contour>
  </outline>
</glyph>
<glyph name="U" format="1">
  <advance width="1288"/>
  <unicode hex="0055"/>
  <outline>
    <contour>
      <point x="143" y="509" type="line"/>
      <point x="143" y="100"/>
      <point x="371" y="-36"/>
      <point x="651" y="-36" type="curve" smooth="yes"/>
      <point x="924" y="-36"/>
      <point x="1145" y="100"/>
      <point x="1145" y="509" type="curve" smooth="yes"/>
      <point x="1145" y="1428" type="line"/>
      <point x="879" y="1428" type="line"/>
      <point x="879" y="481" type="line" smooth="yes"/>
      <point x="879" y="238"/>
      <point x="747" y="184"/>
      <point x="648" y="184" type="curve" smooth="yes"/>
      <point x="550" y="184"/>
      <point x="409" y="240"/>
      <point x="409" y="481" type="curve" smooth="yes"/>
      <point x="409" y="1428" type="line"/>
      <point x="143" y="1428" type="line"/>
    </contour>
    <contour>
      <point x="644" y="1700" type="move" name="top"/>
    </contour>
  </outline>
</glyph>
<glyph name="V" format="1">
  <advance width="1124"/>
  <unicode hex="0056"/>
  <outline>
    <contour>
      <point x="570" y="-46" type="line"/>
      <point x="1144" y="1428" type="line"/>
      <point x="860" y="1428" type="line"/>
      <point x="529" y="481" type="line"/>
      <point x="608" y="481" type="line"/>
      <point x="269" y="1428" type="line"/>
      <point x="-20" y="1428" type="line"/>
    </contour>
    <contour>
      <point x="562" y="1700" type="move" name="top"/>
    </contour>
  </outline>
</glyph>
<glyph name="W" format="1">
  <advance width="1640"/>
  <unicode hex="0057"/>
  <outline>
    <contour>
      <point x="460" y="461" type="line"/>
      <point x="562" y="437" type="line"/>
      <point x="263" y="1428" type="line"/>
      <point x="-20" y="1428" type="line"/>
      <point x="473" y="-46" type="line"/>
      <point x="856" y="907" type="line"/>
      <point x="784" y="907" type="line"/>
      <point x="1173" y="-46" type="line"/>
      <point x="1660" y="1428" type="line"/>
      <point x="1381" y="1428" type="line"/>
      <point x="1093" y="421" type="line"/>
      <point x="1213" y="421" type="line"/>
      <point x="826" y="1463" type="line"/>
    </contour>
    <contour>
      <point x="820" y="1700" type="move" name="top"/>
    </contour>
  </outline>
</glyph>
<glyph name="X" format="1">
  <advance width="1138"/>
  <unicode hex="0058"/>
  <outline>
    <contour>
      <point x="10" y="0" type="line"/>
      <point x="330" y="0" type="line"/>
      <point x="585" y="605" type="line"/>
      <point x="532" y="605" type="line"/>
      <point x="808" y="0" type="line"/>
      <point x="1130" y="0" type="line"/>
      <point x="730" y="743" type="line"/>
      <point x="732" y="678" type="line"/>
      <point x="1120" y="1427" type="line"/>
      <point x="819" y="1427" type="line"/>
      <point x="547" y="824" type="line"/>
      <point x="606" y="824" type="line"/>
      <point x="324" y="1427" type="line"/>
      <point x="16" y="1427" type="line"/>
      <point x="409" y="691" type="line"/>
      <point x="408" y="779" type="line"/>
    </contour>
    <contour>
      <point x="570" y="1700" type="move" name="top"/>
    </contour>
  </outline>
</glyph>
<glyph name="Y" format="1">
  <advance width="1104"/>
  <unicode hex="0059"/>
  <outline>
    <contour>
      <point x="416" y="0" type="line"/>
      <point x="687" y="0" type="line"/>
      <point x="687" y="680" type="line"/>
      <point x="416" y="680" type="line"/>
    </contour>
    <contour>
      <point x="560" y="317" type="line"/>
      <point x="1134" y="1428" type="line"/>
      <point x="849" y="1428" type="line"/>
      <point x="524" y="725" type="line"/>
      <point x="603" y="725" type="line"/>
      <point x="260" y="1428" type="line"/>
      <point x="-30" y="1428" type="line"/>
    </contour>
    <contour>
      <point x="556" y="1700" type="move" name="top"/>
    </contour>
  </outline>
</glyph>
<glyph name="Z" format="1">
  <advance width="1073"/>
  <unicode hex="005A"/>
  <outline>
    <contour>
      <point x="63" y="0" type="line"/>
      <point x="993" y="0" type="line"/>
      <point x="993" y="211" type="line"/>
      <point x="324" y="211" type="line"/>
      <point x="414" y="91" type="line"/>
      <point x="1015" y="1428" type="line"/>
      <point x="129" y="1428" type="line"/>
      <point x="129" y="1216" type="line"/>
      <point x="681" y="1216" type="line"/>
      <point x="672" y="1316" type="line"/>
    </contour>
    <contour>
      <point x="543" y="1700" type="move" name="top"/>
    </contour>
  </outline>
</glyph>
<glyph name="bracketleft" format="1">
  <advance width="791"/>
  <unicode hex="005B"/>
  <outline>
    <contour>
      <point x="402" y="-144" type="line"/>
      <point x="440" y="-190" type="line"/>
      <point x="440" y="1558" type="line"/>
      <point x="402" y="1510" type="line"/>
      <point x="701" y="1510" type="line"/>
      <point x="701" y="1659" type="line"/>
      <point x="216" y="1659" type="line"/>
      <point x="216" y="-292" type="line"/>
      <point x="701" y="-292" type="line"/>
      <point x="701" y="-143" type="line"/>
    </contour>
  </outline>
</glyph>
<glyph name="asciicircum" format="1">
  <advance width="962"/>
  <unicode hex="005E"/>
  <outline>
    <contour>
      <point x="24" y="295" type="line"/>
      <point x="253" y="295" type="line"/>
      <point x="503" y="1084" type="line"/>
      <point x="466" y="1084" type="line"/>
      <point x="709" y="295" type="line"/>
      <point x="938" y="295" type="line"/>
      <point x="550" y="1428" type="line"/>
      <point x="417" y="1428" type="line"/>
    </contour>
  </outline>
</glyph>
<glyph name="underscore" format="1">
  <advance width="1004"/>
  <unicode hex="005F"/>
  <outline>
    <contour>
      <point x="-24" y="-215" type="line"/>
      <point x="-24" y="-355" type="line"/>
      <point x="1028" y="-355" type="line"/>
      <point x="1028" y="-215" type="line"/>
    </contour>
  </outline>
</glyph>
<glyph name="grave" format="1">
  <advance width="0"/>
  <unicode hex="0060"/>
  <outline>
    <contour>
      <point x="-94" y="1591" type="line"/>
      <point x="-372" y="1591" type="line"/>
      <point x="-116" y="1177" type="line"/>
      <point x="107" y="1177" type="line"/>
    </contour>
    <contour>
      <point x="0" y="1700" type="move" name="_top"/>
    </contour>
  </outline>
</glyph>
<glyph name="a" format="1">
  <advance width="1175"/>
  <unicode hex="0061"/>
  <outline>
    <contour>
      <point x="95" y="508" type="curve" smooth="yes"/>
      <point x="95" y="185"/>
      <point x="250" y="-30"/>
      <point x="499" y="-30" type="curve" smooth="yes"/>
      <point x="643" y="-30"/>
      <point x="734" y="52"/>
      <point x="774" y="129" type="curve"/>
      <point x="774" y="0" type="line"/>
      <point x="1019" y="0" type="line"/>
      <point x="1019" y="1020" type="line"/>
      <point x="774" y="1020" type="line"/>
      <point x="775" y="1007"/>
      <point x="774" y="905"/>
      <point x="774" y="891" type="curve"/>
      <point x="734" y="963"/>
      <point x="643" y="1044"/>
      <point x="502" y="1044" type="curve" smooth="yes"/>
      <point x="230" y="1044"/>
      <point x="95" y="843"/>
    </contour>
    <contour>
      <point x="362" y="508" type="curve" smooth="yes"/>
      <point x="362" y="759"/>
      <point x="470" y="838"/>
      <point x="565" y="838" type="curve" smooth="yes"/>
      <point x="690" y="838"/>
      <point x="749" y="716"/>
      <point x="749" y="504" type="curve" smooth="yes"/>
      <point x="749" y="270"/>
      <point x="658" y="175"/>
      <point x="560" y="175" type="curve" smooth="yes"/>
      <point x="447" y="175"/>
      <point x="362" y="283"/>
    </contour>
    <contour>
      <point x="552" y="1700" type="move" name="top"/>
    </contour>
  </outline>
</glyph>
<glyph name="b" format="1">
  <advance width="1162"/>
  <unicode hex="0062"/>
  <outline>
    <contour>
      <point x="156" y="0" type="line"/>
      <point x="398" y="0" type="line"/>
      <point x="398" y="77" type="line"/>
      <point x="396" y="152" type="line"/>
      <point x="441" y="29"/>
      <point x="550" y="-30"/>
      <point x="665" y="-30" type="curve"/>
      <point x="890" y="-30"/>
      <point x="1067" y="148"/>
      <point x="1067" y="515" type="curve" smooth="yes"/>
      <point x="1067" y="880"/>
      <point x="939" y="1046"/>
      <point x="685" y="1046" type="curve" smooth="yes"/>
      <point x="573" y="1046"/>
      <point x="451" y="980"/>
      <point x="402" y="879" type="curve"/>
      <point x="408" y="988" type="line"/>
      <point x="408" y="1576" type="line"/>
      <point x="156" y="1576" type="line"/>
    </contour>
    <contour>
      <point x="407" y="497" type="curve" smooth="yes"/>
      <point x="407" y="691"/>
      <point x="475" y="838"/>
      <point x="602" y="838" type="curve" smooth="yes"/>
      <point x="706" y="838"/>
      <point x="801" y="744"/>
      <point x="801" y="514" type="curve" smooth="yes"/>
      <point x="801" y="266"/>
      <point x="692" y="175"/>
      <point x="591" y="175" type="curve" smooth="yes"/>
      <point x="473" y="175"/>
      <point x="407" y="306"/>
    </contour>
    <contour>
      <point x="768" y="1700" type="move" name="top"/>
    </contour>
  </outline>
</glyph>
<glyph name="c" format="1">
  <advance width="924"/>
  <unicode hex="0063"/>
  <outline>
    <contour>
      <point x="95" y="505" type="curve" smooth="yes"/>
      <point x="95" y="222"/>
      <point x="234" y="-36"/>
      <point x="559" y="-36" type="curve" smooth="yes"/>
      <point x="725" y="-36"/>
      <point x="841" y="37"/>
      <point x="880" y="77" type="curve"/>
      <point x="802" y="256" type="line"/>
      <point x="763" y="212"/>
      <point x="686" y="177"/>
      <point x="588" y="177" type="curve" smooth="yes"/>
      <point x="438" y="177"/>
      <point x="369" y="297"/>
      <point x="369" y="503" type="curve" smooth="yes"/>
      <point x="369" y="691"/>
      <point x="437" y="826"/>
      <point x="588" y="826" type="curve" smooth="yes"/>
      <point x="658" y="826"/>
      <point x="724" y="786"/>
      <point x="784" y="726" type="curve"/>
      <point x="868" y="943" type="line"/>
      <point x="778" y="1028"/>
      <point x="672" y="1044"/>
      <point x="556" y="1044" type="curve" smooth="yes"/>
      <point x="248" y="1044"/>
      <point x="95" y="788"/>
    </contour>
    <contour>
      <point x="502" y="1700" type="move" name="top"/>
    </contour>
    <contour>
      <point x="502" y="-170" type="move" name="btm"/>
    </contour>
  </outline>
</glyph>
<glyph name="d" format="1">
  <advance width="1163"/>
  <unicode hex="0064"/>
  <outline>
    <contour>
      <point x="95" y="508" type="curve" smooth="yes"/>
      <point x="95" y="185"/>
      <point x="251" y="-30"/>
      <point x="500" y="-30" type="curve" smooth="yes"/>
      <point x="644" y="-30"/>
      <point x="732" y="52"/>
      <point x="776" y="139" type="curve"/>
      <point x="772" y="67" type="line"/>
      <point x="772" y="0" type="line"/>
      <point x="1007" y="0" type="line"/>
      <point x="1007" y="1576" type="line"/>
      <point x="755" y="1576" type="line"/>
      <point x="755" y="994" type="line"/>
      <point x="771" y="893" type="line"/>
      <point x="732" y="963"/>
      <point x="644" y="1044"/>
      <point x="503" y="1044" type="curve" smooth="yes"/>
      <point x="231" y="1044"/>
      <point x="95" y="843"/>
    </contour>
    <contour>
      <point x="364" y="509" type="curve" smooth="yes"/>
      <point x="364" y="758"/>
      <point x="471" y="838"/>
      <point x="567" y="838" type="curve" smooth="yes"/>
      <point x="691" y="838"/>
      <point x="748" y="716"/>
      <point x="748" y="504" type="curve" smooth="yes"/>
      <point x="748" y="270"/>
      <point x="659" y="175"/>
      <point x="561" y="175" type="curve" smooth="yes"/>
      <point x="448" y="175"/>
      <point x="364" y="283"/>
    </contour>
    <contour>
      <point x="412" y="1700" type="move" name="top"/>
    </contour>
  </outline>
</glyph>
<glyph name="e" format="1">
  <advance width="1075"/>
  <unicode hex="0065"/>
  <outline>
    <contour>
      <point x="577" y="-36" type="curve" smooth="yes"/>
      <point x="779" y="-36"/>
      <point x="890" y="22"/>
      <point x="946" y="60" type="curve"/>
      <point x="864" y="253" type="line"/>
      <point x="818" y="200"/>
      <point x="705" y="158"/>
      <point x="620" y="157" type="curve"/>
      <point x="454" y="157"/>
      <point x="374" y="265"/>
      <point x="367" y="427" type="curve"/>
      <point x="983" y="427" type="line"/>
      <point x="985" y="457"/>
      <point x="985" y="494"/>
      <point x="985" y="522" type="curve" smooth="yes"/>
      <point x="985" y="846"/>
      <point x="879" y="1044"/>
      <point x="573" y="1044" type="curve" smooth="yes"/>
      <point x="267" y="1044"/>
      <point x="98" y="794"/>
      <point x="98" y="497" type="curve" smooth="yes"/>
      <point x="98" y="215"/>
      <point x="233" y="-36"/>
    </contour>
    <contour>
      <point x="365" y="586" type="line"/>
      <point x="373" y="732"/>
      <point x="441" y="849"/>
      <point x="579" y="849" type="curve" smooth="yes"/>
      <point x="663" y="849"/>
      <point x="728" y="802"/>
      <point x="728" y="587" type="curve"/>
    </contour>
    <contour>
      <point x="569" y="1700" type="move" name="top"/>
    </contour>
  </outline>
</glyph>
<glyph name="f" format="1">
  <advance width="714"/>
  <unicode hex="0066"/>
  <outline>
    <contour>
      <point x="188" y="0" type="line"/>
      <point x="444" y="0" type="line"/>
      <point x="444" y="826" type="line"/>
      <point x="676" y="826" type="line"/>
      <point x="676" y="1020" type="line"/>
      <point x="444" y="1020" type="line"/>
      <point x="444" y="1212" type="line" smooth="yes"/>
      <point x="444" y="1349"/>
      <point x="522" y="1397"/>
      <point x="597" y="1397" type="curve" smooth="yes"/>
      <point x="642" y="1397"/>
      <point x="714" y="1379"/>
      <point x="746" y="1340" type="curve"/>
      <point x="746" y="1563" type="line"/>
      <point x="734" y="1575"/>
      <point x="659" y="1608"/>
      <point x="534" y="1608" type="curve" smooth="yes"/>
      <point x="398" y="1608"/>
      <point x="188" y="1543"/>
      <point x="188" y="1226" type="curve" smooth="yes"/>
      <point x="188" y="1020" type="line"/>
      <point x="52" y="1020" type="line"/>
      <point x="52" y="826" type="line"/>
      <point x="188" y="826" type="line"/>
    </contour>
    <contour>
      <point x="395" y="2109" type="move" name="top"/>
    </contour>
  </outline>
</glyph>
<glyph name="g" format="1">
  <advance width="1183"/>
  <unicode hex="0067"/>
  <outline>
    <contour>
      <point x="776" y="178" type="line"/>
      <point x="776" y="1" type="line"/>
      <point x="772" y="-238"/>
      <point x="696" y="-315"/>
      <point x="507" y="-315" type="curve" smooth="yes"/>
      <point x="411" y="-315"/>
      <point x="301" y="-265"/>
      <point x="239" y="-166" type="curve"/>
      <point x="172" y="-405" type="line"/>
      <point x="228" y="-452"/>
      <point x="331" y="-520"/>
      <point x="520" y="-520" type="curve" smooth="yes"/>
      <point x="890" y="-520"/>
      <point x="1027" y="-324"/>
      <point x="1027" y="16" type="curve" smooth="yes"/>
      <point x="1027" y="1020" type="line"/>
      <point x="807" y="1020" type="line"/>
      <point x="794" y="818" type="line"/>
      <point x="839" y="848" type="line"/>
      <point x="799" y="950"/>
      <point x="691" y="1046"/>
      <point x="531" y="1046" type="curve" smooth="yes"/>
      <point x="282" y="1046"/>
      <point x="103" y="885"/>
      <point x="103" y="508" type="curve" smooth="yes"/>
      <point x="103" y="137"/>
      <point x="303" y="-34"/>
      <point x="507" y="-34" type="curve" smooth="yes"/>
      <point x="673" y="-34"/>
      <point x="758" y="58"/>
      <point x="796" y="178" type="curve"/>
    </contour>
    <contour>
      <point x="379" y="509" type="curve" smooth="yes"/>
      <point x="379" y="754"/>
      <point x="475" y="838"/>
      <point x="579" y="838" type="curve" smooth="yes"/>
      <point x="705" y="838"/>
      <point x="777" y="706"/>
      <point x="777" y="512" type="curve" smooth="yes"/>
      <point x="777" y="278"/>
      <point x="696" y="176"/>
      <point x="578" y="176" type="curve" smooth="yes"/>
      <point x="461" y="176"/>
      <point x="379" y="288"/>
    </contour>
    <contour>
      <point x="569" y="1700" type="move" name="top"/>
    </contour>
  </outline>
</glyph>
<glyph name="h" format="1">
  <advance width="1151"/>
  <unicode hex="0068"/>
  <outline>
    <contour>
      <point x="156" y="0" type="line"/>
      <point x="408" y="0" type="line"/>
      <point x="408" y="647" type="line" smooth="yes"/>
      <point x="408" y="760"/>
      <point x="495" y="838"/>
      <point x="592" y="838" type="curve" smooth="yes"/>
      <point x="689" y="838"/>
      <point x="746" y="760"/>
      <point x="746" y="647" type="curve" smooth="yes"/>
      <point x="746" y="0" type="line"/>
      <point x="1007" y="0" type="line"/>
      <point x="1007" y="673" type="line" smooth="yes"/>
      <point x="1007" y="906"/>
      <point x="908" y="1044"/>
      <point x="702" y="1044" type="curve" smooth="yes"/>
      <point x="511" y="1044"/>
      <point x="408" y="932"/>
      <point x="360" y="835" type="curve"/>
      <point x="393" y="795" type="line"/>
      <point x="408" y="1007" type="line"/>
      <point x="408" y="1576" type="line"/>
      <point x="156" y="1576" type="line"/>
    </contour>
    <contour>
      <point x="578" y="1700" type="move" name="top"/>
    </contour>
  </outline>
</glyph>
<glyph name="k" format="1">
  <advance width="1030"/>
  <unicode hex="006B"/>
  <outline>
    <contour>
      <point x="156" y="0" type="line"/>
      <point x="406" y="0" type="line"/>
      <point x="406" y="232" type="line"/>
      <point x="398" y="465" type="line"/>
      <point x="729" y="0" type="line"/>
      <point x="1042" y="0" type="line"/>
      <point x="637" y="551" type="line"/>
      <point x="993" y="1020" type="line"/>
      <point x="698" y="1020" type="line"/>
      <point x="398" y="581" type="line"/>
      <point x="406" y="792" type="line"/>
      <point x="406" y="1576" type="line"/>
      <point x="156" y="1576" type="line"/>
    </contour>
    <contour>
      <point x="591" y="1700" type="move" name="top"/>
    </contour>
    <contour>
      <point x="591" y="-170" type="move" name="btm"/>
    </contour>
  </outline>
</glyph>
<glyph name="l" format="1">
  <advance width="573"/>
  <unicode hex="006C"/>
  <outline>
    <contour>
      <point x="157" y="0" type="line"/>
      <point x="416" y="0" type="line"/>
      <point x="416" y="1576" type="line"/>
      <point x="157" y="1576" type="line"/>
    </contour>
    <contour>
      <point x="286" y="1700" type="move" name="top"/>
    </contour>
    <contour>
      <point x="276" y="-170" type="move" name="btm"/>
    </contour>
  </outline>
</glyph>
<glyph name="m" format="1">
  <advance width="1739"/>
  <unicode hex="006D"/>
  <outline>
    <contour>
      <point x="1007" y="647" type="line"/>
      <point x="1007" y="760"/>
      <point x="1100" y="838"/>
      <point x="1197" y="838" type="curve" smooth="yes"/>
      <point x="1294" y="838"/>
      <point x="1335" y="760"/>
      <point x="1335" y="647" type="curve" smooth="yes"/>
      <point x="1335" y="0" type="line"/>
      <point x="1595" y="0" type="line"/>
      <point x="1595" y="673" type="line" smooth="yes"/>
      <point x="1595" y="906"/>
      <point x="1496" y="1044"/>
      <point x="1290" y="1044" type="curve" smooth="yes"/>
      <point x="1099" y="1044"/>
      <point x="1009" y="937"/>
      <point x="961" y="845" type="curve"/>
      <point x="954" y="757" type="line"/>
    </contour>
    <contour>
      <point x="156" y="0" type="line"/>
      <point x="417" y="0" type="line"/>
      <point x="417" y="647" type="line" smooth="yes"/>
      <point x="417" y="760"/>
      <point x="500" y="842"/>
      <point x="597" y="842" type="curve" smooth="yes"/>
      <point x="695" y="842"/>
      <point x="746" y="760"/>
      <point x="746" y="647" type="curve" smooth="yes"/>
      <point x="746" y="0" type="line"/>
      <point x="1007" y="0" type="line"/>
      <point x="1007" y="668" type="line" smooth="yes"/>
      <point x="1007" y="901"/>
      <point x="905" y="1044"/>
      <point x="698" y="1044" type="curve" smooth="yes"/>
      <point x="507" y="1044"/>
      <point x="417" y="932"/>
      <point x="369" y="835" type="curve"/>
      <point x="402" y="795" type="line"/>
      <point x="392" y="1020" type="line"/>
      <point x="156" y="1020" type="line"/>
    </contour>
    <contour>
      <point x="909" y="1700" type="move" name="top"/>
    </contour>
  </outline>
</glyph>
<glyph name="n" format="1">
  <advance width="1149"/>
  <unicode hex="006E"/>
  <outline>
    <contour>
      <point x="156" y="0" type="line"/>
      <point x="417" y="0" type="line"/>
      <point x="417" y="652" type="line" smooth="yes"/>
      <point x="417" y="764"/>
      <point x="501" y="842"/>
      <point x="599" y="842" type="curve" smooth="yes"/>
      <point x="696" y="842"/>
      <point x="744" y="764"/>
      <point x="744" y="652" type="curve" smooth="yes"/>
      <point x="744" y="0" type="line"/>
      <point x="1005" y="0" type="line"/>
      <point x="1005" y="673" type="line" smooth="yes"/>
      <point x="1005" y="906"/>
      <point x="906" y="1045"/>
      <point x="699" y="1045" type="curve" smooth="yes"/>
      <point x="509" y="1045"/>
      <point x="417" y="932"/>
      <point x="369" y="835" type="curve"/>
      <point x="402" y="795" type="line"/>
      <point x="393" y="1020" type="line"/>
      <point x="156" y="1020" type="line"/>
    </contour>
    <contour>
      <point x="648" y="1700" type="move" name="top"/>
    </contour>
    <contour>
      <point x="580" y="-170" type="move" name="btm"/>
    </contour>
  </outline>
</glyph>
<glyph name="o" format="1">
  <advance width="1139"/>
  <unicode hex="006F"/>
  <outline>
    <contour>
      <point x="374" y="504" type="curve" smooth="yes"/>
      <point x="374" y="740"/>
      <point x="445" y="852"/>
      <point x="573" y="852" type="curve" smooth="yes"/>
      <point x="700" y="852"/>
      <point x="763" y="721"/>
      <point x="763" y="504" type="curve" smooth="yes"/>
      <point x="763" y="287"/>
      <point x="700" y="151"/>
      <point x="573" y="151" type="curve" smooth="yes"/>
      <point x="445" y="151"/>
      <point x="374" y="268"/>
    </contour>
    <contour>
      <point x="98" y="504" type="curve" smooth="yes"/>
      <point x="98" y="169"/>
      <point x="272" y="-36"/>
      <point x="574" y="-36" type="curve" smooth="yes"/>
      <point x="875" y="-36"/>
      <point x="1041" y="180"/>
      <point x="1041" y="504" type="curve" smooth="yes"/>
      <point x="1041" y="828"/>
      <point x="875" y="1044"/>
      <point x="574" y="1044" type="curve" smooth="yes"/>
      <point x="272" y="1044"/>
      <point x="98" y="839"/>
    </contour>
    <contour>
      <point x="569" y="1700" type="move" name="top"/>
    </contour>
  </outline>
</glyph>
<glyph name="p" format="1">
  <advance width="1160"/>
  <unicode hex="0070"/>
  <outline>
    <contour>
      <point x="406" y="856" type="line"/>
      <point x="408" y="1020" type="line"/>
      <point x="156" y="1020" type="line"/>
      <point x="156" y="-488" type="line"/>
      <point x="408" y="-488" type="line"/>
      <point x="408" y="10" type="line"/>
      <point x="406" y="110" type="line"/>
      <point x="445" y="34"/>
      <point x="535" y="-36"/>
      <point x="654" y="-36" type="curve" smooth="yes"/>
      <point x="880" y="-36"/>
      <point x="1065" y="158"/>
      <point x="1065" y="515" type="curve" smooth="yes"/>
      <point x="1065" y="860"/>
      <point x="899" y="1046"/>
      <point x="665" y="1046" type="curve" smooth="yes"/>
      <point x="544" y="1046"/>
      <point x="433" y="955"/>
      <point x="384" y="856" type="curve"/>
    </contour>
    <contour>
      <point x="407" y="497" type="curve" smooth="yes"/>
      <point x="407" y="691"/>
      <point x="473" y="838"/>
      <point x="600" y="838" type="curve" smooth="yes"/>
      <point x="704" y="838"/>
      <point x="790" y="756"/>
      <point x="790" y="514" type="curve" smooth="yes"/>
      <point x="790" y="266"/>
      <point x="690" y="175"/>
      <point x="589" y="175" type="curve" smooth="yes"/>
      <point x="471" y="175"/>
      <point x="407" y="306"/>
    </contour>
    <contour>
      <point x="668" y="1700" type="move" name="top"/>
    </contour>
  </outline>
</glyph>
<glyph name="q" format="1">
  <advance width="1165"/>
  <unicode hex="0071"/>
  <outline>
    <contour>
      <point x="754" y="10" type="line"/>
      <point x="754" y="-488" type="line"/>
      <point x="1009" y="-488" type="line"/>
      <point x="1009" y="1020" type="line"/>
      <point x="767" y="1020" type="line"/>
      <point x="765" y="816" type="line"/>
      <point x="814" y="831" type="line"/>
      <point x="776" y="945"/>
      <point x="670" y="1046"/>
      <point x="519" y="1046" type="curve" smooth="yes"/>
      <point x="280" y="1046"/>
      <point x="95" y="886"/>
      <point x="95" y="508" type="curve" smooth="yes"/>
      <point x="95" y="168"/>
      <point x="271" y="-34"/>
      <point x="494" y="-34" type="curve" smooth="yes"/>
      <point x="620" y="-34"/>
      <point x="730" y="25"/>
      <point x="774" y="157" type="curve"/>
      <point x="765" y="157" type="line"/>
    </contour>
    <contour>
      <point x="356" y="508" type="curve" smooth="yes"/>
      <point x="356" y="764"/>
      <point x="478" y="838"/>
      <point x="569" y="838" type="curve" smooth="yes"/>
      <point x="697" y="838"/>
      <point x="755" y="704"/>
      <point x="755" y="511" type="curve" smooth="yes"/>
      <point x="755" y="277"/>
      <point x="689" y="176"/>
      <point x="567" y="176" type="curve" smooth="yes"/>
      <point x="455" y="176"/>
      <point x="356" y="287"/>
    </contour>
    <contour>
      <point x="559" y="1700" type="move" name="top"/>
    </contour>
  </outline>
</glyph>
<glyph name="r" format="1">
  <advance width="924"/>
  <unicode hex="0072"/>
  <outline>
    <contour>
      <point x="141" y="0" type="line"/>
      <point x="402" y="0" type="line"/>
      <point x="402" y="626" type="line" smooth="yes"/>
      <point x="402" y="669"/>
      <point x="447" y="819"/>
      <point x="571" y="819" type="curve" smooth="yes"/>
      <point x="651" y="819"/>
      <point x="693" y="765"/>
      <point x="693" y="614" type="curve"/>
      <point x="909" y="700" type="line"/>
      <point x="909" y="854"/>
      <point x="864" y="1044"/>
      <point x="677" y="1044" type="curve" smooth="yes"/>
      <point x="534" y="1044"/>
      <point x="430" y="948"/>
      <point x="397" y="888" type="curve"/>
      <point x="386" y="1020" type="line"/>
      <point x="141" y="1020" type="line"/>
    </contour>
    <contour>
      <point x="551" y="1700" type="move" name="top"/>
    </contour>
    <contour>
      <point x="289" y="-170" type="move" name="btm"/>
    </contour>
  </outline>
</glyph>
<glyph name="s" format="1">
  <advance width="918"/>
  <unicode hex="0073"/>
  <outline>
    <contour>
      <point x="74" y="86" type="line"/>
      <point x="105" y="50"/>
      <point x="245" y="-36"/>
      <point x="444" y="-36" type="curve" smooth="yes"/>
      <point x="727" y="-36"/>
      <point x="839" y="137"/>
      <point x="839" y="306" type="curve" smooth="yes"/>
      <point x="839" y="446"/>
      <point x="740" y="525"/>
      <point x="593" y="591" type="curve" smooth="yes"/>
      <point x="476" y="642"/>
      <point x="367" y="676"/>
      <point x="367" y="751" type="curve" smooth="yes"/>
      <point x="367" y="811"/>
      <point x="401" y="848"/>
      <point x="524" y="848" type="curve" smooth="yes"/>
      <point x="601" y="848"/>
      <point x="686" y="811"/>
      <point x="740" y="771" type="curve"/>
      <point x="809" y="954" type="line"/>
      <point x="773" y="992"/>
      <point x="648" y="1044"/>
      <point x="490" y="1044" type="curve" smooth="yes"/>
      <point x="241" y="1044"/>
      <point x="110" y="919"/>
      <point x="110" y="736" type="curve" smooth="yes"/>
      <point x="110" y="544"/>
      <point x="276" y="466"/>
      <point x="378" y="420" type="curve" smooth="yes"/>
      <point x="514" y="361"/>
      <point x="584" y="333"/>
      <point x="584" y="269" type="curve" smooth="yes"/>
      <point x="584" y="196"/>
      <point x="517" y="158"/>
      <point x="419" y="158" type="curve" smooth="yes"/>
      <point x="278" y="158"/>
      <point x="209" y="219"/>
      <point x="149" y="268" type="curve"/>
    </contour>
    <contour>
      <point x="471" y="1700" type="move" name="top"/>
    </contour>
    <contour>
      <point x="445" y="-170" type="move" name="btm"/>
    </contour>
  </outline>
</glyph>
<glyph name="t" format="1">
  <advance width="797"/>
  <unicode hex="0074"/>
  <outline>
    <contour>
      <point x="174" y="331" type="line" smooth="yes"/>
      <point x="174" y="88"/>
      <point x="248" y="-30"/>
      <point x="480" y="-30" type="curve" smooth="yes"/>
      <point x="546" y="-30"/>
      <point x="687" y="1"/>
      <point x="749" y="46" type="curve"/>
      <point x="701" y="251" type="line"/>
      <point x="662" y="219"/>
      <point x="586" y="181"/>
      <point x="526" y="181" type="curve" smooth="yes"/>
      <point x="466" y="181"/>
      <point x="432" y="219"/>
      <point x="432" y="337" type="curve" smooth="yes"/>
      <point x="432" y="826" type="line"/>
      <point x="685" y="826" type="line"/>
      <point x="685" y="1020" type="line"/>
      <point x="432" y="1020" type="line"/>
      <point x="432" y="1332" type="line"/>
      <point x="174" y="1234" type="line"/>
      <point x="174" y="1020" type="line"/>
      <point x="51" y="1020" type="line"/>
      <point x="51" y="826" type="line"/>
      <point x="174" y="826" type="line"/>
    </contour>
    <contour>
      <point x="319" y="1995" type="move" name="top"/>
    </contour>
    <contour>
      <point x="398" y="-170" type="move" name="btm"/>
    </contour>
  </outline>
</glyph>
<glyph name="u" format="1">
  <advance width="1149"/>
  <unicode hex="0075"/>
  <outline>
    <contour>
      <point x="987" y="1020" type="line"/>
      <point x="726" y="1020" type="line"/>
      <point x="726" y="368" type="line" smooth="yes"/>
      <point x="726" y="256"/>
      <point x="642" y="178"/>
      <point x="544" y="178" type="curve" smooth="yes"/>
      <point x="447" y="178"/>
      <point x="399" y="256"/>
      <point x="399" y="368" type="curve" smooth="yes"/>
      <point x="399" y="1020" type="line"/>
      <point x="138" y="1020" type="line"/>
      <point x="138" y="347" type="line" smooth="yes"/>
      <point x="138" y="114"/>
      <point x="237" y="-25"/>
      <point x="444" y="-25" type="curve" smooth="yes"/>
      <point x="634" y="-25"/>
      <point x="726" y="88"/>
      <point x="774" y="185" type="curve"/>
      <point x="741" y="225" type="line"/>
      <point x="750" y="0" type="line"/>
      <point x="987" y="0" type="line"/>
    </contour>
    <contour>
      <point x="648" y="1700" type="move" name="top"/>
    </contour>
    <contour>
      <point x="580" y="-170" type="move" name="btm"/>
    </contour>
  </outline>
</glyph>
<glyph name="v" format="1">
  <advance width="965"/>
  <unicode hex="0076"/>
  <outline>
    <contour>
      <point x="401" y="0" type="line"/>
      <point x="584" y="0" type="line"/>
      <point x="977" y="1020" type="line"/>
      <point x="706" y="1020" type="line"/>
      <point x="537" y="510" type="line"/>
      <point x="495" y="342" type="line"/>
      <point x="451" y="510" type="line"/>
      <point x="274" y="1020" type="line"/>
      <point x="-12" y="1020" type="line"/>
    </contour>
    <contour>
      <point x="482" y="1700" type="move" name="top"/>
    </contour>
  </outline>
</glyph>
<glyph name="w" format="1">
  <advance width="1463"/>
  <unicode hex="0077"/>
  <outline>
    <contour>
      <point x="348" y="0" type="line"/>
      <point x="553" y="0" type="line"/>
      <point x="704" y="554" type="line"/>
      <point x="767" y="899" type="line"/>
      <point x="700" y="899" type="line"/>
      <point x="768" y="554" type="line"/>
      <point x="934" y="0" type="line"/>
      <point x="1140" y="0" type="line"/>
      <point x="1462" y="1020" type="line"/>
      <point x="1200" y="1020" type="line"/>
      <point x="1088" y="554" type="line"/>
      <point x="991" y="111" type="line"/>
      <point x="1103" y="111" type="line"/>
      <point x="998" y="554" type="line"/>
      <point x="862" y="1020" type="line"/>
      <point x="629" y="1020" type="line"/>
      <point x="504" y="554" type="line"/>
      <point x="405" y="124" type="line"/>
      <point x="517" y="124" type="line"/>
      <point x="412" y="554" type="line"/>
      <point x="292" y="1020" type="line"/>
      <point x="23" y="1020" type="line"/>
    </contour>
    <contour>
      <point x="733" y="1700" type="move" name="top"/>
    </contour>
  </outline>
</glyph>
<glyph name="x" format="1">
  <advance width="973"/>
  <unicode hex="0078"/>
  <outline>
    <contour>
      <point x="24" y="0" type="line"/>
      <point x="308" y="0" type="line"/>
      <point x="434" y="274" type="line"/>
      <point x="471" y="366" type="line"/>
      <point x="516" y="274" type="line"/>
      <point x="663" y="0" type="line"/>
      <point x="952" y="0" type="line"/>
      <point x="731" y="389" type="line"/>
      <point x="658" y="511" type="line"/>
      <point x="731" y="640" type="line"/>
      <point x="935" y="1020" type="line"/>
      <point x="664" y="1020" type="line"/>
      <point x="542" y="762" type="line"/>
      <point x="490" y="644" type="line"/>
      <point x="439" y="762" type="line"/>
      <point x="315" y="1020" type="line"/>
      <point x="24" y="1020" type="line"/>
      <point x="233" y="632" type="line"/>
      <point x="311" y="502" type="line"/>
      <point x="236" y="376" type="line"/>
    </contour>
    <contour>
      <point x="481" y="1700" type="move" name="top"/>
    </contour>
  </outline>
</glyph>
<glyph name="y" format="1">
  <advance width="993"/>
  <unicode hex="0079"/>
  <outline>
    <contour>
      <point x="389" y="97" type="line"/>
      <point x="138" y="-488" type="line"/>
      <point x="427" y="-488" type="line"/>
      <point x="1005" y="1020" type="line"/>
      <point x="706" y="1020" type="line"/>
      <point x="554" y="490" type="line"/>
      <point x="527" y="363" type="line"/>
      <point x="493" y="482" type="line"/>
      <point x="290" y="1020" type="line"/>
      <point x="-12" y="1020" type="line"/>
    </contour>
    <contour>
      <point x="501" y="1700" type="move" name="top"/>
    </contour>
  </outline>
</glyph>
<glyph name="z" format="1">
  <advance width="909"/>
  <unicode hex="007A"/>
  <outline>
    <contour>
      <point x="26" y="0" type="line"/>
      <point x="841" y="0" type="line"/>
      <point x="841" y="187" type="line"/>
      <point x="345" y="187" type="line"/>
      <point x="375" y="101" type="line"/>
      <point x="883" y="1020" type="line"/>
      <point x="113" y="1020" type="line"/>
      <point x="113" y="826" type="line"/>
      <point x="544" y="826" type="line"/>
      <point x="544" y="925" type="line"/>
    </contour>
    <contour>
      <point x="453" y="1700" type="move" name="top"/>
    </contour>
  </outline>
</glyph>
<glyph name="braceleft" format="1">
  <advance width="791"/>
  <unicode hex="007B"/>
  <outline>
    <contour>
      <point x="224" y="82" type="line"/>
      <point x="224" y="-161"/>
      <point x="415" y="-325"/>
      <point x="708" y="-285" type="curve"/>
      <point x="710" y="-154" type="line"/>
      <point x="463" y="-202"/>
      <point x="455" y="-23"/>
      <point x="455" y="214" type="curve" smooth="yes"/>
      <point x="455" y="396" type="line" smooth="yes"/>
      <point x="455" y="584"/>
      <point x="342" y="664"/>
      <point x="272" y="682" type="curve"/>
      <point x="350" y="702"/>
      <point x="455" y="781"/>
      <point x="455" y="1001" type="curve" smooth="yes"/>
      <point x="455" y="1159" type="line" smooth="yes"/>
      <point x="455" y="1397"/>
      <point x="461" y="1575"/>
      <point x="708" y="1527" type="curve"/>
      <point x="706" y="1658" type="line"/>
      <point x="413" y="1698"/>
      <point x="224" y="1535"/>
      <point x="224" y="1291" type="curve" smooth="yes"/>
      <point x="224" y="919" type="line" smooth="yes"/>
      <point x="224" y="762"/>
      <point x="94" y="762"/>
      <point x="37" y="762" type="curve"/>
      <point x="37" y="608" type="line"/>
      <point x="94" y="608"/>
      <point x="224" y="606"/>
      <point x="224" y="440" type="curve" smooth="yes"/>
    </contour>
  </outline>
</glyph>
<glyph name="asciitilde" format="1">
  <advance width="1179"/>
  <unicode hex="007E"/>
  <outline>
    <contour>
      <point x="807" y="671" type="curve"/>
      <point x="647" y="671"/>
      <point x="594" y="846"/>
      <point x="390" y="846" type="curve" smooth="yes"/>
      <point x="231" y="846"/>
      <point x="71" y="709"/>
      <point x="50" y="571" type="curve"/>
      <point x="197" y="472" type="line"/>
      <point x="228" y="559"/>
      <point x="280" y="636"/>
      <point x="372" y="635" type="curve" smooth="yes"/>
      <point x="522" y="633"/>
      <point x="590" y="460"/>
      <point x="789" y="460" type="curve" smooth="yes"/>
      <point x="948" y="460"/>
      <point x="1108" y="597"/>
      <point x="1129" y="735" type="curve"/>
      <point x="982" y="834" type="line"/>
      <point x="951" y="747"/>
      <point x="899" y="670"/>
    </contour>
  </outline>
</glyph>
<glyph name="cent" format="1">
  <advance width="1080"/>
  <unicode hex="00A2"/>
  <outline>
    <contour>
      <point x="125" y="700" type="curve" smooth="yes"/>
      <point x="125" y="423"/>
      <point x="284" y="224"/>
      <point x="612" y="224" type="curve" smooth="yes"/>
      <point x="804" y="224"/>
      <point x="904" y="282"/>
      <point x="946" y="322" type="curve"/>
      <point x="866" y="504" type="line"/>
      <point x="808" y="453"/>
      <point x="739" y="416"/>
      <point x="652" y="415" type="curve" smooth="yes"/>
      <point x="499" y="415"/>
      <point x="421" y="528"/>
      <point x="421" y="702" type="curve" smooth="yes"/>
      <point x="421" y="864"/>
      <point x="497" y="991"/>
      <point x="643" y="991" type="curve" smooth="yes"/>
      <point x="718" y="991"/>
      <point x="793" y="958"/>
      <point x="860" y="897" type="curve"/>
      <point x="943" y="1090" type="line"/>
      <point x="892" y="1143"/>
      <point x="764" y="1177"/>
      <point x="613" y="1177" type="curve" smooth="yes"/>
      <point x="308" y="1177"/>
      <point x="125" y="991"/>
    </contour>
    <contour>
      <point x="469" y="0" type="line"/>
      <point x="712" y="0" type="line"/>
      <point x="712" y="265" type="line"/>
      <point x="469" y="265" type="line"/>
    </contour>
    <contour>
      <point x="469" y="1131" type="line"/>
      <point x="712" y="1131" type="line"/>
      <point x="712" y="1426" type="line"/>
      <point x="469" y="1426" type="line"/>
    </contour>
  </outline>
</glyph>
<glyph name="sterling" format="1">
  <advance width="1212"/>
  <unicode hex="00A3"/>
  <outline>
    <contour>
      <point x="144" y="0" type="curve"/>
      <point x="1060" y="0" type="line"/>
      <point x="1060" y="206" type="line"/>
      <point x="449" y="206" type="line"/>
      <point x="489" y="306"/>
      <point x="543" y="437"/>
      <point x="543" y="611" type="curve" smooth="yes"/>
      <point x="543" y="770"/>
      <point x="476" y="870"/>
      <point x="476" y="1016" type="curve" smooth="yes"/>
      <point x="476" y="1189"/>
      <point x="550" y="1274"/>
      <point x="703" y="1274" type="curve" smooth="yes"/>
      <point x="815" y="1274"/>
      <point x="935" y="1210"/>
      <point x="980" y="1135" type="curve"/>
      <point x="1084" y="1301" type="line"/>
      <point x="1043" y="1356"/>
      <point x="913" y="1450"/>
      <point x="672" y="1450" type="curve" smooth="yes"/>
      <point x="324" y="1450"/>
      <point x="192" y="1290"/>
      <point x="192" y="1060" type="curve" smooth="yes"/>
      <point x="192" y="865"/>
      <point x="284" y="750"/>
      <point x="284" y="527" type="curve" smooth="yes"/>
      <point x="284" y="294"/>
      <point x="179" y="82"/>
    </contour>
    <contour>
      <point x="97" y="589" type="line"/>
      <point x="884" y="589" type="line"/>
      <point x="884" y="759" type="line"/>
      <point x="97" y="759" type="line"/>
    </contour>
  </outline>
</glyph>
<glyph name="currency" format="1">
  <advance width="1183"/>
  <unicode hex="00A4"/>
  <outline>
    <contour>
      <point x="326" y="854" type="line"/>
      <point x="446" y="980" type="line"/>
      <point x="244" y="1190" type="line"/>
      <point x="108" y="1047" type="line"/>
    </contour>
    <contour>
      <point x="734" y="399" type="line"/>
      <point x="938" y="189" type="line"/>
      <point x="1072" y="331" type="line"/>
      <point x="854" y="526" type="line"/>
    </contour>
    <contour>
      <point x="105" y="333" type="line"/>
      <point x="239" y="192" type="line"/>
      <point x="444" y="401" type="line"/>
      <point x="322" y="527" type="line"/>
    </contour>
    <contour>
      <point x="727" y="990" type="line"/>
      <point x="847" y="864" type="line"/>
      <point x="1064" y="1058" type="line"/>
      <point x="931" y="1200" type="line"/>
    </contour>
    <contour>
      <point x="200" y="690" type="curve" smooth="yes"/>
      <point x="200" y="476"/>
      <point x="374" y="302"/>
      <point x="588" y="302" type="curve" smooth="yes"/>
      <point x="802" y="302"/>
      <point x="976" y="476"/>
      <point x="976" y="690" type="curve" smooth="yes"/>
      <point x="976" y="904"/>
      <point x="802" y="1078"/>
      <point x="588" y="1078" type="curve" smooth="yes"/>
      <point x="374" y="1078"/>
      <point x="200" y="904"/>
    </contour>
    <contour>
      <point x="350" y="690" type="curve"/>
      <point x="350" y="821"/>
      <point x="456" y="928"/>
      <point x="588" y="928" type="curve" smooth="yes"/>
      <point x="720" y="928"/>
      <point x="824" y="821"/>
      <point x="824" y="690" type="curve" smooth="yes"/>
      <point x="824" y="559"/>
      <point x="720" y="452"/>
      <point x="588" y="452" type="curve" smooth="yes"/>
      <point x="456" y="452"/>
      <point x="350" y="559"/>
    </contour>
  </outline>
</glyph>
<glyph name="yen" format="1">
  <advance width="1351"/>
  <unicode hex="00A5"/>
  <outline>
    <contour>
      <point x="541" y="0" type="line"/>
      <point x="824" y="0" type="line"/>
      <point x="824" y="605" type="line"/>
      <point x="1261" y="1428" type="line"/>
      <point x="970" y="1428" type="line"/>
      <point x="663" y="785" type="line"/>
      <point x="699" y="785" type="line"/>
      <point x="382" y="1428" type="line"/>
      <point x="90" y="1428" type="line"/>
      <point x="541" y="612" type="line"/>
    </contour>
    <contour>
      <point x="216" y="578" type="line"/>
      <point x="1129" y="578" type="line"/>
      <point x="1128" y="738" type="line"/>
      <point x="216" y="738" type="line"/>
    </contour>
    <contour>
      <point x="216" y="264" type="line"/>
      <point x="1129" y="264" type="line"/>
      <point x="1128" y="424" type="line"/>
      <point x="216" y="424" type="line"/>
    </contour>
  </outline>
</glyph>
<glyph name="brokenbar" format="1">
  <advance width="850"/>
  <unicode hex="00A6"/>
  <outline>
    <contour>
      <point x="320" y="849" type="line"/>
      <point x="529" y="849" type="line"/>
      <point x="529" y="1700" type="line"/>
      <point x="320" y="1700" type="line"/>
    </contour>
    <contour>
      <point x="320" y="-340" type="line"/>
      <point x="529" y="-340" type="line"/>
      <point x="529" y="511" type="line"/>
      <point x="320" y="511" type="line"/>
    </contour>
  </outline>
</glyph>
<glyph name="section" format="1">
  <advance width="1169"/>
  <unicode hex="00A7"/>
  <outline>
    <contour>
      <point x="285" y="-146" type="curve"/>
      <point x="237" y="-353" type="line"/>
      <point x="302" y="-383"/>
      <point x="386" y="-396"/>
      <point x="468" y="-396" type="curve"/>
      <point x="686" y="-396"/>
      <point x="931" y="-301"/>
      <point x="951" y="-18" type="curve" smooth="yes"/>
      <point x="989" y="504"/>
      <point x="385" y="397"/>
      <point x="402" y="732" type="curve" smooth="yes"/>
      <point x="413" y="943"/>
      <point x="588" y="1013"/>
      <point x="605" y="1010" type="curve"/>
      <point x="488" y="1116" type="line"/>
      <point x="383" y="1114"/>
      <point x="176" y="934"/>
      <point x="164" y="723" type="curve" smooth="yes"/>
      <point x="138" y="274"/>
      <point x="739" y="318"/>
      <point x="723" y="23" type="curve" smooth="yes"/>
      <point x="712" y="-160"/>
      <point x="574" y="-202"/>
      <point x="469" y="-202" type="curve" smooth="yes"/>
      <point x="398" y="-202"/>
      <point x="315" y="-176"/>
    </contour>
    <contour>
      <point x="930" y="1741" type="line"/>
      <point x="864" y="1771"/>
      <point x="780" y="1784"/>
      <point x="698" y="1784" type="curve" smooth="yes"/>
      <point x="480" y="1784"/>
      <point x="236" y="1689"/>
      <point x="216" y="1406" type="curve" smooth="yes"/>
      <point x="178" y="884"/>
      <point x="782" y="991"/>
      <point x="765" y="656" type="curve" smooth="yes"/>
      <point x="754" y="445"/>
      <point x="579" y="375"/>
      <point x="562" y="378" type="curve"/>
      <point x="679" y="272" type="line"/>
      <point x="784" y="274"/>
      <point x="991" y="454"/>
      <point x="1003" y="665" type="curve" smooth="yes"/>
      <point x="1029" y="1114"/>
      <point x="428" y="1070"/>
      <point x="444" y="1365" type="curve" smooth="yes"/>
      <point x="454" y="1548"/>
      <point x="593" y="1590"/>
      <point x="698" y="1590" type="curve" smooth="yes"/>
      <point x="769" y="1590"/>
      <point x="852" y="1564"/>
      <point x="882" y="1534" type="curve"/>
    </contour>
  </outline>
</glyph>
<glyph name="dieresis" format="1">
  <advance width="0"/>
  <unicode hex="00A8"/>
  <outline>
    <contour>
      <point x="-337" y="1232" type="line"/>
      <point x="-67" y="1232" type="line"/>
      <point x="-67" y="1506" type="line"/>
      <point x="-337" y="1506" type="line"/>
    </contour>
    <contour>
      <point x="69" y="1232" type="line"/>
      <point x="339" y="1232" type="line"/>
      <point x="339" y="1506" type="line"/>
      <point x="69" y="1506" type="line"/>
    </contour>
    <contour>
      <point x="0" y="1700" type="move" name="_top"/>
    </contour>
  </outline>
</glyph>
<glyph name="copyright" format="1">
  <advance width="1518"/>
  <unicode hex="00A9"/>
  <outline>
    <contour>
      <point x="30" y="715" type="curve" smooth="yes"/>
      <point x="30" y="294"/>
      <point x="349" y="-30"/>
      <point x="760" y="-30" type="curve" smooth="yes"/>
      <point x="1171" y="-30"/>
      <point x="1488" y="294"/>
      <point x="1488" y="715" type="curve" smooth="yes"/>
      <point x="1488" y="1136"/>
      <point x="1171" y="1460"/>
      <point x="760" y="1460" type="curve" smooth="yes"/>
      <point x="349" y="1460"/>
      <point x="30" y="1136"/>
    </contour>
    <contour>
      <point x="166" y="715" type="curve" smooth="yes"/>
      <point x="166" y="1056"/>
      <point x="407" y="1337"/>
      <point x="760" y="1337" type="curve" smooth="yes"/>
      <point x="1112" y="1337"/>
      <point x="1354" y="1056"/>
      <point x="1354" y="715" type="curve" smooth="yes"/>
      <point x="1354" y="374"/>
      <point x="1112" y="93"/>
      <point x="760" y="93" type="curve" smooth="yes"/>
      <point x="407" y="93"/>
      <point x="166" y="374"/>
    </contour>
    <contour>
      <point x="430" y="713" type="curve" smooth="yes"/>
      <point x="430" y="502"/>
      <point x="541" y="310"/>
      <point x="794" y="310" type="curve" smooth="yes"/>
      <point x="918" y="310"/>
      <point x="1004" y="365"/>
      <point x="1033" y="394" type="curve"/>
      <point x="975" y="535" type="line"/>
      <point x="933" y="485"/>
      <point x="877" y="462"/>
      <point x="816" y="461" type="curve" smooth="yes"/>
      <point x="694" y="461"/>
      <point x="638" y="562"/>
      <point x="638" y="712" type="curve" smooth="yes"/>
      <point x="638" y="848"/>
      <point x="693" y="968"/>
      <point x="816" y="968" type="curve" smooth="yes"/>
      <point x="879" y="968"/>
      <point x="928" y="929"/>
      <point x="975" y="882" type="curve"/>
      <point x="1037" y="1029" type="line"/>
      <point x="968" y="1095"/>
      <point x="881" y="1115"/>
      <point x="792" y="1115" type="curve" smooth="yes"/>
      <point x="553" y="1115"/>
      <point x="430" y="924"/>
    </contour>
  </outline>
</glyph>
<glyph name="ordfeminine" format="1">
  <advance width="1110"/>
  <unicode hex="00AA"/>
  <outline>
    <contour>
      <point x="432" y="862" type="curve" smooth="yes"/>
      <point x="627" y="862"/>
      <point x="737" y="1060"/>
      <point x="699" y="1097" type="curve" smooth="yes"/>
      <point x="664" y="1112" type="line"/>
      <point x="664" y="1076"/>
      <point x="655" y="910"/>
      <point x="655" y="876" type="curve"/>
      <point x="881" y="876" type="line"/>
      <point x="881" y="1663" type="line"/>
      <point x="655" y="1663" type="line"/>
      <point x="655" y="1624"/>
      <point x="664" y="1465"/>
      <point x="664" y="1426" type="curve"/>
      <point x="700" y="1470" type="line"/>
      <point x="676" y="1561"/>
      <point x="610" y="1694"/>
      <point x="430" y="1694" type="curve" smooth="yes"/>
      <point x="224" y="1694"/>
      <point x="90" y="1533"/>
      <point x="90" y="1272" type="curve" smooth="yes"/>
      <point x="90" y="1020"/>
      <point x="243" y="862"/>
    </contour>
    <contour>
      <point x="470" y="1014" type="curve" smooth="yes"/>
      <point x="381" y="1014"/>
      <point x="320" y="1126"/>
      <point x="320" y="1281" type="curve" smooth="yes"/>
      <point x="320" y="1438"/>
      <point x="388" y="1536"/>
      <point x="470" y="1536" type="curve" smooth="yes"/>
      <point x="574" y="1536"/>
      <point x="624" y="1424"/>
      <point x="624" y="1276" type="curve" smooth="yes"/>
      <point x="624" y="1118"/>
      <point x="560" y="1014"/>
    </contour>
  </outline>
</glyph>
<glyph name="uni00AD" format="1">
  <advance width="907"/>
  <unicode hex="00AD"/>
  <outline>
    <contour>
      <point x="127" y="504" type="line"/>
      <point x="780" y="504" type="line"/>
      <point x="780" y="704" type="line"/>
      <point x="127" y="704" type="line"/>
    </contour>
  </outline>
</glyph>
<glyph name="registered" format="1">
  <advance width="1518"/>
  <unicode hex="00AE"/>
  <outline>
    <contour>
      <point x="738" y="694" type="line"/>
      <point x="837" y="694"/>
      <point x="886" y="742"/>
      <point x="886" y="841" type="curve" smooth="yes"/>
      <point x="886" y="942"/>
      <point x="848" y="998"/>
      <point x="734" y="998" type="curve" smooth="yes"/>
      <point x="669" y="998" type="line"/>
      <point x="689" y="1016" type="line"/>
      <point x="689" y="681" type="line"/>
      <point x="666" y="694" type="line"/>
    </contour>
    <contour>
      <point x="689" y="590" type="line"/>
      <point x="689" y="336" type="line"/>
      <point x="514" y="336" type="line"/>
      <point x="514" y="1121" type="line"/>
      <point x="766" y="1121" type="line" smooth="yes"/>
      <point x="925" y="1121"/>
      <point x="1062" y="1036"/>
      <point x="1062" y="848" type="curve" smooth="yes"/>
      <point x="1062" y="712"/>
      <point x="981" y="573"/>
      <point x="770" y="573" type="curve"/>
      <point x="835" y="632" type="line"/>
      <point x="1084" y="336" type="line"/>
      <point x="878" y="336" type="line"/>
      <point x="679" y="596" type="line"/>
    </contour>
    <contour>
      <point x="30" y="715" type="curve" smooth="yes"/>
      <point x="30" y="294"/>
      <point x="349" y="-30"/>
      <point x="760" y="-30" type="curve" smooth="yes"/>
      <point x="1171" y="-30"/>
      <point x="1488" y="294"/>
      <point x="1488" y="715" type="curve" smooth="yes"/>
      <point x="1488" y="1136"/>
      <point x="1171" y="1460"/>
      <point x="760" y="1460" type="curve" smooth="yes"/>
      <point x="349" y="1460"/>
      <point x="30" y="1136"/>
    </contour>
    <contour>
      <point x="166" y="715" type="curve" smooth="yes"/>
      <point x="166" y="1056"/>
      <point x="407" y="1337"/>
      <point x="760" y="1337" type="curve" smooth="yes"/>
      <point x="1112" y="1337"/>
      <point x="1354" y="1056"/>
      <point x="1354" y="715" type="curve" smooth="yes"/>
      <point x="1354" y="374"/>
      <point x="1112" y="93"/>
      <point x="760" y="93" type="curve" smooth="yes"/>
      <point x="407" y="93"/>
      <point x="166" y="374"/>
    </contour>
  </outline>
</glyph>
<glyph name="macron" format="1">
  <advance width="0"/>
  <unicode hex="00AF"/>
  <outline>
    <contour>
      <point x="-328" y="1284" type="line"/>
      <point x="328" y="1284" type="line"/>
      <point x="328" y="1470" type="line"/>
      <point x="-328" y="1470" type="line"/>
    </contour>
    <contour>
      <point x="0" y="1700" type="move" name="_top"/>
    </contour>
  </outline>
</glyph>
<glyph name="degree" format="1">
  <advance width="858"/>
  <unicode hex="00B0"/>
  <outline>
    <contour>
      <point x="426" y="1044" type="curve" smooth="yes"/>
      <point x="619" y="1044"/>
      <point x="785" y="1189"/>
      <point x="785" y="1410" type="curve" smooth="yes"/>
      <point x="785" y="1624"/>
      <point x="619" y="1776"/>
      <point x="426" y="1776" type="curve" smooth="yes"/>
      <point x="238" y="1776"/>
      <point x="73" y="1631"/>
      <point x="73" y="1410" type="curve" smooth="yes"/>
      <point x="73" y="1189"/>
      <point x="235" y="1044"/>
    </contour>
    <contour>
      <point x="426" y="1234" type="curve" smooth="yes"/>
      <point x="345" y="1234"/>
      <point x="273" y="1293"/>
      <point x="273" y="1410" type="curve" smooth="yes"/>
      <point x="273" y="1525"/>
      <point x="341" y="1587"/>
      <point x="426" y="1587" type="curve" smooth="yes"/>
      <point x="516" y="1587"/>
      <point x="582" y="1516"/>
      <point x="582" y="1410" type="curve" smooth="yes"/>
      <point x="582" y="1304"/>
      <point x="516" y="1234"/>
    </contour>
  </outline>
</glyph>
<glyph name="plusminus" format="1">
  <advance width="1172"/>
  <unicode hex="00B1"/>
  <outline>
    <contour>
      <point x="469" y="338" type="line"/>
      <point x="690" y="338" type="line"/>
      <point x="690" y="807" type="line"/>
      <point x="654" y="750" type="line"/>
      <point x="1087" y="750" type="line"/>
      <point x="1087" y="951" type="line"/>
      <point x="656" y="951" type="line"/>
      <point x="690" y="903" type="line"/>
      <point x="690" y="1362" type="line"/>
      <point x="469" y="1362" type="line"/>
      <point x="469" y="905" type="line"/>
      <point x="502" y="951" type="line"/>
      <point x="85" y="951" type="line"/>
      <point x="85" y="750" type="line"/>
      <point x="505" y="750" type="line"/>
      <point x="469" y="806" type="line"/>
    </contour>
    <contour>
      <point x="1087" y="0" type="line"/>
      <point x="1087" y="191" type="line"/>
      <point x="85" y="191" type="line"/>
      <point x="85" y="0" type="line"/>
    </contour>
  </outline>
</glyph>
<glyph name="two.superior" format="1">
  <advance width="1031"/>
  <unicode hex="00B2"/>
  <outline>
    <contour>
      <point x="98" y="865" type="curve"/>
      <point x="876" y="865" type="line"/>
      <point x="876" y="1070" type="line"/>
      <point x="246" y="1070" type="line"/>
      <point x="351" y="979" type="line"/>
      <point x="351" y="1041"/>
      <point x="325" y="1111"/>
      <point x="480" y="1182" type="curve" smooth="yes"/>
      <point x="715" y="1289"/>
      <point x="859" y="1353"/>
      <point x="859" y="1559" type="curve" smooth="yes"/>
      <point x="859" y="1805"/>
      <point x="679" y="1898"/>
      <point x="461" y="1898" type="curve" smooth="yes"/>
      <point x="207" y="1898"/>
      <point x="75" y="1729"/>
      <point x="57" y="1615" type="curve"/>
      <point x="274" y="1535" type="line"/>
      <point x="280" y="1667"/>
      <point x="363" y="1710"/>
      <point x="449" y="1710" type="curve" smooth="yes"/>
      <point x="522" y="1710"/>
      <point x="609" y="1679"/>
      <point x="609" y="1571" type="curve" smooth="yes"/>
      <point x="609" y="1488"/>
      <point x="525" y="1413"/>
      <point x="357" y="1341" type="curve" smooth="yes"/>
      <point x="98" y="1228"/>
      <point x="55" y="1064"/>
    </contour>
  </outline>
</glyph>
<glyph name="three.superior" format="1">
  <advance width="962"/>
  <unicode hex="00B3"/>
  <outline>
    <contour>
      <point x="71" y="944" type="line"/>
      <point x="176" y="883"/>
      <point x="302" y="857"/>
      <point x="440" y="857" type="curve" smooth="yes"/>
      <point x="692" y="857"/>
      <point x="861" y="954"/>
      <point x="861" y="1171" type="curve" smooth="yes"/>
      <point x="861" y="1284"/>
      <point x="799" y="1375"/>
      <point x="674" y="1401" type="curve"/>
      <point x="779" y="1440"/>
      <point x="824" y="1515"/>
      <point x="824" y="1617" type="curve" smooth="yes"/>
      <point x="824" y="1796"/>
      <point x="704" y="1898"/>
      <point x="450" y="1898" type="curve" smooth="yes"/>
      <point x="300" y="1898"/>
      <point x="148" y="1859"/>
      <point x="71" y="1806" type="curve"/>
      <point x="149" y="1630" type="line"/>
      <point x="210" y="1681"/>
      <point x="305" y="1715"/>
      <point x="381" y="1715" type="curve" smooth="yes"/>
      <point x="466" y="1715"/>
      <point x="588" y="1695"/>
      <point x="588" y="1599" type="curve" smooth="yes"/>
      <point x="588" y="1499"/>
      <point x="529" y="1487"/>
      <point x="419" y="1478" type="curve" smooth="yes"/>
      <point x="386" y="1476"/>
      <point x="323" y="1476"/>
      <point x="288" y="1477" type="curve"/>
      <point x="288" y="1311" type="line"/>
      <point x="328" y="1313"/>
      <point x="389" y="1315"/>
      <point x="427" y="1315" type="curve" smooth="yes"/>
      <point x="528" y="1314"/>
      <point x="593" y="1270"/>
      <point x="593" y="1185" type="curve" smooth="yes"/>
      <point x="593" y="1092"/>
      <point x="526" y="1050"/>
      <point x="374" y="1050" type="curve" smooth="yes"/>
      <point x="300" y="1050"/>
      <point x="194" y="1084"/>
      <point x="128" y="1138" type="curve"/>
    </contour>
  </outline>
</glyph>
<glyph name="paragraph" format="1">
  <advance width="1273"/>
  <unicode hex="00B6"/>
  <outline>
    <contour>
      <point x="506" y="1" type="line"/>
      <point x="705" y="0" type="line"/>
      <point x="705" y="1438" type="line"/>
      <point x="861" y="1438" type="line"/>
      <point x="861" y="1" type="line"/>
      <point x="1060" y="0" type="line"/>
      <point x="1060" y="1458" type="line"/>
      <point x="1176" y="1458" type="line"/>
      <point x="1176" y="1592" type="line"/>
      <point x="549" y="1592" type="line" smooth="yes"/>
      <point x="209" y="1592"/>
      <point x="81" y="1394"/>
      <point x="81" y="1161" type="curve" smooth="yes"/>
      <point x="81" y="916"/>
      <point x="259" y="726"/>
      <point x="506" y="726" type="curve"/>
    </contour>
  </outline>
</glyph>
<glyph name="cedilla" format="1">
  <advance width="1096"/>
  <unicode hex="00B8"/>
  <outline>
    <contour>
      <point x="440" y="-210" type="line"/>
      <point x="513" y="-198"/>
      <point x="633" y="-201"/>
      <point x="639" y="-299" type="curve" smooth="yes"/>
      <point x="642" y="-345"/>
      <point x="598" y="-390"/>
      <point x="525" y="-393" type="curve" smooth="yes"/>
      <point x="477" y="-397"/>
      <point x="432" y="-381"/>
      <point x="372" y="-350" type="curve"/>
      <point x="329" y="-477" type="line"/>
      <point x="361" y="-506"/>
      <point x="445" y="-555"/>
      <point x="529" y="-555" type="curve" smooth="yes"/>
      <point x="691" y="-555"/>
      <point x="850" y="-522"/>
      <point x="850" y="-322" type="curve" smooth="yes"/>
      <point x="850" y="-215"/>
      <point x="758" y="-117"/>
      <point x="636" y="-116" type="curve"/>
      <point x="675" y="32" type="line"/>
      <point x="492" y="32" type="line"/>
    </contour>
    <contour>
      <point x="572" y="-170" type="move" name="_btm"/>
    </contour>
  </outline>
</glyph>
<glyph name="one.superior" format="1">
  <advance width="676"/>
  <unicode hex="00B9"/>
  <outline>
    <contour>
      <point x="214" y="865" type="line"/>
      <point x="461" y="865" type="line"/>
      <point x="461" y="1898" type="line"/>
      <point x="214" y="1793" type="line"/>
    </contour>
  </outline>
</glyph>
<glyph name="ordmasculine" format="1">
  <advance width="1030"/>
  <unicode hex="00BA"/>
  <outline>
    <contour>
      <point x="498" y="862" type="curve" smooth="yes"/>
      <point x="757" y="862"/>
      <point x="877" y="1060"/>
      <point x="877" y="1282" type="curve" smooth="yes"/>
      <point x="877" y="1497"/>
      <point x="763" y="1689"/>
      <point x="498" y="1689" type="curve" smooth="yes"/>
      <point x="237" y="1689"/>
      <point x="115" y="1499"/>
      <point x="115" y="1278" type="curve" smooth="yes"/>
      <point x="115" y="1066"/>
      <point x="235" y="862"/>
    </contour>
    <contour>
      <point x="498" y="1014" type="curve" smooth="yes"/>
      <point x="399" y="1014"/>
      <point x="352" y="1137"/>
      <point x="352" y="1285" type="curve" smooth="yes"/>
      <point x="352" y="1441"/>
      <point x="408" y="1536"/>
      <point x="498" y="1536" type="curve" smooth="yes"/>
      <point x="599" y="1536"/>
      <point x="640" y="1429"/>
      <point x="640" y="1285" type="curve" smooth="yes"/>
      <point x="640" y="1123"/>
      <point x="588" y="1014"/>
    </contour>
  </outline>
</glyph>
<glyph name="onequarter" format="1">
  <advance width="1973"/>
  <unicode hex="00BC"/>
  <outline>
    <contour>
      <point x="1452" y="0" type="line"/>
      <point x="1675" y="0" type="line"/>
      <point x="1675" y="778" type="line"/>
      <point x="1489" y="778" type="line"/>
      <point x="1452" y="216" type="line"/>
    </contour>
    <contour>
      <point x="912" y="223" type="line"/>
      <point x="1833" y="223" type="line"/>
      <point x="1833" y="369" type="line"/>
      <point x="1211" y="369" type="line"/>
      <point x="1376" y="1021" type="line"/>
      <point x="1151" y="1021" type="line"/>
    </contour>
    <contour>
      <point x="216" y="0" type="line"/>
      <point x="451" y="0" type="line"/>
      <point x="1240" y="1608" type="line"/>
      <point x="1004" y="1608" type="line"/>
    </contour>
    <contour>
      <point x="200" y="865" type="line"/>
      <point x="447" y="865" type="line"/>
      <point x="447" y="1898" type="line"/>
      <point x="200" y="1793" type="line"/>
    </contour>
  </outline>
</glyph>
<glyph name="onehalf" format="1">
  <advance width="1973"/>
  <unicode hex="00BD"/>
  <outline>
    <contour>
      <point x="216" y="0" type="line"/>
      <point x="451" y="0" type="line"/>
      <point x="1240" y="1608" type="line"/>
      <point x="1004" y="1608" type="line"/>
    </contour>
    <contour>
      <point x="1025" y="0" type="curve"/>
      <point x="1803" y="0" type="line"/>
      <point x="1803" y="205" type="line"/>
      <point x="1173" y="205" type="line"/>
      <point x="1278" y="114" type="line"/>
      <point x="1278" y="176"/>
      <point x="1252" y="246"/>
      <point x="1407" y="317" type="curve" smooth="yes"/>
      <point x="1642" y="424"/>
      <point x="1786" y="488"/>
      <point x="1786" y="694" type="curve" smooth="yes"/>
      <point x="1786" y="940"/>
      <point x="1606" y="1033"/>
      <point x="1388" y="1033" type="curve" smooth="yes"/>
      <point x="1134" y="1033"/>
      <point x="1002" y="864"/>
      <point x="984" y="750" type="curve"/>
      <point x="1201" y="670" type="line"/>
      <point x="1207" y="802"/>
      <point x="1290" y="845"/>
      <point x="1376" y="845" type="curve" smooth="yes"/>
      <point x="1449" y="845"/>
      <point x="1536" y="814"/>
      <point x="1536" y="706" type="curve" smooth="yes"/>
      <point x="1536" y="623"/>
      <point x="1452" y="548"/>
      <point x="1284" y="476" type="curve" smooth="yes"/>
      <point x="1025" y="363"/>
      <point x="982" y="199"/>
    </contour>
    <contour>
      <point x="200" y="865" type="line"/>
      <point x="447" y="865" type="line"/>
      <point x="447" y="1898" type="line"/>
      <point x="200" y="1793" type="line"/>
    </contour>
  </outline>
</glyph>
<glyph name="threequarters" format="1">
  <advance width="2291"/>
  <unicode hex="00BE"/>
  <outline>
    <contour>
      <point x="1770" y="0" type="line"/>
      <point x="1993" y="0" type="line"/>
      <point x="1993" y="778" type="line"/>
      <point x="1807" y="778" type="line"/>
      <point x="1770" y="216" type="line"/>
    </contour>
    <contour>
      <point x="1230" y="223" type="line"/>
      <point x="2151" y="223" type="line"/>
      <point x="2151" y="369" type="line"/>
      <point x="1529" y="369" type="line"/>
      <point x="1694" y="1021" type="line"/>
      <point x="1469" y="1021" type="line"/>
    </contour>
    <contour>
      <point x="534" y="0" type="line"/>
      <point x="769" y="0" type="line"/>
      <point x="1558" y="1608" type="line"/>
      <point x="1322" y="1608" type="line"/>
    </contour>
    <contour>
      <point x="170" y="961" type="line"/>
      <point x="275" y="900"/>
      <point x="401" y="874"/>
      <point x="539" y="874" type="curve" smooth="yes"/>
      <point x="791" y="874"/>
      <point x="960" y="971"/>
      <point x="960" y="1188" type="curve" smooth="yes"/>
      <point x="960" y="1301"/>
      <point x="898" y="1392"/>
      <point x="773" y="1418" type="curve"/>
      <point x="878" y="1457"/>
      <point x="923" y="1532"/>
      <point x="923" y="1634" type="curve" smooth="yes"/>
      <point x="923" y="1813"/>
      <point x="803" y="1915"/>
      <point x="549" y="1915" type="curve" smooth="yes"/>
      <point x="399" y="1915"/>
      <point x="247" y="1876"/>
      <point x="170" y="1823" type="curve"/>
      <point x="248" y="1647" type="line"/>
      <point x="309" y="1698"/>
      <point x="404" y="1732"/>
      <point x="480" y="1732" type="curve" smooth="yes"/>
      <point x="565" y="1732"/>
      <point x="687" y="1712"/>
      <point x="687" y="1616" type="curve" smooth="yes"/>
      <point x="687" y="1516"/>
      <point x="628" y="1504"/>
      <point x="518" y="1495" type="curve" smooth="yes"/>
      <point x="485" y="1493"/>
      <point x="422" y="1493"/>
      <point x="387" y="1494" type="curve"/>
      <point x="387" y="1328" type="line"/>
      <point x="427" y="1330"/>
      <point x="488" y="1332"/>
      <point x="526" y="1332" type="curve" smooth="yes"/>
      <point x="627" y="1331"/>
      <point x="692" y="1287"/>
      <point x="692" y="1202" type="curve" smooth="yes"/>
      <point x="692" y="1109"/>
      <point x="625" y="1067"/>
      <point x="473" y="1067" type="curve" smooth="yes"/>
      <point x="399" y="1067"/>
      <point x="293" y="1101"/>
      <point x="227" y="1155" type="curve"/>
    </contour>
  </outline>
</glyph>
<glyph name="AE" format="1">
  <advance width="1722"/>
  <unicode hex="00C6"/>
  <outline>
    <contour>
      <point x="10" y="0" type="line"/>
      <point x="302" y="0" type="line"/>
      <point x="854" y="1050" type="line"/>
      <point x="882" y="1428" type="line"/>
      <point x="807" y="1428" type="line"/>
    </contour>
    <contour>
      <point x="848" y="0" type="line"/>
      <point x="1641" y="0" type="line"/>
      <point x="1641" y="225" type="line"/>
      <point x="1085" y="225" type="line"/>
      <point x="1119" y="187" type="line"/>
      <point x="1119" y="738" type="line"/>
      <point x="1081" y="703" type="line"/>
      <point x="1528" y="703" type="line"/>
      <point x="1528" y="920" type="line"/>
      <point x="1081" y="920" type="line"/>
      <point x="1119" y="886" type="line"/>
      <point x="1119" y="1250" type="line"/>
      <point x="1085" y="1221" type="line"/>
      <point x="1600" y="1221" type="line"/>
      <point x="1600" y="1428" type="line"/>
      <point x="848" y="1428" type="line"/>
    </contour>
    <contour>
      <point x="298" y="257" type="line"/>
      <point x="1080" y="257" type="line"/>
      <point x="1080" y="427" type="line"/>
      <point x="298" y="427" type="line"/>
    </contour>
    <contour>
      <point x="1043" y="1700" type="move" name="top"/>
    </contour>
  </outline>
</glyph>
<glyph name="multiply" format="1">
  <advance width="1198"/>
  <unicode hex="00D7"/>
  <outline>
    <contour>
      <point x="156" y="318" type="line"/>
      <point x="313" y="162" type="line"/>
      <point x="624" y="494" type="line"/>
      <point x="559" y="483" type="line"/>
      <point x="875" y="160" type="line"/>
      <point x="1017" y="302" type="line"/>
      <point x="702" y="623" type="line"/>
      <point x="692" y="561" type="line"/>
      <point x="997" y="886" type="line"/>
      <point x="841" y="1042" type="line"/>
      <point x="537" y="719" type="line"/>
      <point x="593" y="728" type="line"/>
      <point x="284" y="1042" type="line"/>
      <point x="142" y="901" type="line"/>
      <point x="450" y="584" type="line"/>
      <point x="467" y="649" type="line"/>
    </contour>
  </outline>
</glyph>
<glyph name="Oslash" format="1">
  <advance width="1328"/>
  <unicode hex="00D8"/>
  <outline>
    <contour>
      <point x="139" y="-46" type="line"/>
      <point x="260" y="-122" type="line"/>
      <point x="408" y="126" type="line"/>
      <point x="434" y="181" type="line"/>
      <point x="977" y="1229" type="line"/>
      <point x="1019" y="1265" type="line"/>
      <point x="1146" y="1494" type="line"/>
      <point x="1025" y="1566" type="line"/>
      <point x="902" y="1354" type="line"/>
      <point x="871" y="1268" type="line"/>
      <point x="355" y="251" type="line"/>
      <point x="311" y="243" type="line"/>
    </contour>
    <component base="O" xOffset="-10"/>
  </outline>
</glyph>
<glyph name="Thorn" format="1">
  <advance width="1136"/>
  <unicode hex="00DE"/>
  <outline>
    <contour>
      <point x="165" y="0" type="line"/>
      <point x="431" y="0" type="line"/>
      <point x="431" y="281" type="line"/>
      <point x="400" y="177" type="line"/>
      <point x="527" y="177" type="line" smooth="yes"/>
      <point x="945" y="177"/>
      <point x="1099" y="463"/>
      <point x="1099" y="724" type="curve" smooth="yes"/>
      <point x="1099" y="1094"/>
      <point x="839" y="1246"/>
      <point x="519" y="1246" type="curve" smooth="yes"/>
      <point x="165" y="1246" type="line"/>
    </contour>
    <contour>
      <point x="394" y="384" type="line"/>
      <point x="431" y="360" type="line"/>
      <point x="431" y="1075" type="line"/>
      <point x="399" y="1039" type="line"/>
      <point x="533" y="1039" type="line" smooth="yes"/>
      <point x="762" y="1039"/>
      <point x="835" y="914"/>
      <point x="835" y="711" type="curve" smooth="yes"/>
      <point x="835" y="511"/>
      <point x="762" y="384"/>
      <point x="533" y="384" type="curve" smooth="yes"/>
    </contour>
    <contour>
      <point x="431" y="1051" type="line"/>
      <point x="431" y="1427" type="line"/>
      <point x="165" y="1427" type="line"/>
      <point x="165" y="1246" type="line"/>
    </contour>
  </outline>
</glyph>
<glyph name="germandbls" format="1">
  <advance width="1209"/>
  <unicode hex="00DF"/>
  <outline>
    <contour>
      <point x="526" y="38" type="line"/>
      <point x="565" y="10"/>
      <point x="647" y="-35"/>
      <point x="793" y="-35" type="curve" smooth="yes"/>
      <point x="1054" y="-35"/>
      <point x="1197" y="174"/>
      <point x="1197" y="458" type="curve" smooth="yes"/>
      <point x="1197" y="691"/>
      <point x="1050" y="869"/>
      <point x="804" y="893" type="curve"/>
      <point x="804" y="856" type="line"/>
      <point x="962" y="856"/>
      <point x="1050" y="1038"/>
      <point x="1050" y="1230" type="curve" smooth="yes"/>
      <point x="1050" y="1439"/>
      <point x="934" y="1608"/>
      <point x="631" y="1608" type="curve" smooth="yes"/>
      <point x="436" y="1608"/>
      <point x="191" y="1520"/>
      <point x="191" y="1181" type="curve" smooth="yes"/>
      <point x="191" y="-170" type="line"/>
      <point x="452" y="-170" type="line"/>
      <point x="452" y="1202" type="line" smooth="yes"/>
      <point x="452" y="1298"/>
      <point x="496" y="1407"/>
      <point x="619" y="1407" type="curve" smooth="yes"/>
      <point x="700" y="1407"/>
      <point x="785" y="1361"/>
      <point x="785" y="1200" type="curve" smooth="yes"/>
      <point x="785" y="1002"/>
      <point x="707" y="920"/>
      <point x="621" y="920" type="curve"/>
      <point x="621" y="777" type="line"/>
      <point x="821" y="777"/>
      <point x="918" y="625"/>
      <point x="918" y="455" type="curve" smooth="yes"/>
      <point x="918" y="289"/>
      <point x="857" y="157"/>
      <point x="729" y="157" type="curve" smooth="yes"/>
      <point x="657" y="157"/>
      <point x="612" y="193"/>
      <point x="596" y="208" type="curve"/>
    </contour>
    <contour>
      <point x="53" y="1020" type="line"/>
      <point x="53" y="848" type="line"/>
      <point x="231" y="848" type="line"/>
      <point x="231" y="848"/>
      <point x="231" y="1020"/>
      <point x="231" y="1020" type="curve"/>
    </contour>
  </outline>
</glyph>
<glyph name="ae" format="1">
  <advance width="1718"/>
  <unicode hex="00E6"/>
  <outline>
    <contour>
      <point x="95" y="508" type="curve" smooth="yes"/>
      <point x="95" y="215"/>
      <point x="250" y="-30"/>
      <point x="499" y="-30" type="curve" smooth="yes"/>
      <point x="619" y="-30"/>
      <point x="727" y="52"/>
      <point x="769" y="159" type="curve"/>
      <point x="769" y="0" type="line"/>
      <point x="995" y="0" type="line"/>
      <point x="995" y="1020" type="line"/>
      <point x="769" y="1020" type="line"/>
      <point x="770" y="1009"/>
      <point x="769" y="883"/>
      <point x="769" y="871" type="curve"/>
      <point x="727" y="993"/>
      <point x="598" y="1044"/>
      <point x="502" y="1044" type="curve" smooth="yes"/>
      <point x="230" y="1044"/>
      <point x="95" y="813"/>
    </contour>
    <contour>
      <point x="359" y="508" type="curve" smooth="yes"/>
      <point x="359" y="749"/>
      <point x="470" y="838"/>
      <point x="565" y="838" type="curve" smooth="yes"/>
      <point x="687" y="838"/>
      <point x="757" y="706"/>
      <point x="757" y="504" type="curve" smooth="yes"/>
      <point x="757" y="280"/>
      <point x="653" y="175"/>
      <point x="560" y="175" type="curve" smooth="yes"/>
      <point x="447" y="175"/>
      <point x="359" y="293"/>
    </contour>
    <contour>
      <point x="1211" y="-36" type="curve" smooth="yes"/>
      <point x="1413" y="-36"/>
      <point x="1524" y="22"/>
      <point x="1580" y="60" type="curve"/>
      <point x="1482" y="253" type="line"/>
      <point x="1436" y="200"/>
      <point x="1339" y="158"/>
      <point x="1254" y="157" type="curve"/>
      <point x="1088" y="157"/>
      <point x="1011" y="265"/>
      <point x="1004" y="427" type="curve"/>
      <point x="1617" y="427" type="line"/>
      <point x="1619" y="457"/>
      <point x="1619" y="494"/>
      <point x="1619" y="522" type="curve" smooth="yes"/>
      <point x="1619" y="806"/>
      <point x="1508" y="1044"/>
      <point x="1202" y="1044" type="curve" smooth="yes"/>
      <point x="936" y="1044"/>
      <point x="812" y="794"/>
      <point x="812" y="497" type="curve" smooth="yes"/>
      <point x="812" y="215"/>
      <point x="907" y="-36"/>
    </contour>
    <contour>
      <point x="1005" y="586" type="line"/>
      <point x="1013" y="732"/>
      <point x="1064" y="849"/>
      <point x="1202" y="849" type="curve" smooth="yes"/>
      <point x="1286" y="849"/>
      <point x="1362" y="780"/>
      <point x="1362" y="587" type="curve"/>
    </contour>
    <contour>
      <point x="877" y="1700" type="move" name="top"/>
    </contour>
  </outline>
</glyph>
<glyph name="eth" format="1">
  <advance width="1142"/>
  <unicode hex="00F0"/>
  <outline>
    <contour>
      <point x="458" y="1150" type="line"/>
      <point x="608" y="1352" type="line"/>
      <point x="663" y="1417" type="line"/>
      <point x="783" y="1585" type="line"/>
      <point x="639" y="1678" type="line"/>
      <point x="518" y="1511" type="line"/>
      <point x="454" y="1424" type="line"/>
      <point x="319" y="1240" type="line"/>
    </contour>
    <contour>
      <point x="100" y="496" type="curve" smooth="yes"/>
      <point x="100" y="193"/>
      <point x="311" y="-34"/>
      <point x="562" y="-34" type="curve" smooth="yes"/>
      <point x="835" y="-34"/>
      <point x="1052" y="145"/>
      <point x="1052" y="606" type="curve" smooth="yes"/>
      <point x="1052" y="969"/>
      <point x="879" y="1327"/>
      <point x="622" y="1476" type="curve" smooth="yes"/>
      <point x="595" y="1492"/>
      <point x="568" y="1510"/>
      <point x="539" y="1523" type="curve" smooth="yes"/>
      <point x="453" y="1571"/>
      <point x="359" y="1603"/>
      <point x="262" y="1608" type="curve"/>
      <point x="218" y="1456" type="line"/>
      <point x="302" y="1449"/>
      <point x="383" y="1419"/>
      <point x="461" y="1367" type="curve" smooth="yes"/>
      <point x="485" y="1354"/>
      <point x="506" y="1336"/>
      <point x="528" y="1322" type="curve" smooth="yes"/>
      <point x="658" y="1239"/>
      <point x="757" y="1084"/>
      <point x="774" y="887" type="curve"/>
      <point x="803" y="919" type="line"/>
      <point x="732" y="1001"/>
      <point x="650" y="1046"/>
      <point x="538" y="1046" type="curve" smooth="yes"/>
      <point x="245" y="1046"/>
      <point x="100" y="809"/>
    </contour>
    <contour>
      <point x="375" y="507" type="curve" smooth="yes"/>
      <point x="375" y="690"/>
      <point x="445" y="838"/>
      <point x="578" y="838" type="curve" smooth="yes"/>
      <point x="691" y="838"/>
      <point x="755" y="736"/>
      <point x="775" y="646" type="curve"/>
      <point x="781" y="602"/>
      <point x="781" y="566"/>
      <point x="781" y="515" type="curve" smooth="yes"/>
      <point x="781" y="322"/>
      <point x="711" y="174"/>
      <point x="577" y="174" type="curve" smooth="yes"/>
      <point x="459" y="174"/>
      <point x="375" y="308"/>
    </contour>
  </outline>
</glyph>
<glyph name="divide" format="1">
  <advance width="1110"/>
  <unicode hex="00F7"/>
  <outline>
    <contour>
      <point x="418" y="0" type="line"/>
      <point x="691" y="0" type="line"/>
      <point x="691" y="265" type="line"/>
      <point x="418" y="265" type="line"/>
    </contour>
    <contour>
      <point x="121" y="504" type="line"/>
      <point x="989" y="504" type="line"/>
      <point x="989" y="704" type="line"/>
      <point x="121" y="704" type="line"/>
    </contour>
    <contour>
      <point x="418" y="946" type="line"/>
      <point x="691" y="946" type="line"/>
      <point x="691" y="1211" type="line"/>
      <point x="418" y="1211" type="line"/>
    </contour>
  </outline>
</glyph>
<glyph name="oslash" format="1">
  <advance width="1133"/>
  <unicode hex="00F8"/>
  <outline>
    <contour>
      <point x="100" y="-44" type="line"/>
      <point x="221" y="-124" type="line"/>
      <point x="382" y="126" type="line"/>
      <point x="412" y="181" type="line"/>
      <point x="807" y="808" type="line"/>
      <point x="878" y="844" type="line"/>
      <point x="1025" y="1073" type="line"/>
      <point x="904" y="1151" type="line"/>
      <point x="761" y="933" type="line"/>
      <point x="708" y="847" type="line"/>
      <point x="348" y="251" type="line"/>
      <point x="285" y="243" type="line"/>
    </contour>
    <component base="o" xOffset="-3"/>
  </outline>
</glyph>
<glyph name="thorn" format="1">
  <advance width="1200"/>
  <unicode hex="00FE"/>
  <outline>
    <contour>
      <point x="369" y="119" type="line"/>
      <point x="168" y="123" type="line"/>
      <point x="168" y="-488" type="line"/>
      <point x="426" y="-488" type="line"/>
      <point x="426" y="0" type="line"/>
    </contour>
    <contour>
      <point x="629" y="1700" type="move" name="top"/>
    </contour>
    <component base="b" xOffset="18"/>
  </outline>
</glyph>
<glyph name="Aogonek" format="1">
  <advance width="1207"/>
  <unicode hex="0104"/>
  <outline>
    <contour>
      <point x="739" y="-265" type="curve"/>
      <point x="738" y="-412"/>
      <point x="843" y="-508"/>
      <point x="1041" y="-511" type="curve" smooth="yes"/>
      <point x="1126" y="-512"/>
      <point x="1231" y="-489"/>
      <point x="1265" y="-460" type="curve"/>
      <point x="1232" y="-312" type="line"/>
      <point x="1179" y="-341"/>
      <point x="1099" y="-354"/>
      <point x="1054" y="-353" type="curve" smooth="yes"/>
      <point x="971" y="-352"/>
      <point x="921" y="-304"/>
      <point x="927" y="-234" type="curve" smooth="yes"/>
      <point x="936" y="-119"/>
      <point x="1068" y="-36"/>
      <point x="1214" y="0" type="curve"/>
      <point x="1105" y="67" type="line"/>
      <point x="960" y="20" type="line"/>
      <point x="801" y="-64"/>
      <point x="742" y="-164"/>
    </contour>
    <component base="A" xOffset="3"/>
  </outline>
</glyph>
<glyph name="aogonek" format="1">
  <advance width="1181"/>
  <unicode hex="0105"/>
  <outline>
    <contour>
      <point x="559" y="-265" type="curve"/>
      <point x="558" y="-412"/>
      <point x="663" y="-508"/>
      <point x="861" y="-511" type="curve" smooth="yes"/>
      <point x="946" y="-512"/>
      <point x="1051" y="-489"/>
      <point x="1085" y="-460" type="curve"/>
      <point x="1052" y="-312" type="line"/>
      <point x="999" y="-341"/>
      <point x="919" y="-354"/>
      <point x="874" y="-353" type="curve" smooth="yes"/>
      <point x="791" y="-352"/>
      <point x="741" y="-304"/>
      <point x="747" y="-234" type="curve" smooth="yes"/>
      <point x="756" y="-119"/>
      <point x="888" y="-36"/>
      <point x="1034" y="0" type="curve"/>
      <point x="925" y="67" type="line"/>
      <point x="780" y="20" type="line"/>
      <point x="621" y="-64"/>
      <point x="562" y="-164"/>
    </contour>
    <component base="a" xOffset="15"/>
  </outline>
</glyph>
<glyph name="dcroat" format="1">
  <advance width="1190"/>
  <unicode hex="0111"/>
  <outline>
    <contour>
      <point x="630" y="1265" type="line"/>
      <point x="1133" y="1265" type="line"/>
      <point x="1134" y="1391" type="line"/>
      <point x="631" y="1391" type="line"/>
    </contour>
    <component base="d" xOffset="19"/>
  </outline>
</glyph>
<glyph name="Eogonek" format="1">
  <advance width="1024"/>
  <unicode hex="0118"/>
  <outline>
    <contour>
      <point x="468" y="-265" type="curve"/>
      <point x="467" y="-412"/>
      <point x="572" y="-508"/>
      <point x="770" y="-511" type="curve" smooth="yes"/>
      <point x="855" y="-512"/>
      <point x="960" y="-489"/>
      <point x="994" y="-460" type="curve"/>
      <point x="961" y="-312" type="line"/>
      <point x="908" y="-341"/>
      <point x="828" y="-354"/>
      <point x="783" y="-353" type="curve" smooth="yes"/>
      <point x="700" y="-352"/>
      <point x="650" y="-304"/>
      <point x="656" y="-234" type="curve" smooth="yes"/>
      <point x="665" y="-119"/>
      <point x="797" y="-36"/>
      <point x="943" y="0" type="curve"/>
      <point x="834" y="67" type="line"/>
      <point x="689" y="20" type="line"/>
      <point x="530" y="-64"/>
      <point x="471" y="-164"/>
    </contour>
    <component base="E" xOffset="-10"/>
  </outline>
</glyph>
<glyph name="eogonek" format="1">
  <advance width="1086"/>
  <unicode hex="0119"/>
  <outline>
    <contour>
      <point x="412" y="-255" type="curve" smooth="yes"/>
      <point x="409" y="-402"/>
      <point x="526" y="-508"/>
      <point x="724" y="-511" type="curve" smooth="yes"/>
      <point x="809" y="-512"/>
      <point x="914" y="-489"/>
      <point x="948" y="-460" type="curve"/>
      <point x="915" y="-292" type="line"/>
      <point x="862" y="-321"/>
      <point x="782" y="-334"/>
      <point x="737" y="-333" type="curve" smooth="yes"/>
      <point x="654" y="-332"/>
      <point x="611" y="-284"/>
      <point x="610" y="-214" type="curve" smooth="yes"/>
      <point x="609" y="-129"/>
      <point x="724" y="-72"/>
      <point x="948" y="60" type="curve"/>
      <point x="788" y="67" type="line"/>
      <point x="643" y="0" type="line"/>
      <point x="484" y="-64"/>
      <point x="414" y="-154"/>
    </contour>
    <component base="e" xOffset="2"/>
  </outline>
</glyph>
<glyph name="Hbar" format="1">
  <advance width="1322"/>
  <unicode hex="0126"/>
  <outline>
    <contour>
      <point x="155" y="0" type="line"/>
      <point x="441" y="0" type="line"/>
      <point x="441" y="574" type="line"/>
      <point x="406" y="544" type="line"/>
      <point x="915" y="544" type="line"/>
      <point x="883" y="574" type="line"/>
      <point x="883" y="0" type="line"/>
      <point x="1167" y="0" type="line"/>
      <point x="1167" y="1428" type="line"/>
      <point x="883" y="1428" type="line"/>
      <point x="883" y="702" type="line"/>
      <point x="913" y="738" type="line"/>
      <point x="406" y="738" type="line"/>
      <point x="441" y="704" type="line"/>
      <point x="441" y="1428" type="line"/>
      <point x="155" y="1428" type="line"/>
    </contour>
    <contour>
      <point x="28" y="1021" type="line"/>
      <point x="1293" y="1021" type="line"/>
      <point x="1293" y="1195" type="line"/>
      <point x="28" y="1195" type="line"/>
    </contour>
  </outline>
</glyph>
<glyph name="Iogonek" format="1">
  <advance width="576"/>
  <unicode hex="012E"/>
  <outline>
    <contour>
      <point x="-47" y="-265" type="curve"/>
      <point x="-48" y="-412"/>
      <point x="57" y="-508"/>
      <point x="255" y="-511" type="curve" smooth="yes"/>
      <point x="340" y="-512"/>
      <point x="445" y="-489"/>
      <point x="479" y="-460" type="curve"/>
      <point x="446" y="-312" type="line"/>
      <point x="393" y="-341"/>
      <point x="313" y="-354"/>
      <point x="268" y="-353" type="curve" smooth="yes"/>
      <point x="185" y="-352"/>
      <point x="135" y="-304"/>
      <point x="141" y="-234" type="curve" smooth="yes"/>
      <point x="150" y="-119"/>
      <point x="282" y="-36"/>
      <point x="428" y="0" type="curve"/>
      <point x="319" y="67" type="line"/>
      <point x="174" y="20" type="line"/>
      <point x="15" y="-64"/>
      <point x="-44" y="-164"/>
    </contour>
    <component base="I" xOffset="-5"/>
  </outline>
</glyph>
<glyph name="iogonek" format="1">
  <advance width="575"/>
  <unicode hex="012F"/>
  <outline>
    <contour>
      <point x="-46" y="-265" type="curve"/>
      <point x="-47" y="-412"/>
      <point x="58" y="-508"/>
      <point x="256" y="-511" type="curve" smooth="yes"/>
      <point x="341" y="-512"/>
      <point x="446" y="-489"/>
      <point x="480" y="-460" type="curve"/>
      <point x="447" y="-312" type="line"/>
      <point x="394" y="-341"/>
      <point x="314" y="-354"/>
      <point x="269" y="-353" type="curve" smooth="yes"/>
      <point x="186" y="-352"/>
      <point x="136" y="-304"/>
      <point x="142" y="-234" type="curve" smooth="yes"/>
      <point x="151" y="-119"/>
      <point x="283" y="-36"/>
      <point x="429" y="0" type="curve"/>
      <point x="320" y="67" type="line"/>
      <point x="175" y="20" type="line"/>
      <point x="16" y="-64"/>
      <point x="-43" y="-164"/>
    </contour>
  </outline>
</glyph>
<glyph name="dotlessi" format="1">
  <advance width="583"/>
  <unicode hex="0131"/>
  <outline>
    <contour>
      <point x="155" y="0" type="line"/>
      <point x="428" y="0" type="line"/>
      <point x="428" y="1020" type="line"/>
      <point x="155" y="1020" type="line"/>
    </contour>
    <contour>
      <point x="286" y="1704" type="move" name="top"/>
    </contour>
  </outline>
</glyph>
<glyph name="kgreenlandic" format="1">
  <advance width="1047"/>
  <unicode hex="0138"/>
  <outline>
    <contour>
      <point x="164" y="0" type="line"/>
      <point x="441" y="0" type="line"/>
      <point x="441" y="388" type="line"/>
      <point x="733" y="0" type="line"/>
      <point x="1074" y="0" type="line"/>
      <point x="661" y="536" type="line"/>
      <point x="1034" y="1020" type="line"/>
      <point x="709" y="1020" type="line"/>
      <point x="441" y="632" type="line"/>
      <point x="441" y="1020" type="line"/>
      <point x="164" y="1020" type="line"/>
    </contour>
  </outline>
</glyph>
<glyph name="lacute" format="1">
  <advance width="585"/>
  <unicode hex="013A"/>
  <outline>
    <contour>
      <point x="154" y="0" type="line"/>
      <point x="430" y="0" type="line"/>
      <point x="430" y="1428" type="line"/>
      <point x="154" y="1428" type="line"/>
    </contour>
    <component base="acute.cap" xOffset="292" yOffset="27"/>
  </outline>
</glyph>
<glyph name="lcaron" format="1">
  <advance width="736"/>
  <unicode hex="013E"/>
  <outline>
    <contour>
      <point x="544" y="1061" type="curve"/>
      <point x="725" y="1061" type="line"/>
      <point x="740" y="1096"/>
      <point x="794" y="1200"/>
      <point x="794" y="1431" type="curve" smooth="yes"/>
      <point x="794" y="1470"/>
      <point x="793" y="1534"/>
      <point x="787" y="1576" type="curve"/>
      <point x="570" y="1576" type="line"/>
      <point x="576" y="1521"/>
      <point x="578" y="1493"/>
      <point x="578" y="1374" type="curve" smooth="yes"/>
      <point x="578" y="1258"/>
      <point x="563" y="1119"/>
    </contour>
    <component base="l" xOffset="1"/>
  </outline>
</glyph>
<glyph name="ldot" format="1">
  <advance width="863"/>
  <unicode hex="0140"/>
  <outline>
    <contour>
      <point x="581" y="683" type="line"/>
      <point x="854" y="683" type="line"/>
      <point x="854" y="948" type="line"/>
      <point x="581" y="948" type="line"/>
    </contour>
    <component base="l" xOffset="1"/>
  </outline>
</glyph>
<glyph name="Lslash" format="1">
  <advance width="876"/>
  <unicode hex="0141"/>
  <outline>
    <contour>
      <point x="1" y="527" type="line"/>
      <point x="716" y="824" type="line"/>
      <point x="716" y="1011" type="line"/>
      <point x="1" y="714" type="line"/>
    </contour>
    <component base="L" xOffset="-10"/>
  </outline>
</glyph>
<glyph name="lslash" format="1">
  <advance width="575"/>
  <unicode hex="0142"/>
  <outline>
    <contour>
      <point x="4" y="600" type="line"/>
      <point x="582" y="870" type="line"/>
      <point x="582" y="1057" type="line"/>
      <point x="4" y="787" type="line"/>
    </contour>
    <component base="l" xOffset="1"/>
  </outline>
</glyph>
<glyph name="Eng" format="1">
  <advance width="1320"/>
  <unicode hex="014A"/>
  <outline>
    <contour>
      <point x="155" y="0" type="line"/>
      <point x="416" y="0" type="line"/>
      <point x="416" y="1033" type="line"/>
      <point x="253" y="975" type="line"/>
      <point x="1165" y="-123" type="line"/>
      <point x="1165" y="1428" type="line"/>
      <point x="904" y="1428" type="line"/>
      <point x="904" y="388" type="line"/>
      <point x="1056" y="380" type="line"/>
      <point x="155" y="1464" type="line"/>
    </contour>
    <contour>
      <point x="904" y="317" type="line"/>
      <point x="904" y="317"/>
      <point x="904" y="-148"/>
      <point x="904" y="-148" type="curve"/>
      <point x="904" y="-234"/>
      <point x="855" y="-296"/>
      <point x="719" y="-296" type="curve" smooth="yes"/>
      <point x="667" y="-296"/>
      <point x="607" y="-265"/>
      <point x="571" y="-214" type="curve"/>
      <point x="473" y="-458" type="line"/>
      <point x="523" y="-492"/>
      <point x="679" y="-522"/>
      <point x="752" y="-522" type="curve" smooth="yes"/>
      <point x="1042" y="-522"/>
      <point x="1165" y="-342"/>
      <point x="1165" y="-123" type="curve"/>
    </contour>
  </outline>
</glyph>
<glyph name="eng" format="1">
  <advance width="1180"/>
  <unicode hex="014B"/>
  <outline>
    <contour>
      <point x="1033" y="673" type="line"/>
      <point x="1033" y="906"/>
      <point x="924" y="1045"/>
      <point x="717" y="1045" type="curve" smooth="yes"/>
      <point x="527" y="1045"/>
      <point x="435" y="937"/>
      <point x="387" y="845" type="curve"/>
      <point x="420" y="805" type="line"/>
      <point x="411" y="1020" type="line"/>
      <point x="164" y="1020" type="line"/>
      <point x="164" y="0" type="line"/>
      <point x="435" y="0" type="line"/>
      <point x="435" y="652" type="line" smooth="yes"/>
      <point x="435" y="764"/>
      <point x="516" y="842"/>
      <point x="614" y="842" type="curve" smooth="yes"/>
      <point x="711" y="842"/>
      <point x="762" y="764"/>
      <point x="762" y="652" type="curve" smooth="yes"/>
      <point x="762" y="-144" type="line"/>
      <point x="760" y="-240"/>
      <point x="741" y="-350"/>
      <point x="658" y="-350" type="curve" smooth="yes"/>
      <point x="605" y="-350"/>
      <point x="527" y="-324"/>
      <point x="473" y="-291" type="curve"/>
      <point x="441" y="-491" type="line"/>
      <point x="502" y="-513"/>
      <point x="602" y="-524"/>
      <point x="660" y="-524" type="curve" smooth="yes"/>
      <point x="880" y="-524"/>
      <point x="1026" y="-441"/>
      <point x="1033" y="-153" type="curve"/>
    </contour>
  </outline>
</glyph>
<glyph name="OE" format="1">
  <advance width="1836"/>
  <unicode hex="0152"/>
  <outline>
    <contour>
      <point x="85" y="712" type="curve" smooth="yes"/>
      <point x="85" y="264"/>
      <point x="262" y="-36"/>
      <point x="667" y="-36" type="curve" smooth="yes"/>
      <point x="1062" y="-36"/>
      <point x="1183" y="264"/>
      <point x="1183" y="713" type="curve" smooth="yes"/>
      <point x="1183" y="1150"/>
      <point x="1077" y="1463"/>
      <point x="659" y="1463" type="curve" smooth="yes"/>
      <point x="261" y="1463"/>
      <point x="85" y="1158"/>
    </contour>
    <contour>
      <point x="364" y="716" type="curve" smooth="yes"/>
      <point x="364" y="1040"/>
      <point x="461" y="1248"/>
      <point x="659" y="1248" type="curve" smooth="yes"/>
      <point x="864" y="1248"/>
      <point x="962" y="1041"/>
      <point x="962" y="718" type="curve" smooth="yes"/>
      <point x="962" y="382"/>
      <point x="847" y="183"/>
      <point x="665" y="183" type="curve" smooth="yes"/>
      <point x="472" y="183"/>
      <point x="364" y="380"/>
    </contour>
    <component base="E" xOffset="802"/>
  </outline>
</glyph>
<glyph name="oe" format="1">
  <advance width="1755"/>
  <unicode hex="0153"/>
  <outline>
    <contour>
      <point x="1252" y="-36" type="curve" smooth="yes"/>
      <point x="1454" y="-36"/>
      <point x="1565" y="22"/>
      <point x="1621" y="60" type="curve"/>
      <point x="1523" y="253" type="line"/>
      <point x="1477" y="200"/>
      <point x="1380" y="158"/>
      <point x="1295" y="157" type="curve"/>
      <point x="1129" y="157"/>
      <point x="1052" y="265"/>
      <point x="1045" y="427" type="curve"/>
      <point x="1658" y="427" type="line"/>
      <point x="1660" y="457"/>
      <point x="1660" y="494"/>
      <point x="1660" y="522" type="curve" smooth="yes"/>
      <point x="1660" y="806"/>
      <point x="1549" y="1044"/>
      <point x="1243" y="1044" type="curve" smooth="yes"/>
      <point x="937" y="1044"/>
      <point x="803" y="804"/>
      <point x="803" y="497" type="curve" smooth="yes"/>
      <point x="803" y="205"/>
      <point x="908" y="-36"/>
    </contour>
    <contour>
      <point x="1046" y="586" type="line"/>
      <point x="1054" y="732"/>
      <point x="1105" y="849"/>
      <point x="1243" y="849" type="curve" smooth="yes"/>
      <point x="1327" y="849"/>
      <point x="1400" y="780"/>
      <point x="1400" y="587" type="curve"/>
    </contour>
    <contour>
      <point x="373" y="504" type="curve" smooth="yes"/>
      <point x="373" y="740"/>
      <point x="437" y="849"/>
      <point x="572" y="849" type="curve" smooth="yes"/>
      <point x="706" y="849"/>
      <point x="763" y="721"/>
      <point x="763" y="504" type="curve" smooth="yes"/>
      <point x="763" y="287"/>
      <point x="706" y="157"/>
      <point x="572" y="157" type="curve" smooth="yes"/>
      <point x="437" y="157"/>
      <point x="373" y="268"/>
    </contour>
    <contour>
      <point x="95" y="504" type="curve" smooth="yes"/>
      <point x="95" y="169"/>
      <point x="255" y="-36"/>
      <point x="573" y="-36" type="curve" smooth="yes"/>
      <point x="861" y="-36"/>
      <point x="976" y="180"/>
      <point x="976" y="504" type="curve" smooth="yes"/>
      <point x="976" y="828"/>
      <point x="871" y="1044"/>
      <point x="573" y="1044" type="curve" smooth="yes"/>
      <point x="255" y="1044"/>
      <point x="95" y="839"/>
    </contour>
  </outline>
</glyph>
<glyph name="Tbar" format="1">
  <advance width="987"/>
  <unicode hex="0166"/>
  <outline>
    <contour>
      <point x="142" y="647" type="line"/>
      <point x="893" y="647" type="line"/>
      <point x="893" y="821" type="line"/>
      <point x="142" y="821" type="line"/>
    </contour>
    <component base="T" xOffset="-5"/>
  </outline>
</glyph>
<glyph name="tbar" format="1">
  <advance width="787"/>
  <unicode hex="0167"/>
  <outline>
    <contour>
      <point x="32" y="498" type="line"/>
      <point x="745" y="498" type="line"/>
      <point x="745" y="664" type="line"/>
      <point x="32" y="664" type="line"/>
    </contour>
    <component base="t" xOffset="-5"/>
  </outline>
</glyph>
<glyph name="Uogonek" format="1">
  <advance width="1278"/>
  <unicode hex="0172"/>
  <outline>
    <contour>
      <point x="401" y="-255" type="curve" smooth="yes"/>
      <point x="398" y="-402"/>
      <point x="515" y="-508"/>
      <point x="713" y="-511" type="curve" smooth="yes"/>
      <point x="798" y="-512"/>
      <point x="903" y="-489"/>
      <point x="937" y="-460" type="curve"/>
      <point x="904" y="-292" type="line"/>
      <point x="851" y="-321"/>
      <point x="771" y="-334"/>
      <point x="726" y="-333" type="curve" smooth="yes"/>
      <point x="643" y="-332"/>
      <point x="600" y="-284"/>
      <point x="599" y="-214" type="curve" smooth="yes"/>
      <point x="598" y="-129"/>
      <point x="713" y="-72"/>
      <point x="937" y="60" type="curve"/>
      <point x="777" y="67" type="line"/>
      <point x="632" y="0" type="line"/>
      <point x="473" y="-64"/>
      <point x="403" y="-154"/>
    </contour>
    <component base="U" xOffset="-5"/>
  </outline>
</glyph>
<glyph name="uogonek" format="1">
  <advance width="1136"/>
  <unicode hex="0173"/>
  <outline>
    <contour>
      <point x="331" y="-255" type="curve" smooth="yes"/>
      <point x="328" y="-402"/>
      <point x="445" y="-508"/>
      <point x="643" y="-511" type="curve" smooth="yes"/>
      <point x="728" y="-512"/>
      <point x="833" y="-489"/>
      <point x="867" y="-460" type="curve"/>
      <point x="834" y="-292" type="line"/>
      <point x="781" y="-321"/>
      <point x="701" y="-334"/>
      <point x="656" y="-333" type="curve" smooth="yes"/>
      <point x="573" y="-332"/>
      <point x="530" y="-284"/>
      <point x="529" y="-214" type="curve" smooth="yes"/>
      <point x="528" y="-129"/>
      <point x="643" y="-72"/>
      <point x="867" y="60" type="curve"/>
      <point x="707" y="67" type="line"/>
      <point x="562" y="0" type="line"/>
      <point x="403" y="-64"/>
      <point x="333" y="-154"/>
    </contour>
    <component base="u" xOffset="-16"/>
  </outline>
</glyph>
<glyph name="uni018F" format="1">
  <advance width="1265"/>
  <unicode hex="018F"/>
  <outline>
    <contour>
      <point x="588" y="1227" type="curve" smooth="yes"/>
      <point x="784" y="1227"/>
      <point x="910" y="1045"/>
      <point x="910" y="738" type="curve" smooth="yes"/>
      <point x="910" y="408"/>
      <point x="809" y="183"/>
      <point x="579" y="183" type="curve" smooth="yes"/>
      <point x="411" y="183"/>
      <point x="336" y="289"/>
      <point x="336" y="485" type="curve" smooth="yes"/>
      <point x="336" y="496"/>
      <point x="337" y="567"/>
      <point x="338" y="579" type="curve"/>
      <point x="225" y="521" type="line"/>
      <point x="1065" y="521" type="line"/>
      <point x="1065" y="736" type="line"/>
      <point x="80" y="736" type="line"/>
      <point x="80" y="593" type="line"/>
      <point x="80" y="146"/>
      <point x="268" y="-36"/>
      <point x="586" y="-36" type="curve" smooth="yes"/>
      <point x="986" y="-36"/>
      <point x="1196" y="268"/>
      <point x="1196" y="738" type="curve" smooth="yes"/>
      <point x="1196" y="1198"/>
      <point x="974" y="1463"/>
      <point x="605" y="1463" type="curve" smooth="yes"/>
      <point x="358" y="1463"/>
      <point x="210" y="1368"/>
      <point x="148" y="1322" type="curve"/>
      <point x="263" y="1113" type="line"/>
      <point x="374" y="1192"/>
      <point x="456" y="1227"/>
    </contour>
    <contour>
      <point x="655" y="1700" type="move" name="top"/>
    </contour>
  </outline>
</glyph>
<glyph name="florin" format="1">
  <advance width="745"/>
  <unicode hex="0192"/>
  <outline>
    <contour>
      <point x="116" y="-204" type="line"/>
      <point x="391" y="-204" type="line"/>
      <point x="453" y="836" type="line"/>
      <point x="669" y="836" type="line"/>
      <point x="680" y="1008" type="line"/>
      <point x="464" y="1008" type="line"/>
      <point x="466" y="1043"/>
      <point x="469" y="1096"/>
      <point x="470" y="1103" type="curve" smooth="yes"/>
      <point x="484" y="1361"/>
      <point x="560" y="1400"/>
      <point x="642" y="1400" type="curve" smooth="yes"/>
      <point x="685" y="1400"/>
      <point x="737" y="1379"/>
      <point x="791" y="1344" type="curve"/>
      <point x="805" y="1550" type="line"/>
      <point x="750" y="1566"/>
      <point x="689" y="1576"/>
      <point x="632" y="1576" type="curve" smooth="yes"/>
      <point x="380" y="1576"/>
      <point x="215" y="1453"/>
      <point x="196" y="1136" type="curve" smooth="yes"/>
      <point x="194" y="1115"/>
      <point x="190" y="1028"/>
      <point x="188" y="1008" type="curve"/>
      <point x="47" y="1008" type="line"/>
      <point x="36" y="836" type="line"/>
      <point x="179" y="836" type="line"/>
    </contour>
  </outline>
</glyph>
<glyph name="dotlessj" format="1">
  <advance width="575"/>
  <unicode hex="0237"/>
  <outline>
    <contour>
      <point x="158" y="-135" type="line"/>
      <point x="157" y="-230"/>
      <point x="139" y="-342"/>
      <point x="52" y="-342" type="curve" smooth="yes"/>
      <point x="1" y="-342"/>
      <point x="-80" y="-313"/>
      <point x="-132" y="-280" type="curve"/>
      <point x="-164" y="-482" type="line"/>
      <point x="-100" y="-504"/>
      <point x="1" y="-516"/>
      <point x="56" y="-516" type="curve" smooth="yes"/>
      <point x="274" y="-516"/>
      <point x="409" y="-433"/>
      <point x="416" y="-145" type="curve"/>
      <point x="416" y="1020" type="line"/>
      <point x="158" y="1020" type="line"/>
    </contour>
    <contour>
      <point x="282" y="1704" type="move" name="top"/>
    </contour>
  </outline>
</glyph>
<glyph name="uni0259" format="1">
  <advance width="1086"/>
  <unicode hex="0259"/>
  <outline>
    <contour>
      <point x="508" y="1044" type="curve"/>
      <point x="306" y="1044"/>
      <point x="195" y="986"/>
      <point x="139" y="948" type="curve"/>
      <point x="237" y="755" type="line"/>
      <point x="283" y="808"/>
      <point x="380" y="850"/>
      <point x="465" y="851" type="curve"/>
      <point x="631" y="851"/>
      <point x="711" y="743"/>
      <point x="718" y="581" type="curve"/>
      <point x="102" y="581" type="line"/>
      <point x="100" y="551"/>
      <point x="100" y="514"/>
      <point x="100" y="486" type="curve" smooth="yes"/>
      <point x="100" y="162"/>
      <point x="206" y="-36"/>
      <point x="512" y="-36" type="curve" smooth="yes"/>
      <point x="818" y="-36"/>
      <point x="987" y="214"/>
      <point x="987" y="511" type="curve" smooth="yes"/>
      <point x="987" y="793"/>
      <point x="852" y="1044"/>
    </contour>
    <contour>
      <point x="720" y="422" type="line"/>
      <point x="712" y="276"/>
      <point x="655" y="159"/>
      <point x="517" y="159" type="curve" smooth="yes"/>
      <point x="433" y="159"/>
      <point x="357" y="228"/>
      <point x="357" y="421" type="curve"/>
    </contour>
    <contour>
      <point x="571" y="1700" type="move" name="top"/>
    </contour>
  </outline>
</glyph>
<glyph name="caron" format="1">
  <advance width="0"/>
  <unicode hex="02C7"/>
  <outline>
    <contour>
      <point x="-64" y="1200" type="line"/>
      <point x="64" y="1200" type="line"/>
      <point x="356" y="1696" type="line"/>
      <point x="149" y="1696" type="line"/>
      <point x="-9" y="1445" type="line"/>
      <point x="11" y="1445" type="line"/>
      <point x="-150" y="1696" type="line"/>
      <point x="-355" y="1696" type="line"/>
    </contour>
    <contour>
      <point x="0" y="1700" type="move" name="_top"/>
    </contour>
  </outline>
</glyph>
<glyph name="breve" format="1">
  <advance width="0"/>
  <unicode hex="02D8"/>
  <outline>
    <contour>
      <point x="1" y="1197" type="curve" smooth="yes"/>
      <point x="201" y="1197"/>
      <point x="346" y="1358"/>
      <point x="346" y="1604" type="curve"/>
      <point x="157" y="1604" type="line"/>
      <point x="153" y="1490"/>
      <point x="126" y="1389"/>
      <point x="1" y="1389" type="curve" smooth="yes"/>
      <point x="-120" y="1389"/>
      <point x="-153" y="1483"/>
      <point x="-158" y="1604" type="curve"/>
      <point x="-345" y="1604" type="line"/>
      <point x="-345" y="1362"/>
      <point x="-203" y="1197"/>
    </contour>
    <contour>
      <point x="0" y="1700" type="move" name="_top"/>
    </contour>
  </outline>
</glyph>
<glyph name="dotaccent" format="1">
  <advance width="380"/>
  <unicode hex="02D9"/>
  <outline>
    <contour>
      <point x="50" y="1236" type="line"/>
      <point x="330" y="1236" type="line"/>
      <point x="330" y="1510" type="line"/>
      <point x="50" y="1510" type="line"/>
    </contour>
    <contour>
      <point x="192" y="1700" type="move" name="_top"/>
    </contour>
  </outline>
</glyph>
<glyph name="ring" format="1">
  <advance width="0"/>
  <unicode hex="02DA"/>
  <outline>
    <contour>
      <point x="0" y="1164" type="curve" smooth="yes"/>
      <point x="175" y="1164"/>
      <point x="323" y="1292"/>
      <point x="323" y="1473" type="curve" smooth="yes"/>
      <point x="323" y="1655"/>
      <point x="175" y="1782"/>
      <point x="0" y="1782" type="curve" smooth="yes"/>
      <point x="-174" y="1782"/>
      <point x="-322" y="1657"/>
      <point x="-322" y="1473" type="curve" smooth="yes"/>
      <point x="-322" y="1292"/>
      <point x="-175" y="1164"/>
    </contour>
    <contour>
      <point x="0" y="1315" type="curve" smooth="yes"/>
      <point x="-80" y="1315"/>
      <point x="-149" y="1366"/>
      <point x="-149" y="1474" type="curve" smooth="yes"/>
      <point x="-149" y="1589"/>
      <point x="-80" y="1633"/>
      <point x="0" y="1633" type="curve" smooth="yes"/>
      <point x="80" y="1633"/>
      <point x="152" y="1589"/>
      <point x="152" y="1474" type="curve" smooth="yes"/>
      <point x="152" y="1366"/>
      <point x="80" y="1315"/>
    </contour>
    <contour>
      <point x="0" y="1700" type="move" name="_top"/>
    </contour>
  </outline>
</glyph>
<glyph name="tilde" format="1">
  <advance width="0"/>
  <unicode hex="02DC"/>
  <outline>
    <contour>
      <point x="-300" y="1222" type="line"/>
      <point x="-278" y="1330"/>
      <point x="-207" y="1374"/>
      <point x="-152" y="1374" type="curve" smooth="yes"/>
      <point x="-41" y="1374"/>
      <point x="-18" y="1201"/>
      <point x="173" y="1201" type="curve" smooth="yes"/>
      <point x="316" y="1201"/>
      <point x="430" y="1337"/>
      <point x="424" y="1446" type="curve"/>
      <point x="300" y="1533" type="line"/>
      <point x="296" y="1437"/>
      <point x="232" y="1392"/>
      <point x="177" y="1392" type="curve" smooth="yes"/>
      <point x="55" y="1392"/>
      <point x="35" y="1561"/>
      <point x="-162" y="1561" type="curve" smooth="yes"/>
      <point x="-302" y="1561"/>
      <point x="-427" y="1417"/>
      <point x="-424" y="1309" type="curve"/>
    </contour>
    <contour>
      <point x="5" y="1700" type="move" name="_top"/>
    </contour>
  </outline>
</glyph>
<glyph name="hungarumlaut" format="1">
  <advance width="0"/>
  <unicode hex="02DD"/>
  <outline>
    <contour>
      <point x="-349" y="1148" type="line"/>
      <point x="-171" y="1149" type="line"/>
      <point x="90" y="1591" type="line"/>
      <point x="-133" y="1591" type="line"/>
    </contour>
    <contour>
      <point x="80" y="1148" type="line"/>
      <point x="258" y="1149" type="line"/>
      <point x="519" y="1591" type="line"/>
      <point x="296" y="1591" type="line"/>
    </contour>
    <contour>
      <point x="0" y="1700" type="move" name="_top"/>
    </contour>
  </outline>
</glyph>
<glyph name="gravecomb" format="1">
  <advance width="0"/>
  <unicode hex="0300"/>
  <outline>
    <contour>
      <point x="-94" y="1591" type="line"/>
      <point x="-372" y="1591" type="line"/>
      <point x="-116" y="1177" type="line"/>
      <point x="107" y="1177" type="line"/>
    </contour>
  </outline>
</glyph>
<glyph name="acutecomb" format="1">
  <advance width="0"/>
  <unicode hex="0301"/>
  <outline>
    <contour>
      <point x="-107" y="1177" type="line"/>
      <point x="116" y="1177" type="line"/>
      <point x="372" y="1591" type="line"/>
      <point x="94" y="1591" type="line"/>
    </contour>
  </outline>
</glyph>
<glyph name="uni0302" format="1">
  <advance width="0"/>
  <unicode hex="0302"/>
  <outline>
    <contour>
      <point x="-355" y="1220" type="line"/>
      <point x="-150" y="1220" type="line"/>
      <point x="11" y="1471" type="line"/>
      <point x="-9" y="1471" type="line"/>
      <point x="149" y="1220" type="line"/>
      <point x="356" y="1220" type="line"/>
      <point x="64" y="1716" type="line"/>
      <point x="-64" y="1716" type="line"/>
    </contour>
  </outline>
</glyph>
<glyph name="uni0307" format="1">
  <advance width="380"/>
  <unicode hex="0307"/>
  <outline>
    <contour>
      <point x="50" y="1236" type="line"/>
      <point x="330" y="1236" type="line"/>
      <point x="330" y="1510" type="line"/>
      <point x="50" y="1510" type="line"/>
    </contour>
  </outline>
</glyph>
<glyph name="uni030A" format="1">
  <advance width="0"/>
  <unicode hex="030A"/>
  <outline>
    <contour>
      <point x="0" y="1164" type="curve" smooth="yes"/>
      <point x="175" y="1164"/>
      <point x="323" y="1292"/>
      <point x="323" y="1473" type="curve" smooth="yes"/>
      <point x="323" y="1655"/>
      <point x="175" y="1782"/>
      <point x="0" y="1782" type="curve" smooth="yes"/>
      <point x="-174" y="1782"/>
      <point x="-322" y="1657"/>
      <point x="-322" y="1473" type="curve" smooth="yes"/>
      <point x="-322" y="1292"/>
      <point x="-175" y="1164"/>
    </contour>
    <contour>
      <point x="0" y="1315" type="curve" smooth="yes"/>
      <point x="-80" y="1315"/>
      <point x="-149" y="1366"/>
      <point x="-149" y="1474" type="curve" smooth="yes"/>
      <point x="-149" y="1589"/>
      <point x="-80" y="1633"/>
      <point x="0" y="1633" type="curve" smooth="yes"/>
      <point x="80" y="1633"/>
      <point x="152" y="1589"/>
      <point x="152" y="1474" type="curve" smooth="yes"/>
      <point x="152" y="1366"/>
      <point x="80" y="1315"/>
    </contour>
  </outline>
</glyph>
<glyph name="uni030B" format="1">
  <advance width="0"/>
  <unicode hex="030B"/>
  <outline>
    <contour>
      <point x="-349" y="1148" type="line"/>
      <point x="-171" y="1149" type="line"/>
      <point x="90" y="1591" type="line"/>
      <point x="-133" y="1591" type="line"/>
    </contour>
    <contour>
      <point x="80" y="1148" type="line"/>
      <point x="258" y="1149" type="line"/>
      <point x="519" y="1591" type="line"/>
      <point x="296" y="1591" type="line"/>
    </contour>
  </outline>
</glyph>
<glyph name="dotbelowcomb" format="1">
  <advance width="380"/>
  <unicode hex="0323"/>
  <outline>
    <contour>
      <point x="50" y="1236" type="line"/>
      <point x="330" y="1236" type="line"/>
      <point x="330" y="1510" type="line"/>
      <point x="50" y="1510" type="line"/>
    </contour>
  </outline>
</glyph>
<glyph name="uni0324" format="1">
  <advance width="0"/>
  <unicode hex="0324"/>
  <outline>
    <contour>
      <point x="-337" y="1232" type="line"/>
      <point x="-67" y="1232" type="line"/>
      <point x="-67" y="1506" type="line"/>
      <point x="-337" y="1506" type="line"/>
    </contour>
    <contour>
      <point x="69" y="1232" type="line"/>
      <point x="339" y="1232" type="line"/>
      <point x="339" y="1506" type="line"/>
      <point x="69" y="1506" type="line"/>
    </contour>
  </outline>
</glyph>
<glyph name="uni0326" format="1">
  <advance width="492"/>
  <unicode hex="0326"/>
  <outline>
    <contour>
      <point x="114" y="-167" type="line"/>
      <point x="116" y="-202"/>
      <point x="117" y="-235"/>
      <point x="116" y="-268" type="curve" smooth="yes"/>
      <point x="113" y="-433"/>
      <point x="78" y="-520"/>
      <point x="72" y="-542" type="curve"/>
      <point x="260" y="-542" type="line"/>
      <point x="269" y="-517"/>
      <point x="370" y="-434"/>
      <point x="371" y="-254" type="curve" smooth="yes"/>
      <point x="372" y="-244"/>
      <point x="372" y="-184"/>
      <point x="371" y="-167" type="curve"/>
    </contour>
  </outline>
</glyph>
<glyph name="uni0328" format="1">
  <advance width="1169"/>
  <unicode hex="0328"/>
  <outline>
    <contour>
      <point x="192" y="-265" type="curve"/>
      <point x="191" y="-412"/>
      <point x="296" y="-508"/>
      <point x="494" y="-511" type="curve" smooth="yes"/>
      <point x="579" y="-512"/>
      <point x="684" y="-489"/>
      <point x="718" y="-460" type="curve"/>
      <point x="685" y="-312" type="line"/>
      <point x="632" y="-341"/>
      <point x="552" y="-354"/>
      <point x="507" y="-353" type="curve" smooth="yes"/>
      <point x="424" y="-352"/>
      <point x="374" y="-304"/>
      <point x="380" y="-234" type="curve" smooth="yes"/>
      <point x="389" y="-119"/>
      <point x="521" y="-36"/>
      <point x="667" y="0" type="curve"/>
      <point x="558" y="67" type="line"/>
      <point x="413" y="20" type="line"/>
      <point x="254" y="-64"/>
      <point x="195" y="-164"/>
    </contour>
  </outline>
</glyph>
<glyph name="Deltagreek" format="1">
  <advance width="1607"/>
  <unicode hex="0394"/>
  <outline>
    <contour>
      <point x="136" y="72" type="line"/>
      <point x="170" y="0" type="line"/>
      <point x="1422" y="0" type="line"/>
      <point x="1459" y="72" type="line"/>
      <point x="833" y="1463" type="line"/>
      <point x="764" y="1463" type="line"/>
    </contour>
    <contour>
      <point x="437" y="206" type="line"/>
      <point x="796" y="1031" type="line"/>
      <point x="1140" y="206" type="line"/>
    </contour>
  </outline>
</glyph>
<glyph name="uni03BC" format="1">
  <advance width="1127"/>
  <unicode hex="03BC"/>
  <outline>
    <contour>
      <point x="121" y="-511" type="line"/>
      <point x="379" y="-511" type="line"/>
      <point x="330" y="146" type="line"/>
      <point x="366" y="59"/>
      <point x="441" y="-22"/>
      <point x="551" y="-22" type="curve" smooth="yes"/>
      <point x="647" y="-22"/>
      <point x="719" y="39"/>
      <point x="742" y="146" type="curve"/>
      <point x="737" y="0" type="line"/>
      <point x="1006" y="0" type="line"/>
      <point x="1006" y="1008" type="line"/>
      <point x="728" y="1008" type="line"/>
      <point x="728" y="381" type="line"/>
      <point x="728" y="193"/>
      <point x="652" y="177"/>
      <point x="566" y="177" type="curve" smooth="yes"/>
      <point x="468" y="177"/>
      <point x="406" y="283"/>
      <point x="406" y="427" type="curve"/>
      <point x="406" y="1008" type="line"/>
      <point x="121" y="1008" type="line"/>
    </contour>
  </outline>
</glyph>
<glyph name="pi" format="1">
  <advance width="1555"/>
  <unicode hex="03C0"/>
  <outline>
    <contour>
      <point x="200" y="774" type="line"/>
      <point x="228" y="850"/>
      <point x="262" y="912"/>
      <point x="407" y="912" type="curve" smooth="yes"/>
      <point x="1175" y="912" type="line" smooth="yes"/>
      <point x="1340" y="912"/>
      <point x="1387" y="946"/>
      <point x="1387" y="946" type="curve"/>
      <point x="1336" y="1121" type="line"/>
      <point x="1336" y="1121"/>
      <point x="1254" y="1121"/>
      <point x="1063" y="1121" type="curve" smooth="yes"/>
      <point x="413" y="1121" type="line" smooth="yes"/>
      <point x="163" y="1121"/>
      <point x="96" y="942"/>
      <point x="96" y="859" type="curve"/>
    </contour>
    <contour>
      <point x="601" y="0" type="line"/>
      <point x="605" y="-30"/>
      <point x="633" y="365"/>
      <point x="646" y="632" type="curve" smooth="yes"/>
      <point x="668" y="1088" type="line"/>
      <point x="496" y="1088" type="line"/>
      <point x="361" y="0" type="line"/>
    </contour>
    <contour>
      <point x="847" y="317" type="line"/>
      <point x="837" y="125"/>
      <point x="862" y="-20"/>
      <point x="1034" y="-19" type="curve" smooth="yes"/>
      <point x="1253" y="-18"/>
      <point x="1360" y="148"/>
      <point x="1383" y="377" type="curve"/>
      <point x="1258" y="377" type="line"/>
      <point x="1241" y="260"/>
      <point x="1196" y="171"/>
      <point x="1122" y="171" type="curve" smooth="yes"/>
      <point x="1080" y="171"/>
      <point x="1055" y="207"/>
      <point x="1064" y="374" type="curve"/>
      <point x="1064" y="1088" type="line"/>
      <point x="901" y="1088" type="line"/>
    </contour>
  </outline>
</glyph>
<glyph name="uni1E9E" format="1">
  <advance width="1209"/>
  <unicode hex="1E9E"/>
  <outline>
    <contour>
      <point x="526" y="38" type="line"/>
      <point x="565" y="10"/>
      <point x="647" y="-35"/>
      <point x="793" y="-35" type="curve" smooth="yes"/>
      <point x="1054" y="-35"/>
      <point x="1197" y="174"/>
      <point x="1197" y="458" type="curve" smooth="yes"/>
      <point x="1197" y="691"/>
      <point x="1050" y="729"/>
      <point x="804" y="753" type="curve"/>
      <point x="804" y="716" type="line"/>
      <point x="962" y="716"/>
      <point x="1084" y="999"/>
      <point x="1084" y="1090" type="curve" smooth="yes"/>
      <point x="1084" y="1299"/>
      <point x="964" y="1468"/>
      <point x="661" y="1468" type="curve" smooth="yes"/>
      <point x="466" y="1468"/>
      <point x="191" y="1380"/>
      <point x="191" y="1041" type="curve" smooth="yes"/>
      <point x="191" y="-170" type="line"/>
      <point x="452" y="-170" type="line"/>
      <point x="452" y="1062" type="line" smooth="yes"/>
      <point x="452" y="1158"/>
      <point x="526" y="1267"/>
      <point x="649" y="1267" type="curve" smooth="yes"/>
      <point x="730" y="1267"/>
      <point x="826" y="1221"/>
      <point x="819" y="1060" type="curve" smooth="yes"/>
      <point x="815" y="967"/>
      <point x="707" y="780"/>
      <point x="621" y="780" type="curve"/>
      <point x="621" y="637" type="line"/>
      <point x="821" y="637"/>
      <point x="918" y="625"/>
      <point x="918" y="455" type="curve" smooth="yes"/>
      <point x="918" y="289"/>
      <point x="877" y="157"/>
      <point x="749" y="157" type="curve" smooth="yes"/>
      <point x="677" y="157"/>
      <point x="612" y="193"/>
      <point x="596" y="208" type="curve"/>
    </contour>
  </outline>
</glyph>
<glyph name="emdash" format="1">
  <advance width="1927"/>
  <unicode hex="2014"/>
  <outline>
    <contour>
      <point x="127" y="504" type="line"/>
      <point x="1800" y="504" type="line"/>
      <point x="1800" y="704" type="line"/>
      <point x="127" y="704" type="line"/>
    </contour>
  </outline>
</glyph>
<glyph name="quoteleft" format="1">
  <advance width="597"/>
  <unicode hex="2018"/>
  <outline>
    <contour>
      <point x="270" y="772" type="curve"/>
      <point x="458" y="772" type="line"/>
      <point x="447" y="799"/>
      <point x="403" y="985"/>
      <point x="403" y="1222" type="curve"/>
      <point x="403" y="1428" type="line"/>
      <point x="156" y="1428" type="line"/>
      <point x="156" y="1177" type="line"/>
      <point x="164" y="898"/>
      <point x="261" y="788"/>
    </contour>
  </outline>
</glyph>
<glyph name="dagger" format="1">
  <advance width="1055"/>
  <unicode hex="2020"/>
  <outline>
    <contour>
      <point x="122" y="829" type="line"/>
      <point x="932" y="829" type="line"/>
      <point x="932" y="1020" type="line"/>
      <point x="122" y="1020" type="line"/>
    </contour>
    <contour>
      <point x="438" y="-488" type="line"/>
      <point x="617" y="-488" type="line"/>
      <point x="617" y="1577" type="line"/>
      <point x="438" y="1577" type="line"/>
    </contour>
  </outline>
</glyph>
<glyph name="daggerdbl" format="1">
  <advance width="1055"/>
  <unicode hex="2021"/>
  <outline>
    <contour>
      <point x="122" y="829" type="line"/>
      <point x="932" y="829" type="line"/>
      <point x="932" y="1020" type="line"/>
      <point x="122" y="1020" type="line"/>
    </contour>
    <contour>
      <point x="438" y="-488" type="line"/>
      <point x="617" y="-488" type="line"/>
      <point x="617" y="1577" type="line"/>
      <point x="438" y="1577" type="line"/>
    </contour>
    <contour>
      <point x="122" y="310" type="line"/>
      <point x="932" y="310" type="line"/>
      <point x="932" y="501" type="line"/>
      <point x="122" y="501" type="line"/>
    </contour>
  </outline>
</glyph>
<glyph name="bullet" format="1">
  <advance width="691"/>
  <unicode hex="2022"/>
  <outline>
    <contour>
      <point x="345" y="574" type="curve" smooth="yes"/>
      <point x="451" y="574"/>
      <point x="534" y="625"/>
      <point x="534" y="773" type="curve" smooth="yes"/>
      <point x="534" y="914"/>
      <point x="448" y="973"/>
      <point x="345" y="973" type="curve" smooth="yes"/>
      <point x="243" y="973"/>
      <point x="157" y="914"/>
      <point x="157" y="773" type="curve" smooth="yes"/>
      <point x="157" y="625"/>
      <point x="242" y="574"/>
    </contour>
  </outline>
</glyph>
<glyph name="ellipsis" format="1">
  <advance width="1317"/>
  <unicode hex="2026"/>
  <outline>
    <contour>
      <point x="83" y="0" type="line"/>
      <point x="356" y="0" type="line"/>
      <point x="356" y="265" type="line"/>
      <point x="83" y="265" type="line"/>
    </contour>
    <contour>
      <point x="522" y="0" type="line"/>
      <point x="795" y="0" type="line"/>
      <point x="795" y="265" type="line"/>
      <point x="522" y="265" type="line"/>
    </contour>
    <contour>
      <point x="961" y="0" type="line"/>
      <point x="1234" y="0" type="line"/>
      <point x="1234" y="265" type="line"/>
      <point x="961" y="265" type="line"/>
    </contour>
  </outline>
</glyph>
<glyph name="minute" format="1">
  <advance width="600"/>
  <unicode hex="2032"/>
  <outline>
    <contour>
      <point x="362" y="797" type="line"/>
      <point x="580" y="797" type="line"/>
      <point x="736" y="1428" type="line"/>
      <point x="470" y="1428" type="line"/>
    </contour>
  </outline>
</glyph>
<glyph name="zero.superior" format="1">
  <advance width="1012"/>
  <unicode hex="2070"/>
  <outline>
    <contour>
      <point x="512" y="1085" type="curve" smooth="yes"/>
      <point x="365" y="1085"/>
      <point x="315" y="1231"/>
      <point x="315" y="1422" type="curve" smooth="yes"/>
      <point x="315" y="1622"/>
      <point x="368" y="1762"/>
      <point x="512" y="1762" type="curve" smooth="yes"/>
      <point x="655" y="1762"/>
      <point x="708" y="1622"/>
      <point x="708" y="1422" type="curve" smooth="yes"/>
      <point x="708" y="1231"/>
      <point x="658" y="1085"/>
    </contour>
    <contour>
      <point x="519" y="946" type="curve" smooth="yes"/>
      <point x="828" y="946"/>
      <point x="955" y="1142"/>
      <point x="955" y="1420" type="curve" smooth="yes"/>
      <point x="955" y="1745"/>
      <point x="792" y="1899"/>
      <point x="519" y="1899" type="curve" smooth="yes"/>
      <point x="246" y="1899"/>
      <point x="83" y="1745"/>
      <point x="83" y="1420" type="curve" smooth="yes"/>
      <point x="83" y="1142"/>
      <point x="210" y="946"/>
    </contour>
  </outline>
</glyph>
<glyph name="four.superior" format="1">
  <advance width="941"/>
  <unicode hex="2074"/>
  <outline>
    <contour>
      <point x="533" y="947" type="line"/>
      <point x="757" y="947" type="line"/>
      <point x="757" y="1731" type="line"/>
      <point x="565" y="1731" type="line"/>
      <point x="533" y="1174" type="line"/>
    </contour>
    <contour>
      <point x="35" y="1153" type="line"/>
      <point x="899" y="1153" type="line"/>
      <point x="899" y="1289" type="line"/>
      <point x="289" y="1289" type="line"/>
      <point x="478" y="1946" type="line"/>
      <point x="247" y="1946" type="line"/>
    </contour>
  </outline>
</glyph>
<glyph name="five.superior" format="1">
  <advance width="857"/>
  <unicode hex="2075"/>
  <outline>
    <contour>
      <point x="71" y="914" type="line"/>
      <point x="148" y="868"/>
      <point x="265" y="851"/>
      <point x="361" y="851" type="curve" smooth="yes"/>
      <point x="616" y="851"/>
      <point x="793" y="977"/>
      <point x="793" y="1200" type="curve" smooth="yes"/>
      <point x="793" y="1368"/>
      <point x="674" y="1520"/>
      <point x="455" y="1520" type="curve" smooth="yes"/>
      <point x="397" y="1520"/>
      <point x="351" y="1515"/>
      <point x="303" y="1502" type="curve"/>
      <point x="324" y="1717" type="line"/>
      <point x="726" y="1717" type="line"/>
      <point x="726" y="1869" type="line"/>
      <point x="140" y="1869" type="line"/>
      <point x="120" y="1333" type="line"/>
      <point x="152" y="1352"/>
      <point x="253" y="1379"/>
      <point x="341" y="1379" type="curve" smooth="yes"/>
      <point x="493" y="1379"/>
      <point x="580" y="1306"/>
      <point x="580" y="1193" type="curve" smooth="yes"/>
      <point x="580" y="1023"/>
      <point x="435" y="996"/>
      <point x="334" y="996" type="curve" smooth="yes"/>
      <point x="260" y="996"/>
      <point x="173" y="1026"/>
      <point x="127" y="1064" type="curve"/>
    </contour>
  </outline>
</glyph>
<glyph name="six.superior" format="1">
  <advance width="975"/>
  <unicode hex="2076"/>
  <outline>
    <contour>
      <point x="83" y="1357" type="curve" smooth="yes"/>
      <point x="83" y="980"/>
      <point x="322" y="854"/>
      <point x="508" y="854" type="curve" smooth="yes"/>
      <point x="749" y="854"/>
      <point x="909" y="994"/>
      <point x="909" y="1214" type="curve" smooth="yes"/>
      <point x="909" y="1389"/>
      <point x="789" y="1530"/>
      <point x="577" y="1530" type="curve" smooth="yes"/>
      <point x="463" y="1530"/>
      <point x="355" y="1487"/>
      <point x="299" y="1389" type="curve"/>
      <point x="297" y="1404"/>
      <point x="297" y="1421"/>
      <point x="300" y="1441" type="curve" smooth="yes"/>
      <point x="315" y="1589"/>
      <point x="385" y="1749"/>
      <point x="549" y="1749" type="curve" smooth="yes"/>
      <point x="608" y="1749"/>
      <point x="703" y="1738"/>
      <point x="752" y="1688" type="curve"/>
      <point x="829" y="1826" type="line"/>
      <point x="778" y="1870"/>
      <point x="690" y="1899"/>
      <point x="542" y="1899" type="curve" smooth="yes"/>
      <point x="266" y="1899"/>
      <point x="83" y="1693"/>
    </contour>
    <contour>
      <point x="328" y="1166" type="curve" smooth="yes"/>
      <point x="323" y="1183"/>
      <point x="322" y="1198"/>
      <point x="322" y="1214" type="curve"/>
      <point x="328" y="1306"/>
      <point x="433" y="1385"/>
      <point x="531" y="1385" type="curve" smooth="yes"/>
      <point x="643" y="1385"/>
      <point x="697" y="1309"/>
      <point x="697" y="1197" type="curve" smooth="yes"/>
      <point x="697" y="1074"/>
      <point x="611" y="1002"/>
      <point x="511" y="1002" type="curve" smooth="yes"/>
      <point x="416" y="1002"/>
      <point x="356" y="1076"/>
    </contour>
  </outline>
</glyph>
<glyph name="seven.superior" format="1">
  <advance width="826"/>
  <unicode hex="2077"/>
  <outline>
    <contour>
      <point x="189" y="873" type="line"/>
      <point x="416" y="873" type="line"/>
      <point x="493" y="1099"/>
      <point x="716" y="1680"/>
      <point x="760" y="1802" type="curve"/>
      <point x="713" y="1872" type="line"/>
      <point x="54" y="1872" type="line"/>
      <point x="54" y="1716" type="line"/>
      <point x="534" y="1716" type="line"/>
    </contour>
  </outline>
</glyph>
<glyph name="eight.superior" format="1">
  <advance width="971"/>
  <unicode hex="2078"/>
  <outline>
    <contour>
      <point x="325" y="1627" type="curve" smooth="yes"/>
      <point x="325" y="1719"/>
      <point x="384" y="1767"/>
      <point x="488" y="1767" type="curve" smooth="yes"/>
      <point x="594" y="1767"/>
      <point x="646" y="1719"/>
      <point x="646" y="1626" type="curve" smooth="yes"/>
      <point x="646" y="1522"/>
      <point x="571" y="1465"/>
      <point x="488" y="1465" type="curve" smooth="yes"/>
      <point x="409" y="1465"/>
      <point x="325" y="1522"/>
    </contour>
    <contour>
      <point x="120" y="1639" type="curve" smooth="yes"/>
      <point x="120" y="1449"/>
      <point x="273" y="1361"/>
      <point x="487" y="1361" type="curve" smooth="yes"/>
      <point x="687" y="1361"/>
      <point x="850" y="1449"/>
      <point x="850" y="1639" type="curve" smooth="yes"/>
      <point x="850" y="1828"/>
      <point x="667" y="1899"/>
      <point x="487" y="1899" type="curve" smooth="yes"/>
      <point x="307" y="1899"/>
      <point x="120" y="1828"/>
    </contour>
    <contour>
      <point x="485" y="1319" type="curve" smooth="yes"/>
      <point x="560" y="1319"/>
      <point x="674" y="1280"/>
      <point x="674" y="1151" type="curve" smooth="yes"/>
      <point x="674" y="1045"/>
      <point x="605" y="993"/>
      <point x="486" y="993" type="curve" smooth="yes"/>
      <point x="366" y="993"/>
      <point x="297" y="1045"/>
      <point x="297" y="1151" type="curve" smooth="yes"/>
      <point x="297" y="1280"/>
      <point x="412" y="1319"/>
    </contour>
    <contour>
      <point x="486" y="850" type="curve" smooth="yes"/>
      <point x="682" y="850"/>
      <point x="898" y="932"/>
      <point x="898" y="1149" type="curve" smooth="yes"/>
      <point x="898" y="1336"/>
      <point x="712" y="1425"/>
      <point x="485" y="1425" type="curve" smooth="yes"/>
      <point x="259" y="1425"/>
      <point x="73" y="1336"/>
      <point x="73" y="1149" type="curve" smooth="yes"/>
      <point x="73" y="932"/>
      <point x="288" y="850"/>
    </contour>
  </outline>
</glyph>
<glyph name="nine.superior" format="1">
  <advance width="975"/>
  <unicode hex="2079"/>
  <outline>
    <contour>
      <point x="899" y="1393" type="curve"/>
      <point x="899" y="1776"/>
      <point x="676" y="1898"/>
      <point x="477" y="1898" type="curve" smooth="yes"/>
      <point x="234" y="1898"/>
      <point x="72" y="1758"/>
      <point x="72" y="1538" type="curve" smooth="yes"/>
      <point x="72" y="1363"/>
      <point x="194" y="1222"/>
      <point x="406" y="1222" type="curve" smooth="yes"/>
      <point x="518" y="1222"/>
      <point x="628" y="1265"/>
      <point x="685" y="1363" type="curve"/>
      <point x="685" y="1348"/>
      <point x="685" y="1331"/>
      <point x="682" y="1311" type="curve" smooth="yes"/>
      <point x="672" y="1163"/>
      <point x="598" y="1003"/>
      <point x="412" y="1003" type="curve" smooth="yes"/>
      <point x="358" y="1003"/>
      <point x="266" y="1021"/>
      <point x="222" y="1064" type="curve"/>
      <point x="145" y="926" type="line"/>
      <point x="191" y="889"/>
      <point x="281" y="853"/>
      <point x="416" y="853" type="curve" smooth="yes"/>
      <point x="714" y="853"/>
      <point x="899" y="1057"/>
    </contour>
    <contour>
      <point x="655" y="1586" type="curve"/>
      <point x="659" y="1569"/>
      <point x="661" y="1554"/>
      <point x="661" y="1538" type="curve"/>
      <point x="655" y="1446"/>
      <point x="551" y="1367"/>
      <point x="454" y="1367" type="curve" smooth="yes"/>
      <point x="339" y="1367"/>
      <point x="286" y="1443"/>
      <point x="286" y="1555" type="curve" smooth="yes"/>
      <point x="286" y="1678"/>
      <point x="372" y="1750"/>
      <point x="468" y="1750" type="curve" smooth="yes"/>
      <point x="566" y="1750"/>
      <point x="634" y="1676"/>
    </contour>
  </outline>
</glyph>
<glyph name="colonmonetary" format="1">
  <advance width="1118"/>
  <unicode hex="20A1"/>
  <outline>
    <contour>
      <point x="756" y="-36" type="curve" smooth="yes"/>
      <point x="1047" y="-36"/>
      <point x="1177" y="42"/>
      <point x="1242" y="88" type="curve"/>
      <point x="1127" y="297" type="line"/>
      <point x="1086" y="260"/>
      <point x="972" y="183"/>
      <point x="772" y="183" type="curve" smooth="yes"/>
      <point x="544" y="183"/>
      <point x="366" y="383"/>
      <point x="366" y="728" type="curve" smooth="yes"/>
      <point x="366" y="1000"/>
      <point x="492" y="1247"/>
      <point x="771" y="1247" type="curve" smooth="yes"/>
      <point x="971" y="1247"/>
      <point x="1085" y="1170"/>
      <point x="1126" y="1133" type="curve"/>
      <point x="1241" y="1342" type="line"/>
      <point x="1176" y="1388"/>
      <point x="1055" y="1463"/>
      <point x="764" y="1463" type="curve" smooth="yes"/>
      <point x="395" y="1463"/>
      <point x="80" y="1194"/>
      <point x="80" y="728" type="curve" smooth="yes"/>
      <point x="80" y="217"/>
      <point x="409" y="-36"/>
    </contour>
    <contour>
      <point x="369" y="-249" type="line"/>
      <point x="530" y="-250" type="line"/>
      <point x="821" y="1699" type="line"/>
      <point x="661" y="1699" type="line"/>
    </contour>
    <contour>
      <point x="655" y="-249" type="line"/>
      <point x="816" y="-250" type="line"/>
      <point x="1107" y="1699" type="line"/>
      <point x="947" y="1699" type="line"/>
    </contour>
    <contour>
      <point x="680" y="1700" type="move" name="top"/>
    </contour>
    <contour>
      <point x="583" y="-170" type="move" name="btm"/>
    </contour>
  </outline>
</glyph>
<glyph name="franc" format="1">
  <advance width="950"/>
  <unicode hex="20A3"/>
  <outline>
    <contour>
      <point x="155" y="0" type="line"/>
      <point x="421" y="0" type="line"/>
      <point x="421" y="733" type="line"/>
      <point x="383" y="703" type="line"/>
      <point x="839" y="703" type="line"/>
      <point x="839" y="920" type="line"/>
      <point x="383" y="920" type="line"/>
      <point x="421" y="884" type="line"/>
      <point x="421" y="1258" type="line"/>
      <point x="387" y="1221" type="line"/>
      <point x="901" y="1221" type="line"/>
      <point x="901" y="1428" type="line"/>
      <point x="155" y="1428" type="line"/>
    </contour>
    <contour>
      <point x="-1" y="178" type="line"/>
      <point x="652" y="178" type="line"/>
      <point x="652" y="378" type="line"/>
      <point x="-1" y="378" type="line"/>
    </contour>
  </outline>
</glyph>
<glyph name="uni20A6" format="1">
  <advance width="1320"/>
  <unicode hex="20A6"/>
  <outline>
    <contour>
      <point x="155" y="0" type="line"/>
      <point x="416" y="0" type="line"/>
      <point x="416" y="1033" type="line"/>
      <point x="253" y="975" type="line"/>
      <point x="1165" y="-40" type="line"/>
      <point x="1165" y="1428" type="line"/>
      <point x="904" y="1428" type="line"/>
      <point x="904" y="388" type="line"/>
      <point x="1056" y="440" type="line"/>
      <point x="155" y="1464" type="line"/>
    </contour>
    <contour>
      <point x="-40" y="349" type="line"/>
      <point x="1351" y="349" type="line"/>
      <point x="1351" y="519" type="line"/>
      <point x="-40" y="519" type="line"/>
    </contour>
    <contour>
      <point x="-40" y="879" type="line"/>
      <point x="1351" y="879" type="line"/>
      <point x="1351" y="1049" type="line"/>
      <point x="-40" y="1049" type="line"/>
    </contour>
    <contour>
      <point x="660" y="1700" type="move" name="top"/>
    </contour>
    <contour>
      <point x="660" y="-170" type="move" name="btm"/>
    </contour>
  </outline>
</glyph>
<glyph name="peseta" format="1">
  <advance width="2797"/>
  <unicode hex="20A7"/>
  <outline>
    <contour>
      <point x="155" y="0" type="line"/>
      <point x="421" y="0" type="line"/>
      <point x="421" y="462" type="line"/>
      <point x="390" y="358" type="line"/>
      <point x="547" y="358" type="line"/>
      <point x="910" y="358"/>
      <point x="1059" y="644"/>
      <point x="1059" y="905" type="curve" smooth="yes"/>
      <point x="1059" y="1265"/>
      <point x="829" y="1428"/>
      <point x="539" y="1428" type="curve" smooth="yes"/>
      <point x="155" y="1428" type="line"/>
    </contour>
    <contour>
      <point x="384" y="567" type="line"/>
      <point x="421" y="543" type="line"/>
      <point x="421" y="1257" type="line"/>
      <point x="389" y="1221" type="line"/>
      <point x="533" y="1221" type="line" smooth="yes"/>
      <point x="738" y="1221"/>
      <point x="798" y="1085"/>
      <point x="798" y="892" type="curve" smooth="yes"/>
      <point x="798" y="702"/>
      <point x="720" y="567"/>
      <point x="539" y="567" type="curve" smooth="yes"/>
    </contour>
    <contour>
      <point x="1281" y="371" type="line" smooth="yes"/>
      <point x="1281" y="128"/>
      <point x="1363" y="-30"/>
      <point x="1627" y="-30" type="curve" smooth="yes"/>
      <point x="1689" y="-30"/>
      <point x="1821" y="-4"/>
      <point x="1876" y="41" type="curve"/>
      <point x="1828" y="271" type="line"/>
      <point x="1789" y="229"/>
      <point x="1713" y="181"/>
      <point x="1653" y="181" type="curve" smooth="yes"/>
      <point x="1579" y="181"/>
      <point x="1542" y="251"/>
      <point x="1542" y="407" type="curve"/>
      <point x="1542" y="848" type="line"/>
      <point x="1851" y="848" type="line"/>
      <point x="1851" y="1020" type="line"/>
      <point x="1542" y="1020" type="line"/>
      <point x="1542" y="1426" type="line"/>
      <point x="1281" y="1297" type="line"/>
      <point x="1281" y="1020" type="line"/>
      <point x="1148" y="1020" type="line"/>
      <point x="1148" y="848" type="line"/>
      <point x="1281" y="848" type="line"/>
    </contour>
    <contour>
      <point x="1962" y="82" type="line"/>
      <point x="1993" y="46"/>
      <point x="2133" y="-36"/>
      <point x="2332" y="-36" type="curve" smooth="yes"/>
      <point x="2615" y="-36"/>
      <point x="2727" y="127"/>
      <point x="2727" y="286" type="curve" smooth="yes"/>
      <point x="2727" y="444"/>
      <point x="2628" y="523"/>
      <point x="2481" y="593" type="curve" smooth="yes"/>
      <point x="2367" y="647"/>
      <point x="2265" y="683"/>
      <point x="2265" y="763" type="curve" smooth="yes"/>
      <point x="2265" y="812"/>
      <point x="2292" y="847"/>
      <point x="2391" y="847" type="curve" smooth="yes"/>
      <point x="2468" y="847"/>
      <point x="2579" y="816"/>
      <point x="2625" y="763" type="curve"/>
      <point x="2699" y="960" type="line"/>
      <point x="2663" y="998"/>
      <point x="2538" y="1044"/>
      <point x="2380" y="1044" type="curve" smooth="yes"/>
      <point x="2122" y="1044"/>
      <point x="2000" y="923"/>
      <point x="2000" y="746" type="curve" smooth="yes"/>
      <point x="2000" y="548"/>
      <point x="2166" y="460"/>
      <point x="2266" y="413" type="curve" smooth="yes"/>
      <point x="2402" y="350"/>
      <point x="2462" y="320"/>
      <point x="2462" y="252" type="curve" smooth="yes"/>
      <point x="2462" y="186"/>
      <point x="2396" y="158"/>
      <point x="2307" y="158" type="curve" smooth="yes"/>
      <point x="2166" y="158"/>
      <point x="2083" y="227"/>
      <point x="2040" y="272" type="curve"/>
    </contour>
  </outline>
</glyph>
<glyph name="won" format="1">
  <advance width="1910"/>
  <unicode hex="20A9"/>
  <outline>
    <contour>
      <point x="595" y="471" type="line"/>
      <point x="697" y="447" type="line"/>
      <point x="398" y="1428" type="line"/>
      <point x="115" y="1428" type="line"/>
      <point x="608" y="-36" type="line"/>
      <point x="991" y="907" type="line"/>
      <point x="919" y="907" type="line"/>
      <point x="1308" y="-36" type="line"/>
      <point x="1795" y="1428" type="line"/>
      <point x="1516" y="1428" type="line"/>
      <point x="1228" y="431" type="line"/>
      <point x="1348" y="431" type="line"/>
      <point x="961" y="1463" type="line"/>
    </contour>
    <contour>
      <point x="-14" y="1113" type="line"/>
      <point x="1924" y="1113" type="line"/>
      <point x="1923" y="1273" type="line"/>
      <point x="-14" y="1273" type="line"/>
    </contour>
    <contour>
      <point x="-14" y="799" type="line"/>
      <point x="1924" y="799" type="line"/>
      <point x="1923" y="959" type="line"/>
      <point x="-14" y="959" type="line"/>
    </contour>
    <contour>
      <point x="955" y="1700" type="move" name="top"/>
    </contour>
  </outline>
</glyph>
<glyph name="uni20AA" format="1">
  <advance width="1736"/>
  <unicode hex="20AA"/>
  <outline>
    <contour>
      <point x="1349" y="1428" type="line" name="hr00"/>
      <point x="1349" y="215" type="line"/>
      <point x="984" y="215" type="line" smooth="yes"/>
      <point x="809" y="215"/>
      <point x="779" y="254"/>
      <point x="779" y="395" type="curve" smooth="yes"/>
      <point x="779" y="1004" type="line"/>
      <point x="524" y="1004" type="line"/>
      <point x="524" y="424" type="line" smooth="yes"/>
      <point x="524" y="114"/>
      <point x="646" y="0"/>
      <point x="864" y="0" type="curve" smooth="yes"/>
      <point x="1597" y="0" type="line"/>
      <point x="1597" y="1428" type="line"/>
    </contour>
    <contour>
      <point x="387" y="0" type="line"/>
      <point x="387" y="1194" type="line"/>
      <point x="821" y="1194" type="line"/>
      <point x="958" y="1194"/>
      <point x="951" y="1115"/>
      <point x="951" y="974" type="curve" smooth="yes"/>
      <point x="951" y="395" type="line"/>
      <point x="1201" y="395" type="line"/>
      <point x="1201" y="1005" type="line" smooth="yes"/>
      <point x="1201" y="1318"/>
      <point x="1135" y="1428"/>
      <point x="932" y="1428" type="curve"/>
      <point x="139" y="1428" type="line"/>
      <point x="139" y="0" type="line"/>
    </contour>
  </outline>
</glyph>
<glyph name="dong" format="1">
  <advance width="1168"/>
  <unicode hex="20AB"/>
  <outline>
    <contour>
      <point x="94" y="508" type="curve" smooth="yes"/>
      <point x="94" y="185"/>
      <point x="250" y="-30"/>
      <point x="499" y="-30" type="curve" smooth="yes"/>
      <point x="643" y="-30"/>
      <point x="728" y="52"/>
      <point x="772" y="139" type="curve"/>
      <point x="768" y="67" type="line"/>
      <point x="768" y="0" type="line"/>
      <point x="1012" y="0" type="line"/>
      <point x="1012" y="1576" type="line"/>
      <point x="751" y="1576" type="line"/>
      <point x="751" y="994" type="line"/>
      <point x="767" y="893" type="line"/>
      <point x="728" y="963"/>
      <point x="643" y="1044"/>
      <point x="502" y="1044" type="curve" smooth="yes"/>
      <point x="230" y="1044"/>
      <point x="94" y="843"/>
    </contour>
    <contour>
      <point x="363" y="509" type="curve" smooth="yes"/>
      <point x="363" y="758"/>
      <point x="470" y="838"/>
      <point x="566" y="838" type="curve" smooth="yes"/>
      <point x="690" y="838"/>
      <point x="744" y="716"/>
      <point x="744" y="504" type="curve" smooth="yes"/>
      <point x="744" y="270"/>
      <point x="658" y="175"/>
      <point x="560" y="175" type="curve" smooth="yes"/>
      <point x="447" y="175"/>
      <point x="363" y="283"/>
    </contour>
    <contour>
      <point x="411" y="1700" type="move" name="top"/>
    </contour>
  </outline>
</glyph>
<glyph name="Euro" format="1">
  <advance width="1296"/>
  <unicode hex="20AC"/>
  <outline>
    <contour>
      <point x="222" y="729" type="curve" smooth="yes"/>
      <point x="222" y="228"/>
      <point x="444" y="-19"/>
      <point x="776" y="-19" type="curve" smooth="yes"/>
      <point x="942" y="-19"/>
      <point x="1069" y="25"/>
      <point x="1199" y="134" type="curve"/>
      <point x="1114" y="316" type="line"/>
      <point x="1046" y="236"/>
      <point x="941" y="172"/>
      <point x="829" y="172" type="curve" smooth="yes"/>
      <point x="587" y="172"/>
      <point x="513" y="382"/>
      <point x="513" y="729" type="curve" smooth="yes"/>
      <point x="513" y="1177"/>
      <point x="718" y="1270"/>
      <point x="820" y="1270" type="curve" smooth="yes"/>
      <point x="953" y="1270"/>
      <point x="1026" y="1199"/>
      <point x="1074" y="1126" type="curve"/>
      <point x="1166" y="1306" type="line"/>
      <point x="1117" y="1368"/>
      <point x="982" y="1452"/>
      <point x="773" y="1452" type="curve" smooth="yes"/>
      <point x="353" y="1452"/>
      <point x="222" y="1112"/>
    </contour>
    <contour>
      <point x="121" y="796" type="line"/>
      <point x="964" y="796" type="line"/>
      <point x="962" y="965" type="line"/>
      <point x="121" y="965" type="line"/>
    </contour>
    <contour>
      <point x="104" y="487" type="line"/>
      <point x="950" y="487" type="line"/>
      <point x="950" y="657" type="line"/>
      <point x="104" y="657" type="line"/>
    </contour>
  </outline>
</glyph>
<glyph name="uni20B1" format="1">
  <advance width="1096"/>
  <unicode hex="20B1"/>
  <outline>
    <contour>
      <point x="155" y="0" type="line"/>
      <point x="421" y="0" type="line"/>
      <point x="421" y="322" type="line"/>
      <point x="390" y="218" type="line"/>
      <point x="547" y="218" type="line"/>
      <point x="910" y="218"/>
      <point x="1059" y="529"/>
      <point x="1059" y="815" type="curve" smooth="yes"/>
      <point x="1059" y="1238"/>
      <point x="829" y="1428"/>
      <point x="539" y="1428" type="curve" smooth="yes"/>
      <point x="155" y="1428" type="line"/>
    </contour>
    <contour>
      <point x="384" y="427" type="line"/>
      <point x="421" y="403" type="line"/>
      <point x="421" y="1257" type="line"/>
      <point x="389" y="1221" type="line"/>
      <point x="533" y="1221" type="line" smooth="yes"/>
      <point x="738" y="1221"/>
      <point x="798" y="1049"/>
      <point x="798" y="802" type="curve" smooth="yes"/>
      <point x="798" y="582"/>
      <point x="720" y="427"/>
      <point x="539" y="427" type="curve" smooth="yes"/>
    </contour>
    <contour>
      <point x="34" y="886" type="line"/>
      <point x="1190" y="886" type="line"/>
      <point x="1189" y="1046" type="line"/>
      <point x="34" y="1046" type="line"/>
    </contour>
    <contour>
      <point x="34" y="572" type="line"/>
      <point x="1190" y="572" type="line"/>
      <point x="1189" y="732" type="line"/>
      <point x="34" y="732" type="line"/>
    </contour>
    <contour>
      <point x="602" y="1700" type="move" name="top"/>
    </contour>
  </outline>
</glyph>
<glyph name="afii61248" format="1">
  <advance width="1851"/>
  <unicode hex="2105"/>
  <outline>
    <contour>
      <point x="616" y="1" type="line"/>
      <point x="817" y="0" type="line"/>
      <point x="1231" y="1428" type="line"/>
      <point x="1031" y="1428" type="line"/>
    </contour>
    <contour>
      <point x="537" y="917" type="line"/>
      <point x="525" y="857"/>
      <point x="496" y="816"/>
      <point x="432" y="816" type="curve" smooth="yes"/>
      <point x="328" y="816"/>
      <point x="310" y="919"/>
      <point x="310" y="1048" type="curve" smooth="yes"/>
      <point x="310" y="1204"/>
      <point x="338" y="1284"/>
      <point x="429" y="1284" type="curve" smooth="yes"/>
      <point x="488" y="1284"/>
      <point x="519" y="1252"/>
      <point x="534" y="1186" type="curve"/>
      <point x="729" y="1276" type="line"/>
      <point x="675" y="1389"/>
      <point x="572" y="1440"/>
      <point x="434" y="1440" type="curve" smooth="yes"/>
      <point x="224" y="1440"/>
      <point x="90" y="1322"/>
      <point x="90" y="1049" type="curve" smooth="yes"/>
      <point x="90" y="815"/>
      <point x="199" y="661"/>
      <point x="435" y="661" type="curve" smooth="yes"/>
      <point x="583" y="661"/>
      <point x="675" y="718"/>
      <point x="725" y="811" type="curve"/>
    </contour>
    <contour>
      <point x="1079" y="359" type="curve" smooth="yes"/>
      <point x="1079" y="125"/>
      <point x="1186" y="-30"/>
      <point x="1424" y="-30" type="curve" smooth="yes"/>
      <point x="1672" y="-30"/>
      <point x="1761" y="130"/>
      <point x="1761" y="355" type="curve" smooth="yes"/>
      <point x="1761" y="631"/>
      <point x="1631" y="749"/>
      <point x="1422" y="749" type="curve" smooth="yes"/>
      <point x="1211" y="749"/>
      <point x="1079" y="631"/>
    </contour>
    <contour>
      <point x="1299" y="356" type="curve" smooth="yes"/>
      <point x="1299" y="514"/>
      <point x="1324" y="594"/>
      <point x="1418" y="594" type="curve" smooth="yes"/>
      <point x="1510" y="594"/>
      <point x="1534" y="514"/>
      <point x="1534" y="352" type="curve" smooth="yes"/>
      <point x="1534" y="230"/>
      <point x="1523" y="126"/>
      <point x="1418" y="126" type="curve" smooth="yes"/>
      <point x="1314" y="126"/>
      <point x="1299" y="229"/>
    </contour>
  </outline>
</glyph>
<glyph name="uni2113" format="1">
  <advance width="1344"/>
  <unicode hex="2113"/>
  <outline>
    <contour>
      <point x="71" y="160" type="curve"/>
      <point x="257" y="27" type="line"/>
      <point x="320" y="67"/>
      <point x="382" y="111"/>
      <point x="441" y="157" type="curve"/>
      <point x="501" y="41"/>
      <point x="595" y="-23"/>
      <point x="716" y="-23" type="curve" smooth="yes"/>
      <point x="1007" y="-23"/>
      <point x="1097" y="254"/>
      <point x="1134" y="442" type="curve"/>
      <point x="1025" y="468" type="line"/>
      <point x="974" y="279"/>
      <point x="865" y="156"/>
      <point x="750" y="156" type="curve" smooth="yes"/>
      <point x="705" y="156"/>
      <point x="625" y="167"/>
      <point x="580" y="273" type="curve"/>
      <point x="928" y="597"/>
      <point x="1195" y="1007"/>
      <point x="1195" y="1398" type="curve" smooth="yes"/>
      <point x="1195" y="1560"/>
      <point x="1114" y="1659"/>
      <point x="980" y="1659" type="curve" smooth="yes"/>
      <point x="646" y="1659"/>
      <point x="369" y="1089"/>
      <point x="369" y="519" type="curve" smooth="yes"/>
      <point x="369" y="465"/>
      <point x="372" y="414"/>
      <point x="379" y="367" type="curve"/>
      <point x="291" y="297"/>
      <point x="187" y="227"/>
    </contour>
    <contour>
      <point x="921" y="1532" type="curve" smooth="yes"/>
      <point x="954" y="1532"/>
      <point x="980" y="1494"/>
      <point x="980" y="1422" type="curve" smooth="yes"/>
      <point x="980" y="1168"/>
      <point x="847" y="823"/>
      <point x="550" y="517" type="curve"/>
      <point x="562" y="923"/>
      <point x="723" y="1532"/>
    </contour>
  </outline>
</glyph>
<glyph name="afii61352" format="1">
  <advance width="2453"/>
  <unicode hex="2116"/>
  <outline>
    <contour>
      <point x="155" y="0" type="line"/>
      <point x="416" y="0" type="line"/>
      <point x="416" y="1033" type="line"/>
      <point x="253" y="975" type="line"/>
      <point x="1165" y="-40" type="line"/>
      <point x="1165" y="1428" type="line"/>
      <point x="904" y="1428" type="line"/>
      <point x="904" y="388" type="line"/>
      <point x="1056" y="440" type="line"/>
      <point x="155" y="1464" type="line"/>
    </contour>
    <contour>
      <point x="1691" y="905" type="curve" smooth="yes"/>
      <point x="1691" y="1141"/>
      <point x="1754" y="1250"/>
      <point x="1889" y="1250" type="curve" smooth="yes"/>
      <point x="2023" y="1250"/>
      <point x="2080" y="1122"/>
      <point x="2080" y="905" type="curve" smooth="yes"/>
      <point x="2080" y="688"/>
      <point x="2023" y="558"/>
      <point x="1889" y="558" type="curve" smooth="yes"/>
      <point x="1754" y="558"/>
      <point x="1691" y="669"/>
    </contour>
    <contour>
      <point x="1415" y="905" type="curve" smooth="yes"/>
      <point x="1415" y="570"/>
      <point x="1572" y="365"/>
      <point x="1890" y="365" type="curve" smooth="yes"/>
      <point x="2208" y="365"/>
      <point x="2358" y="581"/>
      <point x="2358" y="905" type="curve" smooth="yes"/>
      <point x="2358" y="1229"/>
      <point x="2208" y="1445"/>
      <point x="1890" y="1445" type="curve" smooth="yes"/>
      <point x="1572" y="1445"/>
      <point x="1415" y="1240"/>
    </contour>
    <contour>
      <point x="2327" y="0" type="line"/>
      <point x="2327" y="191" type="line"/>
      <point x="1485" y="191" type="line"/>
      <point x="1485" y="0" type="line"/>
    </contour>
  </outline>
</glyph>
